<svg overflow="hidden" viewBox="0, 0, 256, 204.03" id="6fab46e4-31ef-4eb5-8e07-9b57a1c431d7" xmlns="http://www.w3.org/2000/svg" xmlns:xlink="http://www.w3.org/1999/xlink" xmlns:xml="http://www.w3.org/XML/1998/namespace" version="1.1"><defs><linearGradient x1="9402.06" y1="-3864.85" x2="9531.68" y2="-3877.23" gradientUnits="userSpaceOnUse" gradientTransform="matrix(-1, -0.03, 0.03, -1, 9668.01, -3425.2)" id="linear-gradient"><stop offset="0%" stop-color="#BD71CE" /><stop offset="100%" stop-color="#7736C7" /></linearGradient><linearGradient x1="10977.5" y1="-4665.76" x2="10820.6" y2="-4617.63" gradientUnits="userSpaceOnUse" gradientTransform="matrix(-0.956049, -0.293206, 0.293206, -0.956049, 11915.4, -1117.34)" id="linear-gradient-2"><stop offset="24%" stop-color="#B690FD" /><stop offset="45%" stop-color="#C59FFA" /><stop offset="83%" stop-color="#ECC6F3" /><stop offset="100%" stop-color="#FFD9EF" /></linearGradient><linearGradient x1="68.71" y1="54.84" x2="185.02" y2="86" gradientUnits="userSpaceOnUse" id="linear-gradient-3"><stop offset="23%" stop-color="#7DCAFF" /><stop offset="41%" stop-color="#79CDFA" /><stop offset="62%" stop-color="#6FD7EA" /><stop offset="86%" stop-color="#5DE8D0" /><stop offset="98%" stop-color="#52F2C0" /></linearGradient><clipPath id="clip-path"><path d="M216.92 75.43 C208.09 72.34 199.11 73.43 190.63 78.84 C187.738 80.7025 185.056 82.8718 182.63 85.31 C180.627 87.4776 178.201 89.2101 175.5 90.4 C170.81 92.21 166.4 90.54 161.22 85.4 C144.55 68.73 128.48 69.87 119.96 78.4 C115.927 82.5997 113.508 88.0896 113.13 93.9 C112.828 97.5121 113.016 101.148 113.69 104.71 C114.579 109.364 116.026 113.893 118 118.2 C120.426 123.782 124.154 128.703 128.87 132.55 C131.494 134.689 134.454 136.379 137.63 137.55 L137.63 137.55 C143.275 139.769 149.585 139.559 155.07 136.97 L155.07 136.97 L155.07 136.97 C159.32 134.82 166.07 136.37 170.12 140.43 C177.12 147.43 185.57 150.77 193.03 150.17 C197.437 149.88 201.589 148.004 204.72 144.89 C207.029 142.807 209.53 140.949 212.19 139.34 C217.677 135.851 223.401 132.75 229.32 130.06 L229.32 130.06 L229.32 130.06 C233.256 128.38 236.859 126.009 239.96 123.06 C245.338 118.047 247.306 110.361 245 103.38 C244.082 100.497 242.734 97.7695 241 95.29 C238.904 92.3315 236.562 89.555 234 86.99 C233.75 86.75 233.52 86.5 233.27 86.25 C231.002 83.9685 228.532 81.8967 225.89 80.06 C223.119 78.1246 220.103 76.5676 216.92 75.43 z" style="fill:none;" /></clipPath><linearGradient x1="170.77" y1="58.41" x2="182.98" y2="58.41" xlink:href="#linear-gradient-3" gradientTransform="matrix(0.228691, 0.973499, -0.973499, 0.228691, 193.27, -127.13)" id="linear-gradient-4" /></defs><path d="M10 104.41 C10.0899 119.486 16.4393 133.847 27.53 144.06 C33.77 149.82 43.19 156.59 51.92 156.53 C58.38 156.53 65.61 153.36 71.92 155.53 C76.38 157.08 78.92 162.26 81.78 165.79 C89.09 174.91 99.56 183.9 111.89 184.32 C120.461 184.535 128.702 181.013 134.47 174.67 C146.47 161.97 145.77 141.38 134.47 128.6 C133.533 127.554 132.494 126.602 131.37 125.76 C127.895 123.246 123.795 121.738 119.52 121.4 C118.88 121.33 118.23 121.28 117.52 121.26 C113.038 121.197 108.571 121.79 104.26 123.02 C102.693 123.462 101.068 123.668 99.44 123.63 C91.01 123.35 82.44 114.35 73.84 96.88 C69.24 87.57 64.35 80.2 59.28 74.88 C52.4 67.63 43.28 62.74 33.15 65.33 C26.8696 66.9831 21.464 70.9854 18.05 76.51 C12.7564 84.85 9.96285 94.5319 10 104.41 z" style="fill:url(#linear-gradient);" /><path d="M96.54 55.1 C84.54 54.19 71.6 58.96 63.73 68.25 C52.52 81.46 49 104.79 57.86 121.54 C65.96 136.8 83.67 149.35 103.73 144.37 C111.33 142.48 125.96 129.7 133.55 134.27 C141.14 138.84 137.11 154.36 137.21 161.41 C137.21 163.09 137.21 165.3 137.48 167.75 C137.741 171.451 138.556 175.092 139.9 178.55 C144.38 189.41 157.54 193.83 168.41 194.02 C188.18 194.38 211.41 177.42 207.23 155.25 C206.34 150.47 203.55 146.31 202.37 141.65 C200.6 134.65 204.63 131.65 208.91 126.71 C213.56 121.35 218.52 113.92 216.54 106.45 C213.6 95.38 206.07 87.51 193.88 89.07 C185.06 90.2 178.71 95.33 170.74 98.07 C165.23 99.94 160.1 102.23 153.74 100.28 C144.9 97.56 141.58 92.04 137.45 84.57 C135.155 80.3503 132.502 76.3355 129.52 72.57 C121.42 62.4312 109.478 56.1055 96.54 55.1 z" style="fill:url(#linear-gradient-2);" /><path d="M78.32 71.66 C82.87 79.78 90.32 84.83 100.15 86.4 C103.523 86.9228 106.945 87.067 110.35 86.83 C113.268 86.5314 116.216 86.8378 119.01 87.73 C123.7 89.47 125.89 93.61 126.34 100.87 C127.81 124.26 140.53 133.97 152.49 133.23 C158.255 132.751 163.665 130.246 167.76 126.16 C170.365 123.671 172.619 120.838 174.46 117.74 C176.432 114.684 177.985 111.378 179.08 107.91 C181.463 100.554 180.22 92.5045 175.73 86.21 C172.73 81.82 164.43 74.21 159.66 69.32 C156.84 66.42 154.56 61.19 152.82 56.43 C148.87 45.66 147.82 40.51 142.82 29.81 C138.82 21.41 128.58 13.17 118.21 11.12 C109.67 9.43 100.57 9.35 92.52 13.06 C83.4237 17.298 76.651 25.3214 74 35 C73.2164 37.8155 72.7238 40.7039 72.53 43.62 C71.86 53.71 73.26 62.62 78.32 71.66 z" style="fill:url(#linear-gradient-3);" /><g clip-path="url(#clip-path)"><path d="M137.27 25.36 C141.73 25.36 145.74 23.42 147.9 22.36 L148.22 22.21 L147.44 22.21 C145.24 23.26 141.44 25 137.27 25 C133.1 25 129.27 23.26 127.1 22.21 L126.32 22.21 L126.64 22.36 C128.79 23.42 132.8 25.36 137.27 25.36 z" style="fill:#8546D2;" /><path d="M221.73 25.36 C226.19 25.36 230.21 23.42 232.36 22.36 L232.68 22.21 L231.9 22.21 C229.7 23.26 225.9 25 221.73 25 C217.56 25 213.73 23.26 211.57 22.21 L210.79 22.21 L211.1 22.36 C213.26 23.42 217.26 25.36 221.73 25.36 z" style="fill:#8546D2;" /><path d="M106 22.23 L105.22 22.23 C103 23.28 99.21 25 95 25 L95 25.34 C99.46 25.34 103.47 23.4 105.63 22.34 z" style="fill:#8546D2;" /><path d="M179.5 25.36 C183.96 25.36 187.97 23.42 190.13 22.36 L190.45 22.21 L189.67 22.21 C187.47 23.26 183.67 25 179.5 25 C175.33 25 171.5 23.26 169.34 22.21 L168.56 22.21 L168.87 22.36 C171 23.42 175 25.36 179.5 25.36 z" style="fill:#8546D2;" /><path d="M264 25.36 L264 25 C259.82 25 256 23.26 253.84 22.21 L253 22.21 L253.31 22.36 C255.49 23.42 259.49 25.36 264 25.36 z" style="fill:#8546D2;" /><path d="M116.15 22.82 C120.53 22.82 124.5 24.74 126.64 25.76 C128.78 26.78 132.8 28.76 137.27 28.76 C141.74 28.76 145.74 26.82 147.9 25.76 C150.06 24.7 154.02 22.82 158.38 22.82 C162.74 22.82 166.73 24.74 168.87 25.76 C171.01 26.78 175.03 28.76 179.5 28.76 C183.97 28.76 187.97 26.82 190.13 25.76 C192.29 24.7 196.25 22.82 200.62 22.82 C204.99 22.82 208.97 24.74 211.1 25.76 C213.23 26.78 217.26 28.76 221.73 28.76 C226.2 28.76 230.21 26.82 232.36 25.76 C234.51 24.7 238.48 22.82 242.85 22.82 C247.22 22.82 251.2 24.74 253.33 25.76 C255.46 26.78 259.49 28.76 263.96 28.76 L263.96 28.4 C259.57 28.4 255.61 26.48 253.48 25.46 C251.35 24.44 247.29 22.46 242.85 22.46 C238.41 22.46 234.38 24.4 232.22 25.46 C230.06 26.52 226.11 28.4 221.73 28.4 C217.35 28.4 213.38 26.48 211.25 25.46 C209.12 24.44 205.06 22.46 200.62 22.46 C196.18 22.46 192.15 24.4 189.98 25.46 C187.81 26.52 183.88 28.4 179.5 28.4 C175.12 28.4 171.15 26.48 169.02 25.46 C166.89 24.44 162.83 22.46 158.38 22.46 C153.93 22.46 149.92 24.4 147.75 25.46 C145.58 26.52 141.65 28.4 137.27 28.4 C132.89 28.4 128.92 26.48 126.79 25.46 C124.66 24.44 120.6 22.46 116.15 22.46 C111.7 22.46 107.68 24.4 105.52 25.46 C103.36 26.52 99.42 28.4 95 28.4 L95 28.74 C99.46 28.74 103.47 26.8 105.63 25.74 C107.79 24.68 111.78 22.82 116.15 22.82 z" style="fill:#8546D2;" /><path d="M116.15 26.2 C120.52 26.2 124.5 28.11 126.64 29.14 C128.78 30.17 132.8 32.14 137.27 32.14 C141.74 32.14 145.74 30.21 147.9 29.14 C150.06 28.07 154 26.2 158.38 26.2 C162.76 26.2 166.73 28.11 168.87 29.14 C171.01 30.17 175.03 32.14 179.5 32.14 C183.97 32.14 187.97 30.21 190.13 29.14 C192.29 28.07 196.25 26.2 200.61 26.2 C204.97 26.2 208.96 28.11 211.1 29.14 C213.24 30.17 217.26 32.14 221.73 32.14 C226.2 32.14 230.21 30.21 232.36 29.14 C234.51 28.07 238.48 26.2 242.85 26.2 C247.22 26.2 251.2 28.11 253.33 29.14 C255.46 30.17 259.49 32.14 263.96 32.14 L263.96 31.81 C259.57 31.81 255.61 29.89 253.48 28.87 C251.35 27.85 247.29 25.87 242.85 25.87 C238.41 25.87 234.38 27.81 232.22 28.87 C230.06 29.93 226.11 31.81 221.73 31.81 C217.35 31.81 213.38 29.89 211.25 28.87 C209.12 27.85 205.06 25.87 200.61 25.87 C196.16 25.87 192.15 27.81 189.98 28.87 C187.81 29.93 183.88 31.81 179.5 31.81 C175.12 31.81 171.15 29.89 169.02 28.87 C166.89 27.85 162.83 25.87 158.38 25.87 C153.93 25.87 149.92 27.81 147.75 28.87 C145.58 29.93 141.65 31.81 137.27 31.81 C132.89 31.81 128.92 29.89 126.79 28.87 C124.66 27.85 120.6 25.87 116.15 25.87 C111.7 25.87 107.68 27.81 105.52 28.87 C103.36 29.93 99.42 31.78 95 31.78 L95 32.11 C99.46 32.11 103.47 30.18 105.63 29.11 C107.79 28.04 111.78 26.2 116.15 26.2 z" style="fill:#8546D2;" /><path d="M116.15 29.58 C120.52 29.58 124.5 31.49 126.64 32.52 C128.78 33.55 132.8 35.52 137.27 35.52 C141.74 35.52 145.74 33.59 147.9 32.52 C150.06 31.45 154.02 29.58 158.38 29.58 C162.74 29.58 166.73 31.49 168.87 32.52 C171.01 33.55 175.03 35.52 179.5 35.52 C183.97 35.52 187.97 33.59 190.13 32.52 C192.29 31.45 196.25 29.58 200.62 29.58 C204.99 29.58 208.97 31.49 211.1 32.52 C213.23 33.55 217.26 35.52 221.73 35.52 C226.2 35.52 230.21 33.59 232.36 32.52 C234.51 31.45 238.48 29.58 242.85 29.58 C247.22 29.58 251.2 31.49 253.33 32.52 C255.46 33.55 259.49 35.52 263.96 35.52 L263.96 35.18 C259.57 35.18 255.61 33.27 253.48 32.24 C251.35 31.21 247.29 29.24 242.85 29.24 C238.41 29.24 234.38 31.18 232.22 32.24 C230.06 33.3 226.11 35.18 221.73 35.18 C217.35 35.18 213.38 33.27 211.25 32.24 C209.12 31.21 205.06 29.24 200.62 29.24 C196.18 29.24 192.15 31.18 189.98 32.24 C187.81 33.3 183.88 35.18 179.5 35.18 C175.12 35.18 171.15 33.27 169.02 32.24 C166.89 31.21 162.83 29.24 158.38 29.24 C153.93 29.24 149.92 31.18 147.75 32.24 C145.58 33.3 141.65 35.18 137.27 35.18 C132.89 35.18 128.92 33.27 126.79 32.24 C124.66 31.21 120.6 29.24 116.15 29.24 C111.7 29.24 107.68 31.18 105.52 32.24 C103.36 33.3 99.42 35.15 95 35.15 L95 35.49 C99.46 35.49 103.47 33.56 105.63 32.49 C107.79 31.42 111.78 29.58 116.15 29.58 z" style="fill:#8546D2;" /><path d="M116.15 33 C120.52 33 124.5 34.91 126.64 35.94 C128.78 36.97 132.8 38.94 137.27 38.94 C141.74 38.94 145.74 37.01 147.9 35.94 C150.06 34.87 154 33 158.38 33 C162.76 33 166.73 34.91 168.87 35.94 C171.01 36.97 175.03 38.94 179.5 38.94 C183.97 38.94 187.97 37.01 190.13 35.94 C192.29 34.87 196.25 33 200.62 33 C204.99 33 209 34.87 211.1 35.9 C213.2 36.93 217.26 38.9 221.73 38.9 C226.2 38.9 230.21 36.97 232.36 35.9 C234.51 34.83 238.48 33 242.85 33 C247.22 33 251.2 34.91 253.33 35.94 C255.46 36.97 259.49 38.94 263.96 38.94 L263.96 38.6 C259.57 38.6 255.61 36.69 253.48 35.66 C251.35 34.63 247.29 32.66 242.85 32.66 C238.41 32.66 234.38 34.59 232.22 35.66 C230.06 36.73 226.11 38.6 221.73 38.6 C217.35 38.6 213.38 36.69 211.25 35.66 C209.12 34.63 205.06 32.66 200.62 32.66 C196.18 32.66 192.15 34.59 189.98 35.66 C187.81 36.73 183.88 38.6 179.5 38.6 C175.12 38.6 171.15 36.69 169.02 35.66 C166.89 34.63 162.83 32.66 158.38 32.66 C153.93 32.66 149.92 34.59 147.75 35.66 C145.58 36.73 141.65 38.6 137.27 38.6 C132.89 38.6 128.92 36.69 126.79 35.66 C124.66 34.63 120.6 32.66 116.15 32.66 C111.7 32.66 107.68 34.59 105.52 35.66 C103.36 36.73 99.42 38.53 95 38.53 L95 38.87 C99.46 38.87 103.47 36.94 105.63 35.87 C107.79 34.8 111.78 33 116.15 33 z" style="fill:#8546D2;" /><path d="M116.15 36.34 C120.52 36.34 124.5 38.25 126.64 39.28 C128.78 40.31 132.8 42.28 137.27 42.28 C141.74 42.28 145.74 40.35 147.9 39.28 C150.06 38.21 154.02 36.34 158.38 36.34 C162.74 36.34 166.73 38.25 168.87 39.28 C171.01 40.31 175.03 42.28 179.5 42.28 C183.97 42.28 187.97 40.35 190.13 39.28 C192.29 38.21 196.25 36.34 200.62 36.34 C204.99 36.34 208.97 38.25 211.1 39.28 C213.23 40.31 217.26 42.28 221.73 42.28 C226.2 42.28 230.21 40.35 232.36 39.28 C234.51 38.21 238.48 36.34 242.85 36.34 C247.22 36.34 251.2 38.25 253.33 39.28 C255.46 40.31 259.49 42.28 263.96 42.28 L263.96 41.94 C259.57 41.94 255.61 40.03 253.48 39 C251.35 37.97 247.29 36 242.85 36 C238.41 36 234.38 37.93 232.22 39 C230.06 40.07 226.11 41.94 221.73 41.94 C217.35 41.94 213.38 40 211.25 39 C209.12 38 205.06 36 200.62 36 C196.18 36 192.15 37.93 189.98 39 C187.81 40.07 183.88 41.94 179.5 41.94 C175.12 41.94 171.15 40 169 39 C166.85 38 162.81 36 158.36 36 C153.91 36 149.9 37.93 147.73 39 C145.56 40.07 141.63 41.94 137.25 41.94 C132.87 41.94 128.92 40 126.79 39 C124.66 38 120.6 36 116.15 36 C111.7 36 107.68 37.93 105.52 39 C103.36 40.07 99.42 41.91 95 41.91 L95 42.25 C99.46 42.25 103.47 40.32 105.63 39.25 C107.79 38.18 111.78 36.34 116.15 36.34 z" style="fill:#8546D2;" /><path d="M116.15 39.72 C120.53 39.72 124.5 41.63 126.64 42.65 C128.78 43.67 132.8 45.65 137.27 45.65 C141.74 45.65 145.74 43.71 147.9 42.65 C150.06 41.59 154.02 39.72 158.38 39.72 C162.74 39.72 166.73 41.63 168.87 42.65 C171.01 43.67 175.03 45.65 179.5 45.65 C183.97 45.65 187.97 43.71 190.13 42.65 C192.29 41.59 196.25 39.72 200.62 39.72 C204.99 39.72 208.97 41.63 211.1 42.65 C213.23 43.67 217.26 45.65 221.73 45.65 C226.2 45.65 230.21 43.71 232.36 42.65 C234.51 41.59 238.48 39.72 242.85 39.72 C247.22 39.72 251.2 41.63 253.33 42.65 C255.46 43.67 259.49 45.65 263.96 45.65 L263.96 45.31 C259.57 45.31 255.61 43.4 253.48 42.37 C251.35 41.34 247.29 39.37 242.85 39.37 C238.41 39.37 234.38 41.3 232.22 42.37 C230.06 43.44 226.11 45.31 221.73 45.31 C217.35 45.31 213.38 43.4 211.25 42.37 C209.12 41.34 205.06 39.37 200.62 39.37 C196.18 39.37 192.15 41.3 189.98 42.37 C187.81 43.44 183.88 45.31 179.5 45.31 C175.12 45.31 171.15 43.4 169.02 42.37 C166.89 41.34 162.83 39.37 158.38 39.37 C153.93 39.37 149.92 41.3 147.75 42.37 C145.58 43.44 141.65 45.31 137.27 45.31 C132.89 45.31 128.92 43.4 126.79 42.37 C124.66 41.34 120.6 39.37 116.15 39.37 C111.7 39.37 107.68 41.3 105.52 42.37 C103.36 43.44 99.42 45.29 95 45.29 L95 45.63 C99.46 45.63 103.47 43.69 105.63 42.63 C107.79 41.57 111.78 39.72 116.15 39.72 z" style="fill:#8546D2;" /><path d="M116.15 43.09 C120.52 43.09 124.5 45.01 126.64 46.03 C128.78 47.05 132.8 49.03 137.27 49.03 C141.74 49.03 145.74 47.09 147.9 46.03 C150.06 44.97 154.02 43.09 158.38 43.09 C162.74 43.09 166.73 45 168.87 46 C171.01 47 175.03 49 179.5 49 C183.97 49 187.97 47.06 190.13 46 C192.29 44.94 196.25 43.06 200.62 43.06 C204.99 43.06 209 45 211.1 46 C213.2 47 217.26 49 221.73 49 C226.2 49 230.21 47.06 232.36 46 C234.51 44.94 238.48 43.06 242.85 43.06 C247.22 43.06 251.2 45 253.33 46 C255.46 47 259.49 49 263.96 49 L263.96 48.66 C259.57 48.66 255.61 46.75 253.48 45.72 C251.35 44.69 247.29 42.72 242.85 42.72 C238.41 42.72 234.38 44.65 232.22 45.72 C230.06 46.79 226.11 48.66 221.73 48.66 C217.35 48.66 213.38 46.75 211.25 45.72 C209.12 44.69 205.06 42.72 200.62 42.72 C196.18 42.72 192.15 44.65 189.98 45.72 C187.81 46.79 183.88 48.66 179.5 48.66 C175.12 48.66 171.15 46.75 169.02 45.72 C166.89 44.69 162.83 42.72 158.38 42.72 C153.93 42.72 149.92 44.65 147.75 45.72 C145.58 46.79 141.65 48.66 137.27 48.66 C132.89 48.66 128.92 46.75 126.79 45.72 C124.66 44.69 120.6 42.72 116.15 42.72 C111.7 42.72 107.68 44.65 105.52 45.72 C103.36 46.79 99.42 48.67 95 48.67 L95 49 C99.46 49 103.47 47.06 105.63 46 C107.79 44.94 111.78 43.09 116.15 43.09 z" style="fill:#8546D2;" /><path d="M116.15 46.47 C120.52 46.47 124.5 48.38 126.64 49.41 C128.78 50.44 132.8 52.41 137.27 52.41 C141.74 52.41 145.74 50.48 147.9 49.41 C150.06 48.34 154.02 46.47 158.38 46.47 C162.74 46.47 166.73 48.38 168.87 49.41 C171.01 50.44 175.03 52.41 179.5 52.41 C183.97 52.41 187.97 50.48 190.13 49.41 C192.29 48.34 196.25 46.47 200.62 46.47 C204.99 46.47 208.97 48.38 211.1 49.41 C213.23 50.44 217.26 52.41 221.73 52.41 C226.2 52.41 230.2 50.48 232.36 49.41 C234.52 48.34 238.48 46.47 242.85 46.47 C247.22 46.47 251.2 48.38 253.33 49.41 C255.46 50.44 259.49 52.41 263.96 52.41 L263.96 52.08 C259.57 52.08 255.61 50.16 253.48 49.14 C251.35 48.12 247.29 46.14 242.85 46.14 C238.41 46.14 234.38 48.08 232.22 49.14 C230.06 50.2 226.11 52.08 221.73 52.08 C217.35 52.08 213.38 50.16 211.25 49.14 C209.12 48.12 205.06 46.14 200.62 46.14 C196.18 46.14 192.15 48.08 189.98 49.14 C187.81 50.2 183.88 52.08 179.5 52.08 C175.12 52.08 171.15 50.16 169.02 49.14 C166.89 48.12 162.83 46.14 158.38 46.14 C153.93 46.14 149.92 48.08 147.75 49.14 C145.58 50.2 141.65 52.08 137.27 52.08 C132.89 52.08 128.92 50.16 126.79 49.14 C124.66 48.12 120.6 46.14 116.15 46.14 C111.7 46.14 107.68 48.08 105.52 49.14 C103.36 50.2 99.42 52.05 95 52.05 L95 52.38 C99.46 52.38 103.47 50.45 105.63 49.38 C107.79 48.31 111.78 46.47 116.15 46.47 z" style="fill:#8546D2;" /><path d="M116.15 49.85 C120.52 49.85 124.5 51.76 126.64 52.79 C128.78 53.82 132.8 55.79 137.27 55.79 C141.74 55.79 145.74 53.86 147.9 52.79 C150.06 51.72 154.02 49.85 158.38 49.85 C162.74 49.85 166.73 51.76 168.87 52.79 C171.01 53.82 175.03 55.79 179.5 55.79 C183.97 55.79 187.97 53.86 190.13 52.79 C192.29 51.72 196.25 49.85 200.62 49.85 C204.99 49.85 208.97 51.76 211.1 52.79 C213.23 53.82 217.26 55.79 221.73 55.79 C226.2 55.79 230.2 53.86 232.36 52.79 C234.52 51.72 238.48 49.85 242.85 49.85 C247.22 49.85 251.2 51.76 253.33 52.79 C255.46 53.82 259.49 55.79 263.96 55.79 L263.96 55.45 C259.57 55.45 255.61 53.54 253.48 52.52 C251.35 51.5 247.29 49.52 242.85 49.52 C238.41 49.52 234.38 51.46 232.22 52.52 C230.06 53.58 226.11 55.45 221.73 55.45 C217.35 55.45 213.38 53.54 211.25 52.52 C209.12 51.5 205.06 49.52 200.62 49.52 C196.18 49.52 192.15 51.46 189.98 52.52 C187.81 53.58 183.88 55.45 179.5 55.45 C175.12 55.45 171.15 53.54 169.02 52.52 C166.89 51.5 162.83 49.52 158.38 49.52 C153.93 49.52 149.92 51.46 147.75 52.52 C145.58 53.58 141.65 55.45 137.27 55.45 C132.89 55.45 128.92 53.54 126.79 52.52 C124.66 51.5 120.6 49.52 116.15 49.52 C111.7 49.52 107.68 51.46 105.52 52.52 C103.36 53.58 99.42 55.42 95 55.42 L95 55.76 C99.46 55.76 103.47 53.83 105.63 52.76 C107.79 51.69 111.78 49.85 116.15 49.85 z" style="fill:#8546D2;" /><path d="M116.15 53.23 C120.53 53.23 124.5 55.14 126.64 56.17 C128.78 57.2 132.8 59.17 137.27 59.17 C141.74 59.17 145.74 57.24 147.9 56.17 C150.06 55.1 154.02 53.23 158.38 53.23 C162.74 53.23 166.73 55.14 168.87 56.17 C171.01 57.2 175.03 59.17 179.5 59.17 C183.97 59.17 187.97 57.24 190.13 56.17 C192.29 55.1 196.25 53.23 200.62 53.23 C204.99 53.23 208.97 55.14 211.1 56.17 C213.23 57.2 217.26 59.17 221.73 59.17 C226.2 59.17 230.21 57.24 232.36 56.17 C234.51 55.1 238.48 53.23 242.85 53.23 C247.22 53.23 251.2 55.14 253.33 56.17 C255.46 57.2 259.49 59.17 263.96 59.17 L263.96 58.8 C259.57 58.8 255.61 56.89 253.48 55.86 C251.35 54.83 247.29 52.86 242.85 52.86 C238.41 52.86 234.38 54.79 232.22 55.86 C230.06 56.93 226.11 58.8 221.73 58.8 C217.35 58.8 213.38 56.89 211.25 55.86 C209.12 54.83 205.06 52.86 200.62 52.86 C196.18 52.86 192.15 54.79 189.98 55.86 C187.81 56.93 183.88 58.8 179.5 58.8 C175.12 58.8 171.15 56.89 169.02 55.86 C166.89 54.83 162.83 52.86 158.38 52.86 C153.93 52.86 149.92 54.79 147.75 55.86 C145.58 56.93 141.65 58.8 137.27 58.8 C132.89 58.8 128.92 56.89 126.79 55.86 C124.66 54.83 120.6 52.86 116.15 52.86 C111.7 52.86 107.68 54.79 105.52 55.86 C103.36 56.93 99.42 58.8 95 58.8 L95 59.14 C99.46 59.14 103.47 57.21 105.63 56.14 C107.79 55.07 111.78 53.23 116.15 53.23 z" style="fill:#8546D2;" /><path d="M116.15 56.61 C120.53 56.61 124.5 58.52 126.64 59.55 C128.78 60.58 132.8 62.55 137.27 62.55 C141.74 62.55 145.74 60.62 147.9 59.55 C150.06 58.48 154.02 56.61 158.38 56.61 C162.74 56.61 166.73 58.52 168.87 59.55 C171.01 60.58 175.03 62.55 179.5 62.55 C183.97 62.55 187.97 60.62 190.13 59.55 C192.29 58.48 196.25 56.61 200.62 56.61 C204.99 56.61 208.97 58.52 211.1 59.55 C213.23 60.58 217.26 62.55 221.73 62.55 C226.2 62.55 230.2 60.62 232.36 59.55 C234.52 58.48 238.48 56.61 242.85 56.61 C247.22 56.61 251.2 58.52 253.33 59.55 C255.46 60.58 259.49 62.55 263.96 62.55 L263.96 62.21 C259.57 62.21 255.61 60.3 253.48 59.27 C251.35 58.24 247.29 56.27 242.85 56.27 C238.41 56.27 234.38 58.2 232.22 59.27 C230.06 60.34 226.11 62.21 221.73 62.21 C217.35 62.21 213.38 60.3 211.25 59.27 C209.12 58.24 205.06 56.27 200.62 56.27 C196.18 56.27 192.15 58.2 189.98 59.27 C187.81 60.34 183.88 62.21 179.5 62.21 C175.12 62.21 171.15 60.3 169.02 59.27 C166.89 58.24 162.83 56.27 158.38 56.27 C153.93 56.27 149.92 58.2 147.75 59.27 C145.58 60.34 141.65 62.21 137.27 62.21 C132.89 62.21 128.92 60.3 126.79 59.27 C124.66 58.24 120.6 56.27 116.15 56.27 C111.7 56.27 107.68 58.2 105.52 59.27 C103.36 60.34 99.42 62.18 95 62.18 L95 62.52 C99.46 62.52 103.47 60.59 105.63 59.52 C107.79 58.45 111.78 56.61 116.15 56.61 z" style="fill:#8546D2;" /><path d="M116.15 60 C120.53 60 124.5 61.91 126.64 62.93 C128.78 63.95 132.8 65.93 137.27 65.93 C141.74 65.93 145.74 63.99 147.9 62.93 C150.06 61.87 154 60 158.38 60 C162.76 60 166.73 61.91 168.87 62.93 C171.01 63.95 175.03 65.93 179.5 65.93 C183.97 65.93 187.97 63.99 190.13 62.93 C192.29 61.87 196.25 60 200.62 60 C204.99 60 209 61.9 211.1 62.92 C213.2 63.94 217.26 65.92 221.73 65.92 C226.2 65.92 230.21 63.98 232.36 62.92 C234.51 61.86 238.48 60 242.85 60 C247.22 60 251.2 61.91 253.33 62.93 C255.46 63.95 259.49 65.93 263.96 65.93 L263.96 65.59 C259.57 65.59 255.61 63.68 253.48 62.65 C251.35 61.62 247.29 59.65 242.85 59.65 C238.41 59.65 234.38 61.58 232.22 62.65 C230.06 63.72 226.11 65.59 221.73 65.59 C217.35 65.59 213.38 63.68 211.25 62.65 C209.12 61.62 205.06 59.65 200.62 59.65 C196.18 59.65 192.15 61.58 189.98 62.65 C187.81 63.72 183.88 65.59 179.5 65.59 C175.12 65.59 171.15 63.68 169.02 62.65 C166.89 61.62 162.83 59.65 158.38 59.65 C153.93 59.65 149.92 61.58 147.75 62.65 C145.58 63.72 141.65 65.59 137.27 65.59 C132.89 65.59 128.92 63.68 126.79 62.65 C124.66 61.62 120.6 59.65 116.15 59.65 C111.7 59.65 107.68 61.58 105.52 62.65 C103.36 63.72 99.42 65.56 95 65.56 L95 65.9 C99.46 65.9 103.47 63.96 105.63 62.9 C107.79 61.84 111.78 60 116.15 60 z" style="fill:#8546D2;" /><path d="M116.15 63.36 C120.52 63.36 124.5 65.28 126.64 66.3 C128.78 67.32 132.8 69.3 137.27 69.3 C141.74 69.3 145.74 67.36 147.9 66.3 C150.06 65.24 154.02 63.36 158.38 63.36 C162.74 63.36 166.73 65.28 168.87 66.3 C171.01 67.32 175.03 69.3 179.5 69.3 C183.97 69.3 187.97 67.36 190.13 66.3 C192.29 65.24 196.25 63.36 200.62 63.36 C204.99 63.36 209 65.28 211.1 66.3 C213.2 67.32 217.26 69.3 221.73 69.3 C226.2 69.3 230.21 67.36 232.36 66.3 C234.51 65.24 238.48 63.36 242.85 63.36 C247.22 63.36 251.2 65.28 253.33 66.3 C255.46 67.32 259.49 69.3 263.96 69.3 L263.96 68.96 C259.57 68.96 255.61 67.05 253.48 66.02 C251.35 64.99 247.29 63.02 242.85 63.02 C238.41 63.02 234.38 64.95 232.22 66.02 C230.06 67.09 226.11 68.96 221.73 68.96 C217.35 68.96 213.38 67 211.25 66 C209.12 65 205.06 63 200.62 63 C196.18 63 192.15 65 190 66 C187.85 67 183.9 68.94 179.52 68.94 C175.14 68.94 171.15 67 169 66 C166.85 65 162.81 63 158.36 63 C153.91 63 149.9 64.93 147.73 66 C145.56 67.07 141.63 68.94 137.25 68.94 C132.87 68.94 128.92 67 126.79 66 C124.66 65 120.6 63 116.15 63 C111.7 63 107.68 64.93 105.52 66 C103.36 67.07 99.42 68.94 95 68.94 L95 69.28 C99.46 69.28 103.47 67.34 105.63 66.28 C107.79 65.22 111.78 63.36 116.15 63.36 z" style="fill:#8546D2;" /><path d="M116.15 66.74 C120.53 66.74 124.5 68.65 126.64 69.68 C128.78 70.71 132.8 72.68 137.27 72.68 C141.74 72.68 145.74 70.74 147.9 69.68 C150.06 68.62 154.02 66.74 158.38 66.74 C162.74 66.74 166.73 68.65 168.87 69.68 C171.01 70.71 175.03 72.68 179.5 72.68 C183.97 72.68 187.97 70.74 190.13 69.68 C192.29 68.62 196.25 66.74 200.62 66.74 C204.99 66.74 208.97 68.65 211.1 69.68 C213.23 70.71 217.26 72.68 221.73 72.68 C226.2 72.68 230.21 70.74 232.36 69.68 C234.51 68.62 238.48 66.74 242.85 66.74 C247.22 66.74 251.2 68.65 253.33 69.68 C255.46 70.71 259.49 72.68 263.96 72.68 L263.96 72.34 C259.57 72.34 255.61 70.43 253.48 69.4 C251.35 68.37 247.29 66.4 242.85 66.4 C238.41 66.4 234.38 68.33 232.22 69.4 C230.06 70.47 226.11 72.34 221.73 72.34 C217.35 72.34 213.38 70.43 211.25 69.4 C209.12 68.37 205.06 66.4 200.62 66.4 C196.18 66.4 192.15 68.33 189.98 69.4 C187.81 70.47 183.88 72.34 179.5 72.34 C175.12 72.34 171.15 70.43 169.02 69.4 C166.89 68.37 162.83 66.4 158.38 66.4 C153.93 66.4 149.92 68.33 147.75 69.4 C145.58 70.47 141.65 72.34 137.27 72.34 C132.89 72.34 128.92 70.43 126.79 69.4 C124.66 68.37 120.6 66.4 116.15 66.4 C111.7 66.4 107.68 68.33 105.52 69.4 C103.36 70.47 99.42 72.32 95 72.32 L95 72.66 C99.46 72.66 103.47 70.72 105.63 69.66 C107.79 68.6 111.78 66.74 116.15 66.74 z" style="fill:#8546D2;" /><path d="M116.15 70.12 C120.53 70.12 124.5 72.03 126.64 73.06 C128.78 74.09 132.8 76.06 137.27 76.06 C141.74 76.06 145.74 74.13 147.9 73.06 C150.06 71.99 154.02 70.12 158.38 70.12 C162.74 70.12 166.73 72.03 168.87 73.06 C171.01 74.09 175.03 76.06 179.5 76.06 C183.97 76.06 187.97 74.13 190.13 73.06 C192.29 71.99 196.25 70.12 200.62 70.12 C204.99 70.12 209 72 211.1 73.06 C213.2 74.12 217.26 76.06 221.73 76.06 C226.2 76.06 230.2 74.13 232.36 73.06 C234.52 71.99 238.48 70.12 242.85 70.12 C247.22 70.12 251.2 72.03 253.33 73.06 C255.46 74.09 259.49 76.06 263.96 76.06 L263.96 75.7 C259.57 75.7 255.61 73.78 253.48 72.76 C251.35 71.74 247.29 69.76 242.85 69.76 C238.41 69.76 234.38 71.7 232.22 72.76 C230.06 73.82 226.11 75.7 221.73 75.7 C217.35 75.7 213.38 73.78 211.25 72.76 C209.12 71.74 205.06 69.76 200.62 69.76 C196.18 69.76 192.15 71.7 189.98 72.76 C187.81 73.82 183.88 75.7 179.5 75.7 C175.12 75.7 171.15 73.78 169.02 72.76 C166.89 71.74 162.83 69.76 158.38 69.76 C153.93 69.76 149.92 71.7 147.75 72.76 C145.58 73.82 141.65 75.7 137.27 75.7 C132.89 75.7 128.92 73.78 126.79 72.76 C124.66 71.74 120.6 69.76 116.15 69.76 C111.7 69.76 107.68 71.7 105.52 72.76 C103.36 73.82 99.42 75.7 95 75.7 L95 76 C99.46 76 103.47 74.07 105.63 73 C107.79 71.93 111.78 70.12 116.15 70.12 z" style="fill:#8546D2;" /><path d="M116.15 73.5 C120.52 73.5 124.5 75.41 126.64 76.44 C128.78 77.47 132.8 79.44 137.27 79.44 C141.74 79.44 145.74 77.51 147.9 76.44 C150.06 75.37 154 73.5 158.38 73.5 C162.76 73.5 166.73 75.41 168.87 76.44 C171.01 77.47 175.03 79.44 179.5 79.44 C183.97 79.44 187.97 77.51 190.13 76.44 C192.29 75.37 196.25 73.5 200.62 73.5 C204.99 73.5 208.97 75.41 211.1 76.44 C213.23 77.47 217.26 79.44 221.73 79.44 C226.2 79.44 230.21 77.51 232.36 76.44 C234.51 75.37 238.48 73.5 242.85 73.5 C247.22 73.5 251.2 75.41 253.33 76.44 C255.46 77.47 259.49 79.44 263.96 79.44 L263.96 79.1 C259.57 79.1 255.61 77.19 253.48 76.16 C251.35 75.13 247.29 73.16 242.85 73.16 C238.41 73.16 234.38 75.1 232.22 76.16 C230.06 77.22 226.11 79.1 221.73 79.1 C217.35 79.1 213.38 77.19 211.25 76.16 C209.12 75.13 205.06 73.16 200.62 73.16 C196.18 73.16 192.15 75.1 189.98 76.16 C187.81 77.22 183.88 79.1 179.5 79.1 C175.12 79.1 171.15 77.19 169.02 76.16 C166.89 75.13 162.83 73.16 158.38 73.16 C153.93 73.16 149.92 75.1 147.75 76.16 C145.58 77.22 141.65 79.1 137.27 79.1 C132.89 79.1 128.92 77.19 126.79 76.16 C124.66 75.13 120.6 73.16 116.15 73.16 C111.7 73.16 107.68 75.1 105.52 76.16 C103.36 77.22 99.42 79.07 95 79.07 L95 79.41 C99.46 79.41 103.47 77.48 105.63 76.41 C107.79 75.34 111.78 73.5 116.15 73.5 z" style="fill:#8546D2;" /><path d="M116.15 76.88 C120.52 76.88 124.5 78.79 126.64 79.82 C128.78 80.85 132.8 82.82 137.27 82.82 C141.74 82.82 145.74 80.89 147.9 79.82 C150.06 78.75 154.02 76.88 158.38 76.88 C162.74 76.88 166.73 78.79 168.87 79.82 C171.01 80.85 175.03 82.82 179.5 82.82 C183.97 82.82 187.97 80.89 190.13 79.82 C192.29 78.75 196.25 76.88 200.62 76.88 C204.99 76.88 208.97 78.79 211.1 79.82 C213.23 80.85 217.26 82.82 221.73 82.82 C226.2 82.82 230.2 80.89 232.36 79.82 C234.52 78.75 238.48 76.88 242.85 76.88 C247.22 76.88 251.2 78.79 253.33 79.82 C255.46 80.85 259.49 82.82 263.96 82.82 L263.96 82.48 C259.57 82.48 255.61 80.57 253.48 79.54 C251.35 78.51 247.29 76.54 242.85 76.54 C238.41 76.54 234.38 78.47 232.22 79.54 C230.06 80.61 226.11 82.48 221.73 82.48 C217.35 82.48 213.38 80.57 211.25 79.54 C209.12 78.51 205.06 76.54 200.62 76.54 C196.18 76.54 192.15 78.47 189.98 79.54 C187.81 80.61 183.88 82.48 179.5 82.48 C175.12 82.48 171.15 80.57 169.02 79.54 C166.89 78.51 162.83 76.54 158.38 76.54 C153.93 76.54 149.92 78.47 147.75 79.54 C145.58 80.61 141.65 82.48 137.27 82.48 C132.89 82.48 128.92 80.57 126.79 79.54 C124.66 78.51 120.6 76.54 116.15 76.54 C111.7 76.54 107.68 78.47 105.52 79.54 C103.36 80.61 99.42 82.45 95 82.45 L95 82.79 C99.46 82.79 103.47 80.86 105.63 79.79 C107.79 78.72 111.78 76.88 116.15 76.88 z" style="fill:#8546D2;" /><path d="M116.15 80.26 C120.53 80.26 124.5 82.17 126.64 83.2 C128.78 84.23 132.8 86.2 137.27 86.2 C141.74 86.2 145.74 84.27 147.9 83.2 C150.06 82.13 154.02 80.26 158.38 80.26 C162.74 80.26 166.73 82.17 168.87 83.2 C171.01 84.23 175.03 86.2 179.5 86.2 C183.97 86.2 187.97 84.27 190.13 83.2 C192.29 82.13 196.25 80.26 200.62 80.26 C204.99 80.26 209 82.17 211.1 83.2 C213.2 84.23 217.26 86.2 221.73 86.2 C226.2 86.2 230.21 84.27 232.36 83.2 C234.51 82.13 238.48 80.26 242.85 80.26 C247.22 80.26 251.2 82.17 253.33 83.2 C255.46 84.23 259.49 86.2 263.96 86.2 L263.96 85.86 C259.57 85.86 255.61 83.95 253.48 82.92 C251.35 81.89 247.29 79.92 242.85 79.92 C238.41 79.92 234.38 81.85 232.22 82.92 C230.06 83.99 226.11 85.86 221.73 85.86 C217.35 85.86 213.38 83.95 211.25 82.92 C209.12 81.89 205.06 79.92 200.62 79.92 C196.18 79.92 192.15 81.85 189.98 82.92 C187.81 83.99 183.88 85.86 179.5 85.86 C175.12 85.86 171.15 83.95 169.02 82.92 C166.89 81.89 162.83 79.92 158.38 79.92 C153.93 79.92 149.92 81.85 147.75 82.92 C145.58 83.99 141.65 85.86 137.27 85.86 C132.89 85.86 128.92 83.95 126.79 82.92 C124.66 81.89 120.6 79.92 116.15 79.92 C111.7 79.92 107.68 81.85 105.52 82.92 C103.36 83.99 99.42 85.83 95 85.83 L95 86.17 C99.46 86.17 103.47 84.24 105.63 83.17 C107.79 82.1 111.78 80.26 116.15 80.26 z" style="fill:#8546D2;" /><path d="M116.15 83.63 C120.53 83.63 124.5 85.55 126.64 86.57 C128.78 87.59 132.8 89.57 137.27 89.57 C141.74 89.57 145.74 87.63 147.9 86.57 C150.06 85.51 154.02 83.63 158.38 83.63 C162.74 83.63 166.73 85.55 168.87 86.57 C171.01 87.59 175.03 89.57 179.5 89.57 C183.97 89.57 187.97 87.63 190.13 86.57 C192.29 85.51 196.25 83.63 200.62 83.63 C204.99 83.63 208.97 85.55 211.1 86.57 C213.23 87.59 217.26 89.57 221.73 89.57 C226.2 89.57 230.21 87.63 232.36 86.57 C234.51 85.51 238.48 83.63 242.85 83.63 C247.22 83.63 251.2 85.55 253.33 86.57 C255.46 87.59 259.49 89.57 263.96 89.57 L263.96 89.23 C259.57 89.23 255.61 87.32 253.48 86.29 C251.35 85.26 247.29 83.29 242.85 83.29 C238.41 83.29 234.38 85.22 232.22 86.29 C230.06 87.36 226.11 89.23 221.73 89.23 C217.35 89.23 213.38 87.32 211.25 86.29 C209.12 85.26 205.06 83.29 200.62 83.29 C196.18 83.29 192.15 85.22 189.98 86.29 C187.81 87.36 183.88 89.23 179.5 89.23 C175.12 89.23 171.15 87.3 169 86.27 C166.85 85.24 162.81 83.27 158.36 83.27 C153.91 83.27 149.9 85.2 147.73 86.27 C145.56 87.34 141.63 89.21 137.25 89.21 C132.87 89.21 128.9 87.3 126.77 86.27 C124.64 85.24 120.58 83.27 116.13 83.27 C111.68 83.27 107.66 85.2 105.5 86.27 C103.34 87.34 99.42 89.21 95 89.21 L95 89.55 C99.46 89.55 103.47 87.61 105.63 86.55 C107.79 85.49 111.78 83.63 116.15 83.63 z" style="fill:#8546D2;" /><path d="M116.15 87 C120.53 87 124.5 88.92 126.64 89.94 C128.78 90.96 132.8 92.94 137.27 92.94 C141.74 92.94 145.74 91 147.9 89.94 C150.06 88.88 154 87 158.38 87 C162.76 87 166.73 88.92 168.87 89.94 C171.01 90.96 175.03 92.94 179.5 92.94 C183.97 92.94 188 91 190.13 90 C192.26 89 196.25 87 200.62 87 C204.99 87 209 88.93 211.1 90 C213.2 91.07 217.26 93 221.73 93 C226.2 93 230.21 91.06 232.36 90 C234.51 88.94 238.48 87 242.85 87 C247.22 87 251.2 88.92 253.33 89.94 C255.46 90.96 259.49 92.94 263.96 92.94 L263.96 92.6 C259.57 92.6 255.61 90.69 253.48 89.66 C251.35 88.63 247.29 86.66 242.85 86.66 C238.41 86.66 234.38 88.59 232.22 89.66 C230.06 90.73 226.11 92.6 221.73 92.6 C217.35 92.6 213.38 90.69 211.25 89.66 C209.12 88.63 205.06 86.66 200.62 86.66 C196.18 86.66 192.15 88.59 189.98 89.66 C187.81 90.73 183.88 92.6 179.5 92.6 C175.12 92.6 171.15 90.69 169.02 89.66 C166.89 88.63 162.83 86.66 158.38 86.66 C153.93 86.66 149.92 88.59 147.75 89.66 C145.58 90.73 141.65 92.6 137.27 92.6 C132.89 92.6 128.92 90.69 126.79 89.66 C124.66 88.63 120.6 86.66 116.15 86.66 C111.7 86.66 107.68 88.59 105.52 89.66 C103.36 90.73 99.42 92.59 95 92.59 L95 92.93 C99.46 92.93 103.47 90.99 105.63 89.93 C107.79 88.87 111.78 87 116.15 87 z" style="fill:#8546D2;" /><path d="M116.15 90.39 C120.53 90.39 124.5 92.3 126.64 93.33 C128.78 94.36 132.8 96.33 137.27 96.33 C141.74 96.33 145.74 94.4 147.9 93.33 C150.06 92.26 154.02 90.39 158.38 90.39 C162.74 90.39 166.73 92.3 168.87 93.33 C171.01 94.36 175.03 96.33 179.5 96.33 C183.97 96.33 187.97 94.4 190.13 93.33 C192.29 92.26 196.25 90.39 200.62 90.39 C204.99 90.39 209 92.3 211.1 93.33 C213.2 94.36 217.26 96.33 221.73 96.33 C226.2 96.33 230.2 94.4 232.36 93.33 C234.52 92.26 238.48 90.39 242.85 90.39 C247.22 90.39 251.2 92.3 253.33 93.33 C255.46 94.36 259.49 96.33 263.96 96.33 L263.96 96 C259.57 96 255.61 94.08 253.48 93.06 C251.35 92.04 247.29 90.06 242.85 90.06 C238.41 90.06 234.38 92 232.22 93.06 C230.06 94.12 226.11 96 221.73 96 C217.35 96 213.38 94.08 211.25 93.06 C209.12 92.04 205.06 90.06 200.62 90.06 C196.18 90.06 192.15 92 190 93 C187.85 94 183.88 96 179.5 96 C175.12 96 171.15 94.05 169 93 C166.85 91.95 162.81 90 158.36 90 C153.91 90 149.9 91.94 147.73 93 C145.56 94.06 141.65 96 137.27 96 C132.89 96 128.92 94.08 126.79 93.06 C124.66 92.04 120.6 90.06 116.15 90.06 C111.7 90.06 107.68 92 105.52 93.06 C103.36 94.12 99.42 96 95 96 L95 96.33 C99.46 96.33 103.47 94.4 105.63 93.33 C107.79 92.26 111.78 90.39 116.15 90.39 z" style="fill:#8546D2;" /><path d="M242.85 93.43 C238.4 93.43 234.38 95.37 232.21 96.43 C230.04 97.49 226.11 99.37 221.73 99.37 C217.35 99.37 213.38 97.45 211.25 96.43 C209.12 95.41 205.06 93.43 200.62 93.43 C196.18 93.43 192.15 95.37 189.98 96.43 C187.81 97.49 183.88 99.37 179.5 99.37 C175.12 99.37 171.15 97.45 169.02 96.43 C166.89 95.41 162.83 93.43 158.38 93.43 C153.93 93.43 149.92 95.37 147.75 96.43 C145.58 97.49 141.65 99.37 137.27 99.37 C132.89 99.37 128.92 97.45 126.79 96.43 C124.66 95.41 120.6 93.43 116.15 93.43 C111.7 93.43 107.68 95.37 105.52 96.43 C103.36 97.49 99.42 99.35 95 99.35 L95 99.68 C99.46 99.68 103.47 97.75 105.63 96.68 C107.79 95.61 111.74 93.74 116.11 93.74 C120.48 93.74 124.46 95.65 126.6 96.68 C128.74 97.71 132.76 99.68 137.23 99.68 C141.7 99.68 145.7 97.75 147.86 96.68 C150.02 95.61 153.98 93.74 158.34 93.74 C162.7 93.74 166.69 95.65 168.83 96.68 C170.97 97.71 174.99 99.68 179.46 99.68 C183.93 99.68 187.93 97.75 190.09 96.68 C192.25 95.61 196.21 93.74 200.58 93.74 C204.95 93.74 208.93 95.65 211.06 96.68 C213.19 97.71 217.22 99.68 221.69 99.68 C226.16 99.68 230.17 97.75 232.32 96.68 C234.47 95.61 238.44 93.74 242.81 93.74 C247.18 93.74 251.16 95.65 253.29 96.68 C255.42 97.71 259.45 99.68 263.92 99.68 L263.92 99.35 C259.53 99.35 255.57 97.43 253.44 96.41 C251.31 95.39 247.29 93.43 242.85 93.43 z" style="fill:#8546D2;" /><path d="M116.15 97.15 C120.53 97.15 124.5 99.06 126.64 100.09 C128.78 101.12 132.8 103.09 137.27 103.09 C141.74 103.09 145.74 101.16 147.9 100.09 C150.06 99.02 154.02 97.15 158.38 97.15 C162.74 97.15 166.73 99.06 168.87 100.09 C171.01 101.12 175.03 103.09 179.5 103.09 C183.97 103.09 187.97 101.16 190.13 100.09 C192.29 99.02 196.25 97.15 200.62 97.15 C204.99 97.15 208.97 99.06 211.1 100.09 C213.23 101.12 217.26 103.09 221.73 103.09 C226.2 103.09 230.2 101.16 232.36 100.09 C234.52 99.02 238.48 97.15 242.85 97.15 C247.22 97.15 251.2 99.06 253.33 100.09 C255.46 101.12 259.5 103.09 263.96 103.09 L263.96 102.75 C259.57 102.75 255.61 100.84 253.48 99.81 C251.35 98.78 247.29 96.81 242.85 96.81 C238.41 96.81 234.38 98.75 232.22 99.81 C230.06 100.87 226.11 102.75 221.73 102.75 C217.35 102.75 213.38 100.84 211.25 99.81 C209.12 98.78 205.06 96.81 200.62 96.81 C196.18 96.81 192.15 98.75 189.98 99.81 C187.81 100.87 183.88 102.75 179.5 102.75 C175.12 102.75 171.15 100.84 169.02 99.81 C166.89 98.78 162.83 96.81 158.38 96.81 C153.93 96.81 149.92 98.75 147.75 99.81 C145.58 100.87 141.65 102.75 137.27 102.75 C132.89 102.75 128.92 100.84 126.79 99.81 C124.66 98.78 120.6 96.81 116.15 96.81 C111.7 96.81 107.68 98.75 105.52 99.81 C103.36 100.87 99.42 102.75 95.04 102.75 L95.04 103.09 C99.5 103.09 103.51 101.16 105.67 100.09 C107.83 99.02 111.78 97.15 116.15 97.15 z" style="fill:#8546D2;" /><path d="M116.15 100.53 C120.53 100.53 124.5 102.44 126.64 103.47 C128.78 104.5 132.8 106.47 137.27 106.47 C141.74 106.47 145.74 104.54 147.9 103.47 C150.06 102.4 154.02 100.53 158.38 100.53 C162.74 100.53 166.73 102.44 168.87 103.47 C171.01 104.5 175.03 106.47 179.5 106.47 C183.97 106.47 187.97 104.54 190.13 103.47 C192.29 102.4 196.25 100.53 200.62 100.53 C204.99 100.53 208.97 102.44 211.1 103.47 C213.23 104.5 217.26 106.47 221.73 106.47 C226.2 106.47 230.2 104.54 232.36 103.47 C234.52 102.4 238.48 100.53 242.85 100.53 C247.22 100.53 251.2 102.44 253.33 103.47 C255.46 104.5 259.49 106.47 263.96 106.47 L263.96 106.13 C259.57 106.13 255.61 104.22 253.48 103.19 C251.35 102.16 247.29 100.19 242.85 100.19 C238.41 100.19 234.38 102.12 232.22 103.19 C230.06 104.26 226.11 106.13 221.73 106.13 C217.35 106.13 213.38 104.22 211.25 103.19 C209.12 102.16 205.06 100.19 200.62 100.19 C196.18 100.19 192.15 102.12 189.98 103.19 C187.81 104.26 183.88 106.13 179.5 106.13 C175.12 106.13 171.15 104.22 169.02 103.19 C166.89 102.16 162.83 100.19 158.38 100.19 C153.93 100.19 149.92 102.12 147.75 103.19 C145.58 104.26 141.65 106.13 137.27 106.13 C132.89 106.13 128.92 104.22 126.79 103.19 C124.66 102.16 120.6 100.19 116.15 100.19 C111.7 100.19 107.68 102.12 105.52 103.19 C103.36 104.26 99.42 106.1 95 106.1 L95 106.44 C99.46 106.44 103.47 104.51 105.63 103.44 C107.79 102.37 111.78 100.53 116.15 100.53 z" style="fill:#8546D2;" /><path d="M116.15 103.91 C120.53 103.91 124.5 105.82 126.64 106.85 C128.78 107.88 132.8 109.85 137.27 109.85 C141.74 109.85 145.74 107.91 147.9 106.85 C150.06 105.79 154.02 103.91 158.38 103.91 C162.74 103.91 166.73 105.82 168.87 106.85 C171.01 107.88 175.03 109.85 179.5 109.85 C183.97 109.85 187.97 107.91 190.13 106.85 C192.29 105.79 196.25 103.91 200.62 103.91 C204.99 103.91 208.97 105.82 211.1 106.85 C213.23 107.88 217.26 109.85 221.73 109.85 C226.2 109.85 230.2 107.91 232.36 106.85 C234.52 105.79 238.48 103.91 242.85 103.91 C247.22 103.91 251.2 105.82 253.33 106.85 C255.46 107.88 259.49 109.85 263.96 109.85 L263.96 109.51 C259.57 109.51 255.61 107.6 253.48 106.57 C251.35 105.54 247.29 103.57 242.85 103.57 C238.41 103.57 234.38 105.5 232.22 106.57 C230.06 107.64 226.11 109.51 221.73 109.51 C217.35 109.51 213.38 107.6 211.25 106.57 C209.12 105.54 205.06 103.57 200.62 103.57 C196.18 103.57 192.15 105.5 189.98 106.57 C187.81 107.64 183.88 109.51 179.5 109.51 C175.12 109.51 171.15 107.6 169.02 106.57 C166.89 105.54 162.83 103.57 158.38 103.57 C153.93 103.57 149.92 105.5 147.75 106.57 C145.58 107.64 141.65 109.51 137.27 109.51 C132.89 109.51 128.92 107.6 126.79 106.57 C124.66 105.54 120.6 103.57 116.15 103.57 C111.7 103.57 107.68 105.5 105.52 106.57 C103.36 107.64 99.42 109.51 95.04 109.51 L95.04 109.85 C99.5 109.85 103.51 107.91 105.67 106.85 C107.83 105.79 111.78 103.91 116.15 103.91 z" style="fill:#8546D2;" /><path d="M116.15 107.28 C120.53 107.28 124.5 109.2 126.64 110.22 C128.78 111.24 132.8 113.22 137.27 113.22 C141.74 113.22 145.74 111.28 147.9 110.22 C150.06 109.16 154.02 107.28 158.38 107.28 C162.74 107.28 166.73 109.2 168.87 110.22 C171.01 111.24 175.03 113.22 179.5 113.22 C183.97 113.22 187.97 111.28 190.13 110.22 C192.29 109.16 196.25 107.28 200.62 107.28 C204.99 107.28 208.97 109.2 211.1 110.22 C213.23 111.24 217.26 113.22 221.73 113.22 C226.2 113.22 230.2 111.28 232.36 110.22 C234.52 109.16 238.48 107.28 242.85 107.28 C247.22 107.28 251.2 109.2 253.33 110.22 C255.46 111.24 259.49 113.22 263.96 113.22 L263.96 112.88 C259.57 112.88 255.61 110.97 253.48 109.94 C251.35 108.91 247.29 106.94 242.85 106.94 C238.41 106.94 234.38 108.87 232.22 109.94 C230.06 111.01 226.11 112.88 221.73 112.88 C217.35 112.88 213.38 110.97 211.25 109.94 C209.12 108.91 205.06 106.94 200.62 106.94 C196.18 106.94 192.15 108.87 189.98 109.94 C187.81 111.01 183.88 112.88 179.5 112.88 C175.12 112.88 171.15 111 169 109.92 C166.85 108.84 162.81 106.92 158.36 106.92 C153.91 106.92 149.9 108.85 147.73 109.92 C145.56 110.99 141.63 112.86 137.25 112.86 C132.87 112.86 128.9 110.95 126.77 109.92 C124.64 108.89 120.58 106.92 116.13 106.92 C111.68 106.92 107.66 108.85 105.5 109.92 C103.34 110.99 99.4 112.86 95.02 112.86 L95.02 113.2 C99.48 113.2 103.49 111.26 105.65 110.2 C107.81 109.14 111.78 107.28 116.15 107.28 z" style="fill:#8546D2;" /><path d="M116.15 110.66 C120.53 110.66 124.5 112.58 126.64 113.6 C128.78 114.62 132.8 116.6 137.27 116.6 C141.74 116.6 145.74 114.66 147.9 113.6 C150.06 112.54 154.02 110.66 158.38 110.66 C162.74 110.66 166.73 112.58 168.87 113.6 C171.01 114.62 175.03 116.6 179.5 116.6 C183.97 116.6 187.97 114.66 190.13 113.6 C192.29 112.54 196.25 110.66 200.62 110.66 C204.99 110.66 208.97 112.58 211.1 113.6 C213.23 114.62 217.26 116.6 221.73 116.6 C226.2 116.6 230.2 114.66 232.36 113.6 C234.52 112.54 238.48 110.66 242.85 110.66 C247.22 110.66 251.2 112.58 253.33 113.6 C255.46 114.62 259.49 116.6 263.96 116.6 L263.96 116.26 C259.57 116.26 255.61 114.35 253.48 113.32 C251.35 112.29 247.29 110.32 242.85 110.32 C238.41 110.32 234.38 112.26 232.22 113.32 C230.06 114.38 226.11 116.26 221.73 116.26 C217.35 116.26 213.38 114.35 211.25 113.32 C209.12 112.29 205.06 110.32 200.62 110.32 C196.18 110.32 192.15 112.26 189.98 113.32 C187.81 114.38 183.88 116.26 179.5 116.26 C175.12 116.26 171.15 114.35 169.02 113.32 C166.89 112.29 162.83 110.32 158.38 110.32 C153.93 110.32 149.92 112.26 147.75 113.32 C145.58 114.38 141.65 116.26 137.27 116.26 C132.89 116.26 128.92 114.35 126.79 113.32 C124.66 112.29 120.6 110.32 116.15 110.32 C111.7 110.32 107.68 112.26 105.52 113.32 C103.36 114.38 99.42 116.26 95.04 116.26 L95.04 116.6 C99.5 116.6 103.51 114.66 105.67 113.6 C107.83 112.54 111.78 110.66 116.15 110.66 z" style="fill:#8546D2;" /><path d="M116.15 114 C120.53 114 124.5 115.91 126.64 116.94 C128.78 117.97 132.8 119.94 137.27 119.94 C141.74 119.94 145.74 118.01 147.9 116.94 C150.06 115.87 154 114 158.38 114 C162.76 114 166.73 115.91 168.87 116.94 C171.01 117.97 175.03 119.94 179.5 119.94 C183.97 119.94 187.97 118.01 190.13 116.94 C192.29 115.87 196.25 114 200.62 114 C204.99 114 209 116 211.1 117 C213.2 118 217.26 120 221.73 120 C226.2 120 230.2 118.07 232.36 117 C234.52 115.93 238.48 114.06 242.85 114.06 C247.22 114.06 251.2 116 253.33 117 C255.46 118 259.49 120 263.96 120 L263.96 119.67 C259.57 119.67 255.61 117.75 253.48 116.73 C251.35 115.71 247.29 113.73 242.85 113.73 C238.41 113.73 234.38 115.67 232.22 116.73 C230.06 117.79 226.11 119.67 221.73 119.67 C217.35 119.67 213.38 117.75 211.25 116.73 C209.12 115.71 205.06 113.73 200.62 113.73 C196.18 113.73 192.15 115.67 189.98 116.73 C187.81 117.79 183.88 119.67 179.5 119.67 C175.12 119.67 171.15 117.75 169.02 116.73 C166.89 115.71 162.83 113.73 158.38 113.73 C153.93 113.73 149.92 115.67 147.75 116.73 C145.58 117.79 141.65 119.67 137.27 119.67 C132.89 119.67 128.92 117.75 126.79 116.73 C124.66 115.71 120.6 113.73 116.15 113.73 C111.7 113.73 107.68 115.67 105.52 116.73 C103.36 117.79 99.42 119.67 95.04 119.67 L95.04 120 C99.5 120 103.51 118.07 105.67 117 C107.83 115.93 111.78 114 116.15 114 z" style="fill:#8546D2;" /><path d="M116.15 117.42 C120.53 117.42 124.5 119.33 126.64 120.36 C128.78 121.39 132.8 123.36 137.27 123.36 C141.74 123.36 145.74 121.43 147.9 120.36 C150.06 119.29 154.02 117.42 158.38 117.42 C162.74 117.42 166.73 119.33 168.87 120.36 C171.01 121.39 175.03 123.36 179.5 123.36 C183.97 123.36 187.97 121.43 190.13 120.36 C192.29 119.29 196.25 117.42 200.62 117.42 C204.99 117.42 208.97 119.33 211.1 120.36 C213.23 121.39 217.26 123.36 221.73 123.36 C226.2 123.36 230.2 121.43 232.36 120.36 C234.52 119.29 238.48 117.42 242.85 117.42 C247.22 117.42 251.2 119.33 253.33 120.36 C255.46 121.39 259.49 123.36 263.96 123.36 L263.96 123 C259.57 123 255.61 121.09 253.48 120.06 C251.35 119.03 247.29 117.06 242.85 117.06 C238.41 117.06 234.38 119 232.22 120.06 C230.06 121.12 226.11 123 221.73 123 C217.35 123 213.38 121.09 211.25 120.06 C209.12 119.03 205.06 117.06 200.62 117.06 C196.18 117.06 192.15 119 189.98 120.06 C187.81 121.12 183.88 123 179.5 123 C175.12 123 171.15 121.09 169.02 120.06 C166.89 119.03 162.83 117.06 158.38 117.06 C153.93 117.06 149.92 119 147.75 120.06 C145.58 121.12 141.65 123 137.27 123 C132.89 123 128.92 121.09 126.79 120.06 C124.66 119.03 120.6 117.06 116.15 117.06 C111.7 117.06 107.68 119 105.52 120.06 C103.36 121.12 99.42 123 95 123 L95 123.34 C99.46 123.34 103.47 121.41 105.63 120.34 C107.79 119.27 111.78 117.42 116.15 117.42 z" style="fill:#8546D2;" /><path d="M116.15 120.8 C120.52 120.8 124.5 122.71 126.64 123.74 C128.78 124.77 132.8 126.74 137.27 126.74 C141.74 126.74 145.74 124.81 147.9 123.74 C150.06 122.67 154.02 120.8 158.38 120.8 C162.74 120.8 166.73 122.71 168.87 123.74 C171.01 124.77 175.03 126.74 179.5 126.74 C183.97 126.74 187.97 124.81 190.13 123.74 C192.29 122.67 196.25 120.8 200.62 120.8 C204.99 120.8 208.97 122.71 211.1 123.74 C213.23 124.77 217.26 126.74 221.73 126.74 C226.2 126.74 230.21 124.81 232.36 123.74 C234.51 122.67 238.48 120.8 242.85 120.8 C247.22 120.8 251.2 122.71 253.33 123.74 C255.46 124.77 259.49 126.74 263.96 126.74 L263.96 126.4 C259.57 126.4 255.61 124.49 253.48 123.46 C251.35 122.43 247.29 120.46 242.85 120.46 C238.41 120.46 234.38 122.39 232.22 123.46 C230.06 124.53 226.11 126.4 221.73 126.4 C217.35 126.4 213.38 124.49 211.25 123.46 C209.12 122.43 205.06 120.46 200.62 120.46 C196.18 120.46 192.15 122.39 189.98 123.46 C187.81 124.53 183.88 126.4 179.5 126.4 C175.12 126.4 171.15 124.49 169.02 123.46 C166.89 122.43 162.83 120.46 158.38 120.46 C153.93 120.46 149.92 122.39 147.75 123.46 C145.58 124.53 141.65 126.4 137.27 126.4 C132.89 126.4 128.92 124.49 126.79 123.46 C124.66 122.43 120.6 120.46 116.15 120.46 C111.7 120.46 107.68 122.39 105.52 123.46 C103.36 124.53 99.42 126.4 95.04 126.4 L95.04 126.74 C99.5 126.74 103.51 124.81 105.67 123.74 C107.83 122.67 111.78 120.8 116.15 120.8 z" style="fill:#8546D2;" /><path d="M116.15 124.18 C120.53 124.18 124.5 126.09 126.64 127.12 C128.78 128.15 132.8 130.12 137.27 130.12 C141.74 130.12 145.74 128.18 147.9 127.12 C150.06 126.06 154.02 124.18 158.38 124.18 C162.74 124.18 166.73 126.09 168.87 127.12 C171.01 128.15 175.03 130.12 179.5 130.12 C183.97 130.12 187.97 128.18 190.13 127.12 C192.29 126.06 196.25 124.18 200.62 124.18 C204.99 124.18 208.97 126.09 211.1 127.12 C213.23 128.15 217.26 130.12 221.73 130.12 C226.2 130.12 230.21 128.18 232.36 127.12 C234.51 126.06 238.48 124.18 242.85 124.18 C247.22 124.18 251.2 126.09 253.33 127.12 C255.46 128.15 259.49 130.12 263.96 130.12 L263.96 129.78 C259.57 129.78 255.61 127.87 253.48 126.84 C251.35 125.81 247.29 123.84 242.85 123.84 C238.41 123.84 234.38 125.77 232.22 126.84 C230.06 127.91 226.11 129.78 221.73 129.78 C217.35 129.78 213.38 127.87 211.25 126.84 C209.12 125.81 205.06 123.84 200.62 123.84 C196.18 123.84 192.15 125.77 189.98 126.84 C187.81 127.91 183.88 129.78 179.5 129.78 C175.12 129.78 171.15 127.87 169.02 126.84 C166.89 125.81 162.83 123.84 158.38 123.84 C153.93 123.84 149.92 125.77 147.75 126.84 C145.58 127.91 141.65 129.78 137.27 129.78 C132.89 129.78 128.92 127.87 126.79 126.84 C124.66 125.81 120.6 123.84 116.15 123.84 C111.7 123.84 107.68 125.77 105.52 126.84 C103.36 127.91 99.42 129.78 95.04 129.78 L95.04 130.12 C99.5 130.12 103.51 128.18 105.67 127.12 C107.83 126.06 111.78 124.18 116.15 124.18 z" style="fill:#8546D2;" /><path d="M116.15 127.56 C120.53 127.56 124.5 129.47 126.64 130.49 C128.78 131.51 132.8 133.49 137.27 133.49 C141.74 133.49 145.74 131.55 147.9 130.49 C150.06 129.43 154.02 127.56 158.38 127.56 C162.74 127.56 166.73 129.47 168.87 130.49 C171.01 131.51 175.03 133.49 179.5 133.49 C183.97 133.49 187.97 131.55 190.13 130.49 C192.29 129.43 196.25 127.56 200.62 127.56 C204.99 127.56 208.97 129.47 211.1 130.49 C213.23 131.51 217.26 133.49 221.73 133.49 C226.2 133.49 230.21 131.55 232.36 130.49 C234.51 129.43 238.48 127.56 242.85 127.56 C247.22 127.56 251.2 129.47 253.33 130.49 C255.46 131.51 259.49 133.49 263.96 133.49 L263.96 133.15 C259.57 133.15 255.61 131.24 253.48 130.21 C251.35 129.18 247.29 127.21 242.85 127.21 C238.41 127.21 234.38 129.14 232.22 130.21 C230.06 131.28 226.11 133.15 221.73 133.15 C217.35 133.15 213.38 131.24 211.25 130.21 C209.12 129.18 205.06 127.21 200.62 127.21 C196.18 127.21 192.15 129.14 189.98 130.21 C187.81 131.28 183.88 133.15 179.5 133.15 C175.12 133.15 171.15 131.24 169.02 130.21 C166.89 129.18 162.83 127.21 158.38 127.21 C153.93 127.21 149.92 129.14 147.75 130.21 C145.58 131.28 141.65 133.15 137.27 133.15 C132.89 133.15 128.92 131.24 126.79 130.21 C124.66 129.18 120.6 127.21 116.15 127.21 C111.7 127.21 107.68 129.14 105.52 130.21 C103.36 131.28 99.42 133.15 95.04 133.15 L95.04 133.49 C99.5 133.49 103.51 131.55 105.67 130.49 C107.83 129.43 111.78 127.56 116.15 127.56 z" style="fill:#8546D2;" /><path d="M116.15 130.93 C120.53 130.93 124.5 132.85 126.64 133.87 C128.78 134.89 132.8 136.87 137.27 136.87 C141.74 136.87 145.74 134.93 147.9 133.87 C150.06 132.81 154.02 130.93 158.38 130.93 C162.74 130.93 166.73 132.85 168.87 133.87 C171.01 134.89 175.03 136.87 179.5 136.87 C183.97 136.87 187.97 134.93 190.13 133.87 C192.29 132.81 196.25 130.93 200.62 130.93 C204.99 130.93 208.97 132.85 211.1 133.87 C213.23 134.89 217.26 136.87 221.73 136.87 C226.2 136.87 230.21 134.93 232.36 133.87 C234.51 132.81 238.48 130.93 242.85 130.93 C247.22 130.93 251.2 132.85 253.33 133.87 C255.46 134.89 259.49 136.87 263.96 136.87 L263.96 136.53 C259.57 136.53 255.61 134.62 253.48 133.59 C251.35 132.56 247.29 130.59 242.85 130.59 C238.41 130.59 234.38 132.52 232.22 133.59 C230.06 134.66 226.11 136.53 221.73 136.53 C217.35 136.53 213.38 134.62 211.25 133.59 C209.12 132.56 205.06 130.59 200.62 130.59 C196.18 130.59 192.15 132.52 189.98 133.59 C187.81 134.66 183.88 136.53 179.5 136.53 C175.12 136.53 171.15 134.62 169.02 133.59 C166.89 132.56 162.83 130.59 158.38 130.59 C153.93 130.59 149.92 132.52 147.75 133.59 C145.58 134.66 141.65 136.53 137.27 136.53 C132.89 136.53 128.92 134.62 126.79 133.59 C124.66 132.56 120.6 130.59 116.15 130.59 C111.7 130.59 107.68 132.52 105.52 133.59 C103.36 134.66 99.42 136.53 95.04 136.53 L95.04 136.87 C99.5 136.87 103.51 134.93 105.67 133.87 C107.83 132.81 111.78 130.93 116.15 130.93 z" style="fill:#8546D2;" /><path d="M116.15 134.31 C120.53 134.31 124.5 136.22 126.64 137.25 C128.78 138.28 132.8 140.25 137.27 140.25 C141.74 140.25 145.74 138.32 147.9 137.25 C150.06 136.18 154.02 134.31 158.38 134.31 C162.74 134.31 166.73 136.22 168.87 137.25 C171.01 138.28 175.03 140.25 179.5 140.25 C183.97 140.25 187.97 138.32 190.13 137.25 C192.29 136.18 196.25 134.31 200.62 134.31 C204.99 134.31 208.97 136.22 211.1 137.25 C213.23 138.28 217.26 140.25 221.73 140.25 C226.2 140.25 230.21 138.32 232.36 137.25 C234.51 136.18 238.48 134.31 242.85 134.31 C247.22 134.31 251.2 136.22 253.33 137.25 C255.46 138.28 259.49 140.25 263.96 140.25 L263.96 139.92 C259.57 139.92 255.61 138 253.48 136.98 C251.35 135.96 247.29 133.98 242.85 133.98 C238.41 133.98 234.38 135.92 232.22 136.98 C230.06 138.04 226.11 139.92 221.73 139.92 C217.35 139.92 213.38 138 211.25 137 C209.12 136 205.06 134 200.62 134 C196.18 134 192.15 135.94 189.98 137 C187.81 138.06 183.88 139.94 179.5 139.94 C175.12 139.94 171.15 138 169 137 C166.85 136 162.81 134 158.36 134 C153.91 134 149.9 135.94 147.73 137 C145.56 138.06 141.63 139.94 137.25 139.94 C132.87 139.94 128.92 138 126.79 137 C124.66 136 120.6 134 116.15 134 C111.7 134 107.68 135.94 105.52 137 C103.36 138.06 99.42 139.94 95.04 139.94 L95.04 140.27 C99.5 140.27 103.51 138.34 105.67 137.27 C107.83 136.2 111.78 134.31 116.15 134.31 z" style="fill:#8546D2;" /><path d="M116.15 137.69 C120.53 137.69 124.5 139.6 126.64 140.63 C128.78 141.66 132.8 143.63 137.27 143.63 C141.74 143.63 145.74 141.7 147.9 140.63 C150.06 139.56 154.02 137.69 158.38 137.69 C162.74 137.69 166.73 139.6 168.87 140.63 C171.01 141.66 175.03 143.63 179.5 143.63 C183.97 143.63 187.97 141.7 190.13 140.63 C192.29 139.56 196.25 137.69 200.62 137.69 C204.99 137.69 208.97 139.6 211.1 140.63 C213.23 141.66 217.26 143.63 221.73 143.63 C226.2 143.63 230.21 141.7 232.36 140.63 C234.51 139.56 238.48 137.69 242.85 137.69 C247.22 137.69 251.2 139.6 253.33 140.63 C255.46 141.66 259.49 143.63 263.96 143.63 L263.96 143.29 C259.57 143.29 255.61 141.38 253.48 140.36 C251.35 139.34 247.29 137.36 242.85 137.36 C238.41 137.36 234.38 139.3 232.22 140.36 C230.06 141.42 226.11 143.29 221.73 143.29 C217.35 143.29 213.38 141.38 211.25 140.36 C209.12 139.34 205.06 137.36 200.62 137.36 C196.18 137.36 192.15 139.3 189.98 140.36 C187.81 141.42 183.88 143.29 179.5 143.29 C175.12 143.29 171.15 141.38 169.02 140.36 C166.89 139.34 162.83 137.36 158.38 137.36 C153.93 137.36 149.92 139.3 147.75 140.36 C145.58 141.42 141.65 143.29 137.27 143.29 C132.89 143.29 128.92 141.38 126.79 140.36 C124.66 139.34 120.6 137.36 116.15 137.36 C111.7 137.36 107.68 139.3 105.52 140.36 C103.36 141.42 99.42 143.29 95.04 143.29 L95.04 143.63 C99.5 143.63 103.51 141.7 105.67 140.63 C107.83 139.56 111.78 137.69 116.15 137.69 z" style="fill:#8546D2;" /><path d="M116.15 141.07 C120.53 141.07 124.5 142.98 126.64 144.01 C128.78 145.04 132.8 147.01 137.27 147.01 C141.74 147.01 145.74 145.08 147.9 144.01 C150.06 142.94 154.02 141.07 158.38 141.07 C162.74 141.07 166.73 142.98 168.87 144.01 C171.01 145.04 175.03 147.01 179.5 147.01 C183.97 147.01 187.97 145.08 190.13 144.01 C192.29 142.94 196.25 141.07 200.62 141.07 C204.99 141.07 209 143 211.1 144 C213.2 145 217.26 147 221.73 147 C226.2 147 230.21 145.07 232.36 144 C234.51 142.93 238.48 141.06 242.85 141.06 C247.22 141.06 251.2 143 253.33 144 C255.46 145 259.49 147 263.96 147 L263.96 146.66 C259.57 146.66 255.61 144.75 253.48 143.72 C251.35 142.69 247.29 140.72 242.85 140.72 C238.41 140.72 234.38 142.65 232.22 143.72 C230.06 144.79 226.11 146.66 221.73 146.66 C217.35 146.66 213.38 144.75 211.25 143.72 C209.12 142.69 205.06 140.72 200.62 140.72 C196.18 140.72 192.15 142.65 189.98 143.72 C187.81 144.79 183.88 146.66 179.5 146.66 C175.12 146.66 171.15 144.75 169.02 143.72 C166.89 142.69 162.83 140.72 158.38 140.72 C153.93 140.72 149.92 142.65 147.75 143.72 C145.58 144.79 141.65 146.66 137.27 146.66 C132.89 146.66 128.92 144.75 126.79 143.72 C124.66 142.69 120.6 140.72 116.15 140.72 C111.7 140.72 107.68 142.65 105.52 143.72 C103.36 144.79 99.42 146.66 95.04 146.66 L95.04 147 C99.5 147 103.51 145.07 105.67 144 C107.83 142.93 111.78 141.07 116.15 141.07 z" style="fill:#8546D2;" /><path d="M116.15 144.45 C120.53 144.45 124.5 146.36 126.64 147.39 C128.78 148.42 132.8 150.39 137.27 150.39 C141.74 150.39 145.74 148.46 147.9 147.39 C150.06 146.32 154.02 144.45 158.38 144.45 C162.74 144.45 166.73 146.36 168.87 147.39 C171.01 148.42 175.03 150.39 179.5 150.39 C183.97 150.39 187.97 148.46 190.13 147.39 C192.29 146.32 196.25 144.45 200.62 144.45 C204.99 144.45 208.97 146.36 211.1 147.39 C213.23 148.42 217.26 150.39 221.73 150.39 C226.2 150.39 230.21 148.46 232.36 147.39 C234.51 146.32 238.48 144.45 242.85 144.45 C247.22 144.45 251.2 146.36 253.33 147.39 C255.46 148.42 259.49 150.39 263.96 150.39 L263.96 150 C259.57 150 255.61 148.09 253.48 147.06 C251.35 146.03 247.29 144.06 242.85 144.06 C238.41 144.06 234.38 145.99 232.22 147.06 C230.06 148.13 226.11 150 221.73 150 C217.35 150 213.38 148.09 211.25 147.06 C209.12 146.03 205.06 144.06 200.62 144.06 C196.18 144.06 192.15 145.99 189.98 147.06 C187.81 148.13 183.88 150 179.5 150 C175.12 150 171.15 148.09 169.02 147.06 C166.89 146.03 162.83 144.06 158.38 144.06 C153.93 144.06 149.92 145.99 147.75 147.06 C145.58 148.13 141.65 150 137.27 150 C132.89 150 128.92 148.09 126.79 147.06 C124.66 146.03 120.6 144.06 116.15 144.06 C111.7 144.06 107.68 145.99 105.52 147.06 C103.36 148.13 99.42 150 95 150 L95 150.34 C99.46 150.34 103.47 148.41 105.63 147.34 C107.79 146.27 111.78 144.45 116.15 144.45 z" style="fill:#8546D2;" /><path d="M116.15 147.83 C120.53 147.83 124.5 149.74 126.64 150.76 C128.78 151.78 132.8 153.76 137.27 153.76 C141.74 153.76 145.74 151.82 147.9 150.76 C150.06 149.7 154.02 147.83 158.38 147.83 C162.74 147.83 166.73 149.74 168.87 150.76 C171.01 151.78 175.03 153.76 179.5 153.76 C183.97 153.76 187.97 151.82 190.13 150.76 C192.29 149.7 196.25 147.83 200.62 147.83 C204.99 147.83 208.97 149.74 211.1 150.76 C213.23 151.78 217.26 153.76 221.73 153.76 C226.2 153.76 230.21 151.82 232.36 150.76 C234.51 149.7 238.48 147.83 242.85 147.83 C247.22 147.83 251.2 149.74 253.33 150.76 C255.46 151.78 259.49 153.76 263.96 153.76 L263.96 153.42 C259.57 153.42 255.61 151.51 253.48 150.48 C251.35 149.45 247.29 147.48 242.85 147.48 C238.41 147.48 234.38 149.41 232.22 150.48 C230.06 151.55 226.11 153.42 221.73 153.42 C217.35 153.42 213.38 151.51 211.25 150.48 C209.12 149.45 205.06 147.48 200.62 147.48 C196.18 147.48 192.15 149.41 189.98 150.48 C187.81 151.55 183.88 153.42 179.5 153.42 C175.12 153.42 171.15 151.51 169.02 150.48 C166.89 149.45 162.83 147.48 158.38 147.48 C153.93 147.48 149.92 149.41 147.75 150.48 C145.58 151.55 141.65 153.42 137.27 153.42 C132.89 153.42 128.92 151.51 126.79 150.48 C124.66 149.45 120.6 147.48 116.15 147.48 C111.7 147.48 107.68 149.41 105.52 150.48 C103.36 151.55 99.42 153.4 95 153.4 L95 153.74 C99.46 153.74 103.47 151.8 105.63 150.74 C107.79 149.68 111.78 147.83 116.15 147.83 z" style="fill:#8546D2;" /><path d="M116.15 151.2 C120.53 151.2 124.5 153.12 126.64 154.14 C128.78 155.16 132.8 157.14 137.27 157.14 C141.74 157.14 145.74 155.2 147.9 154.14 C150.06 153.08 154.02 151.2 158.38 151.2 C162.74 151.2 166.73 153.12 168.87 154.14 C171.01 155.16 175.03 157.14 179.5 157.14 C183.97 157.14 187.97 155.2 190.13 154.14 C192.29 153.08 196.25 151.2 200.62 151.2 C204.99 151.2 208.97 153.12 211.1 154.14 C213.23 155.16 217.26 157.14 221.73 157.14 C226.2 157.14 230.21 155.2 232.36 154.14 C234.51 153.08 238.48 151.2 242.85 151.2 C247.22 151.2 251.2 153.12 253.33 154.14 C255.46 155.16 259.49 157.14 263.96 157.14 L263.96 156.8 C259.57 156.8 255.61 154.89 253.48 153.86 C251.35 152.83 247.29 150.86 242.85 150.86 C238.41 150.86 234.38 152.79 232.22 153.86 C230.06 154.93 226.11 156.8 221.73 156.8 C217.35 156.8 213.38 154.89 211.25 153.86 C209.12 152.83 205.06 150.86 200.62 150.86 C196.18 150.86 192.15 152.79 189.98 153.86 C187.81 154.93 183.88 156.8 179.5 156.8 C175.12 156.8 171.15 154.89 169.02 153.86 C166.89 152.83 162.83 150.86 158.38 150.86 C153.93 150.86 149.92 152.79 147.75 153.86 C145.58 154.93 141.65 156.8 137.27 156.8 C132.89 156.8 128.92 154.89 126.79 153.86 C124.66 152.83 120.6 150.86 116.15 150.86 C111.7 150.86 107.68 152.79 105.52 153.86 C103.36 154.93 99.42 156.8 95.04 156.8 L95.04 157.14 C99.5 157.14 103.51 155.2 105.67 154.14 C107.83 153.08 111.78 151.2 116.15 151.2 z" style="fill:#8546D2;" /><path d="M116.15 154.58 C120.53 154.58 124.5 156.49 126.64 157.52 C128.78 158.55 132.8 160.52 137.27 160.52 C141.74 160.52 145.74 158.59 147.9 157.52 C150.06 156.45 154.02 154.58 158.38 154.58 C162.74 154.58 166.73 156.49 168.87 157.52 C171.01 158.55 175.03 160.52 179.5 160.52 C183.97 160.52 187.97 158.59 190.13 157.52 C192.29 156.45 196.25 154.58 200.62 154.58 C204.99 154.58 208.97 156.49 211.1 157.52 C213.23 158.55 217.26 160.52 221.73 160.52 C226.2 160.52 230.21 158.59 232.36 157.52 C234.51 156.45 238.48 154.58 242.85 154.58 C247.22 154.58 251.2 156.49 253.33 157.52 C255.46 158.55 259.49 160.52 263.96 160.52 L263.96 160.19 C259.57 160.19 255.61 158.28 253.48 157.25 C251.35 156.22 247.29 154.25 242.85 154.25 C238.41 154.25 234.38 156.18 232.22 157.25 C230.06 158.32 226.11 160.19 221.73 160.19 C217.35 160.19 213.38 158.28 211.25 157.25 C209.12 156.22 205.06 154.25 200.62 154.25 C196.18 154.25 192.15 156.18 189.98 157.25 C187.81 158.32 183.88 160.19 179.5 160.19 C175.12 160.19 171.15 158.28 169.02 157.25 C166.89 156.22 162.83 154.25 158.38 154.25 C153.93 154.25 149.92 156.18 147.75 157.25 C145.58 158.32 141.65 160.19 137.27 160.19 C132.89 160.19 128.92 158.28 126.79 157.25 C124.66 156.22 120.6 154.25 116.15 154.25 C111.7 154.25 107.68 156.18 105.52 157.25 C103.36 158.32 99.42 160.19 95.04 160.19 L95.04 160.52 C99.5 160.52 103.51 158.59 105.67 157.52 C107.83 156.45 111.78 154.58 116.15 154.58 z" style="fill:#8546D2;" /><path d="M116.15 158 C120.53 158 124.5 159.91 126.64 160.94 C128.78 161.97 132.8 163.94 137.27 163.94 C141.74 163.94 145.74 162.01 147.9 160.94 C150.06 159.87 154 158 158.38 158 C162.76 158 166.73 159.91 168.87 160.94 C171.01 161.97 175.03 163.94 179.5 163.94 C183.97 163.94 187.97 162.01 190.13 160.94 C192.29 159.87 196.25 158 200.62 158 C204.99 158 208.97 159.91 211.1 160.94 C213.23 161.97 217.26 163.94 221.73 163.94 C226.2 163.94 230.21 162.01 232.36 160.94 C234.51 159.87 238.48 158 242.85 158 C247.22 158 251.2 159.91 253.33 160.94 C255.46 161.97 259.49 163.94 263.96 163.94 L263.96 163.61 C259.57 163.61 255.61 161.69 253.48 160.67 C251.35 159.65 247.29 157.67 242.85 157.67 C238.41 157.67 234.38 159.61 232.22 160.67 C230.06 161.73 226.11 163.61 221.73 163.61 C217.35 163.61 213.38 161.69 211.25 160.67 C209.12 159.65 205.06 157.67 200.62 157.67 C196.18 157.67 192.15 159.61 189.98 160.67 C187.81 161.73 183.88 163.61 179.5 163.61 C175.12 163.61 171.15 161.69 169.02 160.67 C166.89 159.65 162.83 157.67 158.38 157.67 C153.93 157.67 149.92 159.61 147.75 160.67 C145.58 161.73 141.65 163.61 137.27 163.61 C132.89 163.61 128.92 161.69 126.79 160.67 C124.66 159.65 120.6 157.67 116.15 157.67 C111.7 157.67 107.68 159.61 105.52 160.67 C103.36 161.73 99.42 163.61 95.04 163.61 L95.04 163.94 C99.5 163.94 103.51 162.01 105.67 160.94 C107.83 159.87 111.78 158 116.15 158 z" style="fill:#8546D2;" /><path d="M116.15 161.34 C120.53 161.34 124.5 163.25 126.64 164.28 C128.78 165.31 132.8 167.28 137.27 167.28 C141.74 167.28 145.74 165.35 147.9 164.28 C150.06 163.21 154.02 161.34 158.38 161.34 C162.74 161.34 166.73 163.25 168.87 164.28 C171.01 165.31 175.03 167.28 179.5 167.28 C183.97 167.28 187.97 165.35 190.13 164.28 C192.29 163.21 196.25 161.34 200.62 161.34 C204.99 161.34 208.97 163.25 211.1 164.28 C213.23 165.31 217.26 167.28 221.73 167.28 C226.2 167.28 230.21 165.35 232.36 164.28 C234.51 163.21 238.48 161.34 242.85 161.34 C247.22 161.34 251.2 163.25 253.33 164.28 C255.46 165.31 259.49 167.28 263.96 167.28 L263.96 166.94 C259.57 166.94 255.61 165.03 253.48 164 C251.35 162.97 247.29 161 242.85 161 C238.41 161 234.38 162.94 232.22 164 C230.06 165.06 226.11 166.94 221.73 166.94 C217.35 166.94 213.38 165 211.25 164 C209.12 163 205.06 161 200.62 161 C196.18 161 192.15 162.94 189.98 164 C187.81 165.06 183.88 166.94 179.5 166.94 C175.12 166.94 171.15 165 169 164 C166.85 163 162.81 161 158.36 161 C153.91 161 149.9 162.94 147.73 164 C145.56 165.06 141.63 166.94 137.25 166.94 C132.87 166.94 128.92 165 126.79 164 C124.66 163 120.6 161 116.15 161 C111.7 161 107.68 162.94 105.52 164 C103.36 165.06 99.42 166.94 95.04 166.94 L95.04 167.28 C99.5 167.28 103.51 165.35 105.67 164.28 C107.83 163.21 111.78 161.34 116.15 161.34 z" style="fill:#8546D2;" /><path d="M116.15 164.72 C120.53 164.72 124.5 166.63 126.64 167.66 C128.78 168.69 132.8 170.66 137.27 170.66 C141.74 170.66 145.74 168.73 147.9 167.66 C150.06 166.59 154.02 164.72 158.38 164.72 C162.74 164.72 166.73 166.63 168.87 167.66 C171.01 168.69 175.03 170.66 179.5 170.66 C183.97 170.66 187.97 168.73 190.13 167.66 C192.29 166.59 196.25 164.72 200.62 164.72 C204.99 164.72 208.97 166.63 211.1 167.66 C213.23 168.69 217.26 170.66 221.73 170.66 C226.2 170.66 230.21 168.73 232.36 167.66 C234.51 166.59 238.48 164.72 242.85 164.72 C247.22 164.72 251.2 166.63 253.33 167.66 C255.46 168.69 259.49 170.66 263.96 170.66 L263.96 170.32 C259.57 170.32 255.61 168.41 253.48 167.38 C251.35 166.35 247.29 164.38 242.85 164.38 C238.41 164.38 234.38 166.31 232.22 167.38 C230.06 168.45 226.11 170.32 221.73 170.32 C217.35 170.32 213.38 168.41 211.25 167.38 C209.12 166.35 205.06 164.38 200.62 164.38 C196.18 164.38 192.15 166.31 189.98 167.38 C187.81 168.45 183.88 170.32 179.5 170.32 C175.12 170.32 171.15 168.41 169.02 167.38 C166.89 166.35 162.83 164.38 158.38 164.38 C153.93 164.38 149.92 166.31 147.75 167.38 C145.58 168.45 141.65 170.32 137.27 170.32 C132.89 170.32 128.92 168.41 126.79 167.38 C124.66 166.35 120.6 164.38 116.15 164.38 C111.7 164.38 107.68 166.31 105.52 167.38 C103.36 168.45 99.42 170.32 95.04 170.32 L95.04 170.66 C99.5 170.66 103.51 168.73 105.67 167.66 C107.83 166.59 111.78 164.72 116.15 164.72 z" style="fill:#8546D2;" /><path d="M116.15 168.1 C120.53 168.1 124.5 170.01 126.64 171.04 C128.78 172.07 132.8 174.04 137.27 174.04 C141.74 174.04 145.74 172.11 147.9 171.04 C150.06 169.97 154.02 168.1 158.38 168.1 C162.74 168.1 166.73 170.01 168.87 171.04 C171.01 172.07 175.03 174.04 179.5 174.04 C183.97 174.04 187.97 172.11 190.13 171.04 C192.29 169.97 196.25 168.1 200.62 168.1 C204.99 168.1 209 170 211.1 171 C213.2 172 217.26 174 221.73 174 C226.2 174 230.21 172.07 232.36 171 C234.51 169.93 238.48 168.06 242.85 168.06 C247.22 168.06 251.2 170 253.33 171 C255.46 172 259.49 174 263.96 174 L263.96 173.66 C259.57 173.66 255.61 171.75 253.48 170.72 C251.35 169.69 247.29 167.72 242.85 167.72 C238.41 167.72 234.38 169.65 232.22 170.72 C230.06 171.79 226.11 173.66 221.73 173.66 C217.35 173.66 213.38 171.75 211.25 170.72 C209.12 169.69 205.06 167.72 200.62 167.72 C196.18 167.72 192.15 169.65 189.98 170.72 C187.81 171.79 183.88 173.66 179.5 173.66 C175.12 173.66 171.15 171.75 169.02 170.72 C166.89 169.69 162.83 167.72 158.38 167.72 C153.93 167.72 149.92 169.65 147.75 170.72 C145.58 171.79 141.65 173.66 137.27 173.66 C132.89 173.66 128.92 171.75 126.79 170.72 C124.66 169.69 120.6 167.72 116.15 167.72 C111.7 167.72 107.68 169.65 105.52 170.72 C103.36 171.79 99.42 173.66 95.04 173.66 L95.04 174 C99.5 174 103.51 172.07 105.67 171 C107.83 169.93 111.78 168.1 116.15 168.1 z" style="fill:#8546D2;" /><path d="M116.15 171.47 C120.53 171.47 124.5 173.39 126.64 174.41 C128.78 175.43 132.8 177.41 137.27 177.41 C141.74 177.41 145.74 175.47 147.9 174.41 C150.06 173.35 154.02 171.47 158.38 171.47 C162.74 171.47 166.73 173.39 168.87 174.41 C171.01 175.43 175.03 177.41 179.5 177.41 C183.97 177.41 187.97 175.47 190.13 174.41 C192.29 173.35 196.25 171.47 200.62 171.47 C204.99 171.47 208.97 173.39 211.1 174.41 C213.23 175.43 217.26 177.41 221.73 177.41 C226.2 177.41 230.21 175.47 232.36 174.41 C234.51 173.35 238.48 171.47 242.85 171.47 C247.22 171.47 251.2 173.39 253.33 174.41 C255.46 175.43 259.49 177.41 263.96 177.41 L263.96 177.07 C259.57 177.07 255.61 175.16 253.48 174.13 C251.35 173.1 247.29 171.13 242.85 171.13 C238.41 171.13 234.38 173.06 232.22 174.13 C230.06 175.2 226.11 177.07 221.73 177.07 C217.35 177.07 213.38 175.16 211.25 174.13 C209.12 173.1 205.06 171.13 200.62 171.13 C196.18 171.13 192.15 173.06 189.98 174.13 C187.81 175.2 183.88 177.07 179.5 177.07 C175.12 177.07 171.15 175.16 169.02 174.13 C166.89 173.1 162.83 171.13 158.38 171.13 C153.93 171.13 149.92 173.06 147.75 174.13 C145.58 175.2 141.65 177.07 137.27 177.07 C132.89 177.07 128.92 175.16 126.79 174.13 C124.66 173.1 120.6 171.13 116.15 171.13 C111.7 171.13 107.68 173.06 105.52 174.13 C103.36 175.2 99.42 177.07 95.04 177.07 L95.04 177.41 C99.5 177.41 103.51 175.47 105.67 174.41 C107.83 173.35 111.78 171.47 116.15 171.47 z" style="fill:#8546D2;" /><path d="M116.15 174.85 C120.53 174.85 124.5 176.77 126.64 177.79 C128.78 178.81 132.8 180.79 137.27 180.79 C141.74 180.79 145.74 178.85 147.9 177.79 C150.06 176.73 154.02 174.85 158.38 174.85 C162.74 174.85 166.73 176.77 168.87 177.79 C171.01 178.81 175.03 180.79 179.5 180.79 C183.97 180.79 187.97 178.85 190.13 177.79 C192.29 176.73 196.25 174.85 200.62 174.85 C204.99 174.85 208.97 176.77 211.1 177.79 C213.23 178.81 217.26 180.79 221.73 180.79 C226.2 180.79 230.21 178.85 232.36 177.79 C234.51 176.73 238.48 174.85 242.85 174.85 C247.22 174.85 251.2 176.77 253.33 177.79 C255.46 178.81 259.49 180.79 263.96 180.79 L263.96 180.45 C259.57 180.45 255.61 178.54 253.48 177.51 C251.35 176.48 247.29 174.51 242.85 174.51 C238.41 174.51 234.38 176.44 232.22 177.51 C230.06 178.58 226.11 180.45 221.73 180.45 C217.35 180.45 213.38 178.54 211.25 177.51 C209.12 176.48 205.06 174.51 200.62 174.51 C196.18 174.51 192.15 176.44 189.98 177.51 C187.81 178.58 183.88 180.45 179.5 180.45 C175.12 180.45 171.15 178.54 169.02 177.51 C166.89 176.48 162.83 174.51 158.38 174.51 C153.93 174.51 149.92 176.44 147.75 177.51 C145.58 178.58 141.65 180.45 137.27 180.45 C132.89 180.45 128.92 178.54 126.79 177.51 C124.66 176.48 120.6 174.51 116.15 174.51 C111.7 174.51 107.68 176.44 105.52 177.51 C103.36 178.58 99.42 180.45 95.04 180.45 L95.04 180.79 C99.5 180.79 103.51 178.85 105.67 177.79 C107.83 176.73 111.78 174.85 116.15 174.85 z" style="fill:#8546D2;" /><path d="M116.15 178.23 C120.53 178.23 124.5 180.14 126.64 181.17 C128.78 182.2 132.8 184.17 137.27 184.17 C141.74 184.17 145.74 182.24 147.9 181.17 C150.06 180.1 154.02 178.23 158.38 178.23 C162.74 178.23 166.73 180.14 168.87 181.17 C171.01 182.2 175.03 184.17 179.5 184.17 C183.97 184.17 187.97 182.24 190.13 181.17 C192.29 180.1 196.25 178.23 200.62 178.23 C204.99 178.23 208.97 180.14 211.1 181.17 C213.23 182.2 217.26 184.17 221.73 184.17 C226.2 184.17 230.21 182.24 232.36 181.17 C234.51 180.1 238.48 178.23 242.85 178.23 C247.22 178.23 251.2 180.14 253.33 181.17 C255.46 182.2 259.49 184.17 263.96 184.17 L263.96 183.84 C259.57 183.84 255.61 181.92 253.48 180.9 C251.35 179.88 247.29 177.9 242.85 177.9 C238.41 177.9 234.38 179.84 232.22 180.9 C230.06 181.96 226.11 183.84 221.73 183.84 C217.35 183.84 213.38 181.92 211.25 180.9 C209.12 179.88 205.06 177.9 200.62 177.9 C196.18 177.9 192.15 179.84 189.98 180.9 C187.81 181.96 183.88 183.84 179.5 183.84 C175.12 183.84 171.15 181.92 169.02 180.9 C166.89 179.88 162.83 177.9 158.38 177.9 C153.93 177.9 149.92 179.84 147.75 180.9 C145.58 181.96 141.65 183.84 137.27 183.84 C132.89 183.84 128.92 181.92 126.79 180.9 C124.66 179.88 120.6 177.9 116.15 177.9 C111.7 177.9 107.68 179.84 105.52 180.9 C103.36 181.96 99.42 183.84 95.04 183.84 L95.04 184.17 C99.5 184.17 103.51 182.24 105.67 181.17 C107.83 180.1 111.78 178.23 116.15 178.23 z" style="fill:#8546D2;" /><path d="M116.15 181.61 C120.53 181.61 124.5 183.52 126.64 184.55 C128.78 185.58 132.8 187.55 137.27 187.55 C141.74 187.55 145.74 185.62 147.9 184.55 C150.06 183.48 154.02 181.61 158.38 181.61 C162.74 181.61 166.73 183.52 168.87 184.55 C171.01 185.58 175.03 187.55 179.5 187.55 C183.97 187.55 187.97 185.62 190.13 184.55 C192.29 183.48 196.25 181.61 200.62 181.61 C204.99 181.61 208.97 183.52 211.1 184.55 C213.23 185.58 217.26 187.55 221.73 187.55 C226.2 187.55 230.21 185.62 232.36 184.55 C234.51 183.48 238.48 181.61 242.85 181.61 C247.22 181.61 251.2 183.52 253.33 184.55 C255.46 185.58 259.49 187.55 263.96 187.55 L263.96 187.21 C259.57 187.21 255.61 185.3 253.48 184.28 C251.35 183.26 247.29 181.28 242.85 181.28 C238.41 181.28 234.38 183.22 232.22 184.28 C230.06 185.34 226.11 187.21 221.73 187.21 C217.35 187.21 213.38 185.3 211.25 184.28 C209.12 183.26 205.06 181.28 200.62 181.28 C196.18 181.28 192.15 183.22 189.98 184.28 C187.81 185.34 183.88 187.21 179.5 187.21 C175.12 187.21 171.15 185.3 169.02 184.28 C166.89 183.26 162.83 181.28 158.38 181.28 C153.93 181.28 149.92 183.22 147.75 184.28 C145.58 185.34 141.65 187.21 137.27 187.21 C132.89 187.21 128.92 185.3 126.79 184.28 C124.66 183.26 120.6 181.28 116.15 181.28 C111.7 181.28 107.68 183.22 105.52 184.28 C103.36 185.34 99.42 187.21 95.04 187.21 L95.04 187.55 C99.5 187.55 103.51 185.62 105.67 184.55 C107.83 183.48 111.78 181.61 116.15 181.61 z" style="fill:#8546D2;" /><path d="M116.15 185 C120.53 185 124.5 186.91 126.64 187.94 C128.78 188.97 132.8 190.94 137.27 190.94 C141.74 190.94 145.74 189.01 147.9 187.94 C150.06 186.87 154 185 158.38 185 C162.76 185 166.73 186.91 168.87 187.94 C171.01 188.97 175.03 190.94 179.5 190.94 C183.97 190.94 187.97 189.01 190.13 187.94 C192.29 186.87 196.25 185 200.62 185 C204.99 185 208.97 186.91 211.1 187.94 C213.23 188.97 217.26 190.94 221.73 190.94 C226.2 190.94 230.21 189.01 232.36 187.94 C234.51 186.87 238.48 185 242.85 185 C247.22 185 251.2 186.91 253.33 187.94 C255.46 188.97 259.49 190.94 263.96 190.94 L263.96 190.6 C259.57 190.6 255.61 188.69 253.48 187.66 C251.35 186.63 247.29 184.66 242.85 184.66 C238.41 184.66 234.38 186.59 232.22 187.66 C230.06 188.73 226.11 190.6 221.73 190.6 C217.35 190.6 213.38 188.69 211.25 187.66 C209.12 186.63 205.06 184.66 200.62 184.66 C196.18 184.66 192.15 186.59 189.98 187.66 C187.81 188.73 183.88 190.6 179.5 190.6 C175.12 190.6 171.15 188.69 169.02 187.66 C166.89 186.63 162.83 184.66 158.38 184.66 C153.93 184.66 149.92 186.59 147.75 187.66 C145.58 188.73 141.65 190.6 137.27 190.6 C132.89 190.6 128.92 188.69 126.79 187.66 C124.66 186.63 120.6 184.66 116.15 184.66 C111.7 184.66 107.68 186.59 105.52 187.66 C103.36 188.73 99.42 190.6 95.04 190.6 L95.04 190.94 C99.5 190.94 103.51 189.01 105.67 187.94 C107.83 186.87 111.78 185 116.15 185 z" style="fill:#8546D2;" /><path d="M242.85 188 C238.4 188 234.38 189.93 232.22 191 L231.9 191.15 L232.68 191.15 C234.88 190.1 238.68 188.37 242.85 188.37 C247.02 188.37 250.85 190.1 253.02 191.15 L253.8 191.15 L253.48 191 C251.32 190 247.29 188 242.85 188 z" style="fill:#8546D2;" /><path d="M158.38 188 C153.94 188 149.92 189.93 147.75 191 L147.44 191.15 L148.22 191.15 C150.42 190.1 154.22 188.37 158.38 188.37 C162.54 188.37 166.38 190.1 168.56 191.15 L169.34 191.15 L169 191 C166.86 190 162.83 188 158.38 188 z" style="fill:#8546D2;" /><path d="M116.15 188 C111.71 188 107.68 189.93 105.52 191 L105.21 191.15 L106 191.15 C108.2 190.1 112 188.37 116.16 188.37 C120.32 188.37 124.16 190.1 126.33 191.15 L127.11 191.15 L126.8 191 C124.63 190 120.6 188 116.15 188 z" style="fill:#8546D2;" /><path d="M200.62 188 C196.17 188 192.15 189.93 189.98 191 L189.67 191.15 L190.45 191.15 C192.65 190.1 196.45 188.37 200.62 188.37 C204.79 188.37 208.62 190.1 210.79 191.15 L211.57 191.15 L211.25 191 C209.09 190 205.06 188 200.62 188 z" style="fill:#8546D2;" /></g><circle cx="176.87" cy="58.41" r="6.11" transform="matrix(0.228691, -0.973499, 0.973499, 0.228691, 79.55, 217.23)" style="fill:url(#linear-gradient-4);" /></svg>