<svg overflow="hidden" viewBox="0, 0, 230, 214" id="ccd51542-2361-44c8-8ddd-43bcfdad0ece" xmlns="http://www.w3.org/2000/svg" xmlns:xlink="http://www.w3.org/1999/xlink" xmlns:xml="http://www.w3.org/XML/1998/namespace" version="1.1"><path d="M24.52 136.27 C30.5 147.05 41.46 153.94 51.97 160.38 C59.37 164.91 66.77 169.45 74.17 173.98 C84.12 180.07 94.17 186.22 105.22 189.98 C127.63 197.6 153.45 194.44 173.36 181.64 C193.27 168.83 206.85 146.65 209.21 123.1 C210.04 114.84 209.47 106.14 205.51 98.84 C201.55 91.54 193.62 85.98 185.35 86.69 C179.85 87.16 174.71 90.23 169.2 90 C160.66 89.64 154.41 81.44 152.03 73.22 C149.65 65 149.84 56.2 147.34 48.02 C142.33 31.65 125.72 19.61 108.6 19.95 C91.49 20.29 75.36 32.97 71 49.52 C68.58 58.7 69.11 69.45 62.5 76.26 C57.09 81.84 48.66 82.84 41.54 85.95 C23.27 93.93 14.85 118.84 24.52 136.27 z" style="fill:#43568E;" /></svg>