<svg overflow="hidden" viewBox="0, 0, 255, 245" id="e571bf1f-ddf1-4009-b7c5-16368340f69f" xmlns="http://www.w3.org/2000/svg" xmlns:xlink="http://www.w3.org/1999/xlink" xmlns:xml="http://www.w3.org/XML/1998/namespace" version="1.1"><path d="M207.36 221.76 C195.3 227.61 181.05 224.94 167.94 222.15 C156.15 219.64 144.36 217.13 132.57 214.62 C114.46 210.76 96.11 206.83 79.57 198.49 C41.21 179.14 16.76 135.19 20.57 92.4 C21.61 80.75 24.68 69 31.49 59.5 C38.3 50 49.31 43.03 61 43.07 C68.44 43.1 75.82 45.86 83.18 44.81 C101.49 42.2 112.89 17.46 131.22 19.93 C143.86 21.64 150.68 35.55 153.79 47.91 C156.9 60.28 159.39 74.35 169.87 81.62 C180.27 88.83 194.5 86.37 206.41 90.63 C220.56 95.7 229.82 109.95 233.04 124.64 C236.26 139.33 234.46 154.59 232.64 169.52 C230.21 189.6 225.56 212.93 207.36 221.76 z" style="fill:#E299B0;" /></svg>