<svg overflow="hidden" viewBox="0, 0, 150.69, 126.41" id="7315cc58-ca53-4cda-a681-30ab0c3900d5" xmlns="http://www.w3.org/2000/svg" xmlns:xlink="http://www.w3.org/1999/xlink" xmlns:xml="http://www.w3.org/XML/1998/namespace" version="1.1"><g id="Layer_4"><g><path d="M69.45 89.54 C69.34 88.08 67.16 87.63 66.81 89.2 C66.11 92.32 65.23 95.71 63.81 98.57 C62.74 100.73 61.32 102.84 61.68 105.34 C61.92 106.97 64.05 106.53 64.51 105.34 C66.38 100.51 69.85 94.93 69.45 89.54 z" style="fill:#1C3946;" /><path d="M78.03 89.6 C77.63 91.92 76.5 94.16 75.98 96.48 C75.34 99.32 74.13 101.86 73.29 104.61 C72.88 105.97 74.72 107.01 75.68 105.98 C77.59 103.94 78.25 100.89 78.9 98.24 C79.55 95.56 80.57 92.69 80.61 89.93 C80.62 88.47 78.28 88.11 78.03 89.6 z" style="fill:#1C3946;" /><path d="M34.93 43.25 C42.85 46.02 40.42 62.98 41.95 69.39 C43.95 77.76 50.55 85.29 57.3 90.21 C63.07 94.41 71.65 95.42 78.51 93.69 C87.04 91.53 92.01 86.18 98.17 80.64 C103.65 75.72 108.61 71.16 113.1 65.3 C98.84 63.01 92.68 47.61 83.24 38.14 C74.65 29.53 56.13 13.87 42.73 22.51 C39.86 24.36 30.26 35.35 34.16 38.61 L34.93 43.25 z" style="fill:#F6DBC6;" /><path d="M71.58 48.27 C70.45 42.81 67.3 34.66 63.84 30.34 C59.76 25.25 56.06 22.43 49.21 22.42 C46.72 22.42 43.91 22.93 41.1 23.87 C37.34 27.43 30.83 35.84 34.16 38.62 L34.93 43.25 C42.85 46.02 40.42 62.98 41.95 69.39 C42.5 71.69 43.41 73.93 44.56 76.07 C45.61 76.08 46.69 75.85 47.66 75.36 C51.37 73.49 52.94 69.87 52.73 65.73 C53.1 67.62 55.04 70.46 56.92 70.27 C59.02 70.06 59.73 67 59.16 64.95 C60.73 66.84 63.44 68.65 65.32 67.19 C67.44 65.54 65.91 60.37 64.69 58.73 C71.99 63.11 72.62 53.35 71.58 48.27 z" style="fill:#F67382;" /><path d="M34.54 36.69 C30.9 40.04 24.47 42.53 20 44.71 C24.71 45.07 29.62 45.08 34.14 45.59 C36.48 45.85 38.3 46.73 39.17 44.41 C40.01 42.17 37.9 40 36.47 38.62 L34.54 36.69 z" style="fill:#1C3946;" /><path d="M50.81 33.6 C50.99 32.84 50.76 31.99 49.97 31.66 C49.63 31.52 49.25 31.44 48.87 31.42 C47.8 30.91 46.59 31.05 45.61 31.89 C45.01 32.41 44.64 33.11 44.51 33.87 C44.21 34.47 44.09 35.15 44.24 35.87 C44.56 37.41 45.92 38.68 47.51 38.72 C49.16 38.76 50.34 37.35 50.87 35.95 C51.17 35.19 51.1 34.36 50.81 33.6 z" style="fill:#1C3946;" /><path d="M112.51 65.19 C98.68 62.56 92.55 47.48 83.25 38.15 C74.66 29.54 56.14 13.88 42.74 22.52 C40.99 23.65 36.71 28.21 34.55 32.32 L35.33 32.45 C36.66 27.38 48.56 23.72 53.08 24.56 C71.22 27.95 65.51 52.86 76.31 62.91 C81.67 67.9 88.39 70.7 95.51 71.4 C102.81 72.12 108.52 70.35 112.51 65.19 z" style="fill:#1C3946;" /><path d="M93.5 50.83 C93.85 51.76 94.09 52.68 94.19 53.72 C94.37 55.69 92.4 56.57 91.29 54.7 C90.09 52.67 87.12 54.41 88.14 56.49 C88.67 57.57 88.72 58.85 88.57 60.02 C88.48 60.7 86.16 59.54 85.86 58.96 C84.81 56.91 81.79 58.67 82.78 60.71 C83.95 63.12 80.29 64.57 78.57 63.81 C77.27 63.24 76.69 61.6 75.35 60.96 C75.04 60.81 74.71 60.8 74.41 60.88 C74.98 61.56 75.6 62.24 76.31 62.9 C78.08 64.54 80 65.95 82.03 67.12 C82.2 67.08 82.36 67.03 82.52 66.97 C84.21 66.4 85.41 64.99 85.98 63.36 C87.38 63.89 88.94 63.99 90.19 63.5 C91.79 62.87 92.33 61.15 92.32 59.31 C93.76 59.49 95.28 59.09 96.61 58.08 C97.27 57.57 97.67 56.89 97.89 56.11 C96.35 54.45 94.91 52.66 93.5 50.83 z" style="fill:white;" /><path d="M100.82 59.06 C100.64 58.9 100.46 58.73 100.27 58.56 C99 60.65 96.7 60.74 94.58 60.98 C93.71 61.08 93.14 61.89 93.04 62.7 C92.66 65.69 90.45 66.25 87.87 65.26 C87.57 65.15 87.37 65.47 87.41 65.72 C87.6 67.01 87.56 68.27 87.22 69.53 C87.45 69.61 87.68 69.7 87.92 69.77 C88.31 68.65 88.34 67.37 88.23 66.18 C89.55 66.64 91.06 66.95 92.23 65.95 C92.98 65.3 93.53 64.72 93.7 63.74 C93.83 62.97 93.57 61.86 94.97 61.7 C95.43 61.65 95.92 61.84 96.37 61.75 C98.15 61.37 99.68 60.48 100.82 59.06 z" style="fill:white;" /><path d="M77.82 49.13 C76.65 48.76 76.2 47.48 76.11 46.34 C76.08 45.96 75.52 45.95 75.51 46.34 C75.48 47.48 76.26 50.02 77.82 49.72 C78.14 49.66 78.1 49.22 77.82 49.13 z" style="fill:white;" /><path d="M75.72 39.32 C75.5 38.29 74.57 37.58 74.17 36.62 C74.03 36.28 73.49 36.4 73.6 36.77 C73.75 37.25 74 37.68 74.29 38.09 C74.63 38.56 74.9 39.03 75.17 39.54 C75.34 39.85 75.79 39.64 75.72 39.32 z" style="fill:white;" /><path d="M84.06 43.39 C83.02 42.92 82.49 42.19 82.09 41.15 C81.82 40.44 81.57 39.75 81.03 39.2 C80.78 38.94 80.4 39.33 80.64 39.59 C81.25 40.28 81.41 41.25 81.77 42.07 C82.17 42.99 82.89 43.62 83.85 43.9 C84.15 44 84.35 43.53 84.06 43.39 z" style="fill:white;" /><path d="M85.34 50.13 C85.02 49.02 84.18 48.41 83.37 47.67 C83.08 47.41 82.67 47.82 82.94 48.1 C83.64 48.82 84.43 49.39 84.85 50.33 C84.97 50.61 85.42 50.41 85.34 50.13 z" style="fill:white;" /><path d="M88.93 46.05 C88.56 46.02 88.57 46.58 88.93 46.62 C89.05 46.63 89.03 47.08 89.05 47.18 C89.1 47.45 89.54 47.45 89.59 47.18 C89.69 46.66 89.52 46.1 88.93 46.05 z" style="fill:white;" /><path d="M111.22 66.01 C115.67 61.02 119.15 48.97 127.04 47.59 C131.22 46.86 130.74 50.51 129 53.67 C126.5 58.2 121.24 59.21 117.53 62.1 C120.15 60.54 123.2 58.97 126.29 58.68 C131.39 58.21 132.33 60.27 127.73 62.92 C121.79 66.34 111.91 65.08 106.98 67.95 L111.22 66.01 z" style="fill:#1C3946;" /><g><path d="M56.14 79.59 C56.14 79.56 56.14 79.54 56.14 79.51 C56.14 78.72 55.44 77.89 54.6 77.97 C54.39 77.99 54.18 77.99 53.99 78.07 C53.87 78.09 53.77 78.13 53.67 78.19 C53.39 78.22 53.11 78.31 52.86 78.44 C52.84 78.45 52.82 78.46 52.79 78.47 C52.47 78.67 52.19 78.93 52 79.26 C51.48 80.16 51.74 81.66 52.79 82.11 C53.29 82.32 53.69 82.41 54.21 82.35 C54.78 82.28 55.24 82.17 55.66 81.75 C56.04 81.37 56.26 80.84 56.26 80.3 C56.27 80.04 56.22 79.81 56.14 79.59 z" style="fill:white;" /><g><path d="M65.14 80.86 C65.13 80.88 65.12 80.91 65.11 80.93 C65.12 80.93 65.14 80.88 65.14 80.86 z" style="fill:white;" /><path d="M65.11 80.93 C65.13 80.86 65.14 80.84 65.14 80.86 C65.56 79.8 64.59 78.55 63.47 78.55 C62.35 78.55 61.38 79.8 61.8 80.86 C61.8 80.84 61.82 80.86 61.83 80.93 C61.87 81.01 61.89 81.09 61.94 81.16 C61.9 81.1 61.87 81.04 61.85 81 C61.86 81.03 61.86 81.06 61.87 81.09 C62.19 82.7 64.74 82.7 65.07 81.09 C65.08 81.06 65.08 81.03 65.09 81 C65.07 81.05 65.04 81.1 65 81.16 C65.05 81.09 65.07 81.01 65.11 80.93 z" style="fill:white;" /><path d="M61.84 80.93 C61.83 80.91 61.82 80.89 61.81 80.86 C61.81 80.88 61.83 80.93 61.86 81 C61.85 80.95 61.85 80.95 61.84 80.93 z" style="fill:white;" /></g><path d="M65.25 72.72 C64.76 72.23 64.14 72.24 63.54 72.49 C63.52 72.5 63.5 72.51 63.48 72.52 C62.52 72.52 61.98 73.25 61.87 74.11 C61.85 74.24 61.84 74.37 61.82 74.5 C61.76 75.07 62.19 75.67 62.65 75.93 C63.28 76.29 64.12 76.19 64.62 75.66 C64.92 75.35 65.22 75.04 65.33 74.6 C65.24 74.97 65.21 74.89 65.33 74.73 C65.4 74.64 65.43 74.52 65.47 74.43 C65.73 73.83 65.74 73.21 65.25 72.72 z" style="fill:white;" /><path d="M70.58 71.9 C70.06 71.41 69.14 71.42 68.65 71.95 C68.08 72.57 68.03 73.27 68.36 74.02 C68.64 74.66 69.42 74.84 70.04 74.87 C70.88 74.9 71.58 74.15 71.58 73.33 C71.57 72.71 71.15 72.13 70.58 71.9 z" style="fill:white;" /><path d="M71.38 64.62 C70.36 63.95 68.74 64.58 68.74 66.01 C68.74 67.44 70.36 68.07 71.38 67.4 C72.59 66.91 72.59 65.11 71.38 64.62 z" style="fill:white;" /><path d="M77.56 66.4 C77.56 65.41 76.77 64.71 75.82 64.66 C74.97 64.62 74.39 64.98 73.78 65.52 C73.31 65.93 73.16 66.66 73.31 67.24 C73.47 67.86 73.93 68.28 74.49 68.47 C74.68 68.59 74.84 68.65 75.02 68.68 C75.37 68.72 75.51 68.74 75.45 68.73 C75.98 68.78 76.5 68.59 76.87 68.21 C77.1 67.97 77.26 67.63 77.3 67.28 C77.46 67.04 77.56 66.74 77.56 66.4 z" style="fill:white;" /><path d="M58.87 74.5 C58.87 73.56 58.15 73.03 57.3 72.93 C56.77 72.87 56.22 73.01 55.84 73.4 C55.34 73.9 55.29 74.53 55.41 75.19 C55.53 75.87 56.26 76.35 56.92 76.35 C57.3 76.35 57.66 76.2 57.95 75.96 C58.5 75.74 58.87 75.06 58.87 74.5 z" style="fill:white;" /></g><path d="M58.91 83.55 C58.62 83.2 58.2 82.98 57.69 82.98 C56.78 82.98 56.06 83.73 56.04 84.63 C56.03 85.03 56.13 85.31 56.28 85.67 C56.5 86.17 57.19 86.54 57.72 86.51 C57.6 86.49 57.49 86.48 57.37 86.46 C57.52 86.49 57.67 86.51 57.83 86.51 C58.04 86.53 58.26 86.46 58.47 86.43 C59.85 86.23 59.98 84.16 58.91 83.55 z" style="fill:white;" /><path d="M49.86 31.56 C49.76 31.53 49.65 31.51 49.55 31.49 C48.68 31.28 47.8 31.93 47.8 32.84 C47.8 33.75 48.68 34.4 49.55 34.19 C49.65 34.17 49.75 34.14 49.86 34.12 C51.14 33.8 51.14 31.87 49.86 31.56 z" style="fill:white;" /></g></g><g id="Layer_2" /><g id="Layer_3" /></svg>