<svg overflow="hidden" viewBox="0, 0, 178.66, 256" xml:space="preserve" id="21c860b4-179a-400c-9df0-7747ddaf39ba" xmlns="http://www.w3.org/2000/svg" xmlns:xlink="http://www.w3.org/1999/xlink" xmlns:xml="http://www.w3.org/XML/1998/namespace" version="1.1">
  <g>
    <g>
      <path d="M71.3 237.57 C67 236.48 61.32 238.03 67.08 236.08 C67.8 235.84 71.97 234.36 71.23 233.46 C70.66 232.76 63.76 234.38 61.41 235.37 C59.63 236.12 61.56 239.35 65.45 180.25 C65.46 180.07 66.86 119.08 66.63 118.04 C66.41 117.03 65.71 117.67 65.2 117.67 C60.97 118.81 64.05 174.91 59.12 216.85 C57.6 229.82 57.64 232.39 56.99 234.98 C55.86 239.5 57.06 239.91 64.4 245.05 C66.56 246.57 68.93 246.7 68.93 245.3 C68.93 244.89 63.79 239.55 63.79 239.73 C63.79 239.55 79.25 239.59 71.3 237.57 z" style="fill:#1C1B1E;" />
      <path d="M52.24 118.92 C50.07 117.76 51 117.24 48.87 121.35 C31.73 154.46 32.01 150.92 32.24 176.47 C32.59 215.74 35.65 228.73 35.58 235.65 C35.56 237.69 41.69 243.54 43.36 244.4 C44.9 245.19 45.32 243.16 42.58 240.16 C39.96 237.29 40.44 237.62 42.31 238.43 C45.45 239.79 46.28 239.47 48.76 240.15 C50.07 240.51 50.15 240.51 50.46 240.2 C52.24 238.47 42.32 236 42.5 235.82 C42.5 235.82 49.64 235.19 50.32 234.51 C51.43 233.4 47.61 233.45 38.95 233.47 C34.39 199.38 35.27 160.18 37.1 154.33 C39.37 147.07 39.77 148.45 46.51 134.44 C49.54 128.15 52.68 120.23 53.97 120.23 C54.86 120.23 53.07 119.36 52.24 118.92 z" style="fill:#1C1B1E;" />
    </g>
    <path d="M103.72 38.61 C111.55 27.72 118.93 21.44 118.93 20.64 C118.93 19.75 116.9 17.5 114.73 15.97 C111.3 13.54 109.4 10 99.43 10 C94.97 10.5 91.9 13.62 89.11 16.45 C83.98 17.89 77.41 19.63 72.97 22.35 C59.41 30.73 45.42 44.42 35.78 60.82 C31.53 68.05 22.65 92.56 20.37 101.32 C14.23 124.85 12.83 124.93 11.31 130.97 C10.32 134.95 9.41 139.86 11.51 138.73 C11.79 138.58 12.12 138.34 12.5 137.96 L13.5 137.01 L13.5 137.08 C13.52 139.89 14.18 140.35 15.02 139.98 C15.42 139.82 15.86 139.45 16.28 139.07 C16.33 139.34 16.39 139.6 16.44 139.8 C16.7 140.64 17.08 140.9 18.03 140.11 C18.23 139.94 18.46 139.72 18.72 139.45 C18.72 140.02 18.81 140.44 18.96 140.71 C20.8 144.03 32.14 128.66 37.36 122.21 C39.68 119.32 37.6 120.38 46.91 121 C64.64 122.2 82.59 119.81 92.36 105.11 C98.17 96.35 100.28 93.34 102.42 80.19 C103.82 71.47 105.17 46.98 103.73 39.95 C103.54 39.08 103.54 38.82 103.72 38.61 z" style="fill:#4B98FB;" />
    <path d="M100.65 15.7 C97.07 16.7 95.18 19.55 98.23 25.01 C99.97 28.12 106.94 33.91 108.65 34.57 C108.94 34.68 116.2 27.67 115.85 26.63 C115.81 26.53 115.91 26.21 116.07 25.91 C116.78 24.58 108.55 15.7 100.65 15.7 z" style="fill:#5864EF;" />
    <path d="M89.39 30.99 C88.55 21.31 87.98 17.95 87.29 16.93 C86.67 16.03 85.92 16.91 84.73 16.91 C71.42 21.71 68.13 23.68 62.78 27.59 C46.95 39.18 34.64 57.6 27.61 76.32 C27.45 76.74 27.3 77.16 27.14 77.6 C25.81 81.25 24.69 84.92 23.78 88.54 C23.71 88.81 23.65 89.07 23.58 89.34 C23.11 89.58 22.69 89.8 22.27 90.02 L22.25 90.04 C18.44 92 16.92 93.18 18.91 97.11 C17.87 97.66 17.34 98.11 17.25 98.66 C17.17 98.98 17.28 99.35 17.54 99.77 C17.69 100.07 17.91 100.39 18.18 100.76 C15.11 101.88 15.55 103.03 16.68 104.16 C16.75 104.23 16.83 104.31 16.88 104.36 C17.47 104.94 17.63 105.07 17.34 105.31 C17.2 105.46 16.92 105.61 16.52 105.88 C13.21 108.1 14.2 109.75 17.87 110.55 C30.03 113.2 71.7 106.59 84.48 81.17 C85.71 78.72 87.95 74.67 89.25 65.41 C90.45 56.7 89.92 36.88 89.39 30.99 z" style="fill:#5864EF;" />
    <path d="M101.08 18.28 C98.88 20.48 107.51 29.16 108.97 26.42 C110.77 23.04 103.13 16.23 101.08 18.28 z" style="fill:white;" />
    <g>
      <path d="M97.06 43.23 C97.24 43.22 96.73 43.55 97.06 44.8 C97.27 45.59 97.9 45 97.9 44.02 C97.9 42.66 97.18 42.91 97.06 43.23 z" style="fill:#5864EF;" />
      <path d="M95.64 50.31 C95.64 49.55 95.38 49.31 95.1 49.83 C94.56 50.84 95.64 51.64 95.64 50.31 z" style="fill:#5864EF;" />
      <path d="M98.94 56.32 C99.76 56.63 99.35 53.42 98.71 54.06 C98.37 54.4 98.55 56.17 98.94 56.32 z" style="fill:#5864EF;" />
      <path d="M95.03 58.57 C95.13 57.81 95.12 57.76 94.8 57.76 C94.36 57.77 94.28 58.31 94.23 58.31 C93.57 59.88 94.75 60.66 95.03 58.57 z" style="fill:#5864EF;" />
      <path d="M98.75 61.71 C98.41 63.06 99.37 63.54 99.37 62.21 C99.38 61.19 98.89 61.19 98.75 61.71 z" style="fill:#5864EF;" />
      <path d="M96.27 66.17 C95.74 66.18 95.5 67.75 95.64 68.2 C95.76 68.57 96.26 68.62 96.4 68.26 C96.48 68.05 96.62 66.17 96.27 66.17 z" style="fill:#5864EF;" />
      <path d="M91.89 71.69 C91.64 72.07 91.39 73.57 91.9 73.57 C92.66 73.58 92.96 70.07 91.89 71.69 z" style="fill:#5864EF;" />
      <path d="M98.2 73.84 C97.54 73.72 97.59 75.93 97.81 76.22 C98.6 77.29 98.76 73.95 98.2 73.84 z" style="fill:#5864EF;" />
      <path d="M94.3 79.16 C93.12 80.07 93.51 81.77 94.57 79.95 C95.06 79.1 94.92 78.68 94.3 79.16 z" style="fill:#5864EF;" />
      <path d="M88.76 83.81 C89.49 82.42 89.39 81.7 88.6 82.56 C87.1 84.2 87.4 86.42 88.76 83.81 z" style="fill:#5864EF;" />
      <path d="M95.36 85.58 C94.14 86.8 94.76 88.31 95.64 86.58 C96.15 85.58 96.3 84.65 95.36 85.58 z" style="fill:#5864EF;" />
      <path d="M88.2 90.35 C87.71 90.88 87.64 91.41 88.07 91.41 C88.4 91.41 89.33 90.43 89.33 90.09 C89.33 89.69 88.67 89.85 88.2 90.35 z" style="fill:#5864EF;" />
      <path d="M81.1 94.52 C80.12 95.74 80.85 96.24 81.78 94.99 C82.59 93.88 81.97 93.45 81.1 94.52 z" style="fill:#5864EF;" />
      <path d="M86.51 97.53 C86.7 97.53 84.97 98.92 84.97 99.37 C84.97 99.71 85.47 99.69 85.86 99.33 C87.33 97.98 87.29 96.93 86.51 97.53 z" style="fill:#5864EF;" />
      <path d="M78.71 102.31 C79.1 102.31 79.89 101.45 79.78 101.16 C79.48 100.36 77.78 102.31 78.71 102.31 z" style="fill:#5864EF;" />
      <path d="M71.75 104.26 C70.62 105.49 71.35 106.18 72.47 104.81 C73.54 103.49 72.9 103.01 71.75 104.26 z" style="fill:#5864EF;" />
      <path d="M74.8 108.72 C72.72 110.51 75.56 109.74 75.99 108.62 C76.29 107.84 75.77 107.89 74.8 108.72 z" style="fill:#5864EF;" />
      <path d="M58.39 110.05 C58.79 110.45 60.42 109.79 60.14 109.33 C59.96 109.05 57.83 109.49 58.39 110.05 z" style="fill:#5864EF;" />
      <path d="M65.2 110.93 C63.29 111.58 66.13 112.1 66.13 111.03 C66.13 110.46 65.38 110.93 65.2 110.93 z" style="fill:#5864EF;" />
      <path d="M42.72 111.62 C42.29 111.71 42.47 112.16 43 112.31 C43.83 112.54 44.95 112.2 44.95 111.72 C44.95 111.37 42.91 111.62 42.72 111.62 z" style="fill:#5864EF;" />
      <path d="M67.94 114.31 C66.84 115.18 68.63 115.14 68.63 114.27 C68.62 113.63 68.12 114.31 67.94 114.31 z" style="fill:#5864EF;" />
      <path d="M49.81 114.81 C49.88 115.35 52.23 115.41 51.66 114.71 C51.45 114.44 49.73 114.21 49.81 114.81 z" style="fill:#5864EF;" />
      <path d="M60.59 116.14 C61.04 116.23 61.77 115.85 61.77 115.53 C61.77 114.75 59.42 115.91 60.59 116.14 z" style="fill:#5864EF;" />
    </g>
    <g>
      <path d="M107.25 18.06 C107.24 17.34 105.37 16.8 104.89 17.37 C104.23 18.16 107.25 19 107.25 18.06 z" style="fill:#1C1B1E;" />
      <path d="M68.51 44.25 C68.79 44.02 70.95 39.81 70.95 39.49 C70.96 39.12 70.53 39.19 70.27 39.6 C68.79 41.91 67.39 45.18 68.51 44.25 z" style="fill:#1C1B1E;" />
      <path d="M29.21 76.3 C40.72 68.92 41.89 66.59 52.97 53.97 C53.72 53.12 58.72 47.64 57.38 47.64 C55.56 48.7 42.06 67.08 29.3 75.3 C28.73 75.68 28.17 76.01 27.62 76.32 C27.46 76.74 27.31 77.16 27.15 77.6 C27.79 77.24 28.37 76.85 28.81 76.56 C28.97 76.46 29.1 76.37 29.21 76.3 z" style="fill:#1C1B1E;" />
      <path d="M54.15 67.07 C71.17 42.84 66.41 48.77 66.03 48.77 C57.17 58.41 54.53 72.05 29.73 85.76 C27.54 86.98 25.82 87.77 24.49 88.28 C24.24 88.38 24 88.47 23.78 88.54 C23.71 88.81 23.65 89.07 23.58 89.34 C23.11 89.58 22.69 89.8 22.27 90.02 C22.78 89.91 23.4 89.73 24.08 89.51 C31.07 87.08 46.01 78.66 54.15 67.07 z" style="fill:#1C1B1E;" />
      <path d="M20.94 99.2 C27.73 97.7 38.54 93.69 44.71 89.25 C45.74 88.52 49.96 84.96 52.42 82.75 C65.64 70.92 68.43 63.4 73.4 52.86 C76.63 46.03 74.84 48.79 74.67 48.79 C71.82 52.48 68.08 64.9 60.08 73.35 C48.72 85.31 43.3 91.15 26.9 96.52 C24.72 97.23 22.86 97.71 21.29 98.02 C19.61 98.39 18.27 98.55 17.25 98.66 C17.17 98.98 17.28 99.35 17.54 99.77 C18.49 99.67 19.64 99.49 20.94 99.2 z" style="fill:#1C1B1E;" />
      <path d="M79.48 64.57 C79.66 64.57 77.36 69.06 77.78 69.48 C78.54 70.24 81.09 62.01 79.48 64.57 z" style="fill:#1C1B1E;" />
      <path d="M75.52 72.77 C60.95 88.05 61.24 95.19 27.3 103.24 C24.42 103.93 21.75 104.19 19.56 104.3 C18.56 104.33 17.67 104.33 16.88 104.35 C17.47 104.93 17.63 105.06 17.34 105.3 C17.98 105.3 18.65 105.27 19.31 105.23 C21.17 105.14 22.91 104.97 23.53 104.9 C29.38 104.21 45.26 99.44 50.63 96.87 C63.08 90.89 77.33 72.76 75.52 72.77 z" style="fill:#1C1B1E;" />
      <path d="M21.07 118 C21.07 118.32 13.38 134.28 11.5 138.72 C11.78 138.57 12.11 138.33 12.49 137.95 L13.49 137 L13.49 137.07 C17.34 130.12 24.06 113.66 21.07 118 z" style="fill:#1C1B1E;" />
      <path d="M27.2 118.1 C27.2 117.72 26.75 117.88 26.36 118.39 C26.36 118.64 17.81 133.63 15 139.97 C15.4 139.81 15.84 139.44 16.26 139.06 C16.31 139.33 16.37 139.59 16.42 139.79 C18.12 136.61 20.13 131.97 20.46 131.28 C23.75 124.13 27.2 118.7 27.2 118.1 z" style="fill:#1C1B1E;" />
      <path d="M18.02 140.11 C18.22 139.94 18.45 139.72 18.71 139.45 C18.71 140.02 18.8 140.44 18.95 140.71 C20.63 138.64 23.4 134.7 27.73 127.67 C36.99 112.68 28.57 124.56 18.02 140.11 z" style="fill:#1C1B1E;" />
      <path d="M108.56 20.8 C108.37 20.08 107.26 19.78 106.5 20.24 C105.32 20.96 102.78 24.31 104.57 25.05 C106.13 25.7 108.9 22.14 108.56 20.8 z" style="fill:#1C1B1E;" />
    </g>
    <path d="M168.55 64.67 C166.65 62.42 157.45 61.22 136.83 40.64 C123.57 27.4 120.26 21.7 118.78 20.4 C116.69 22.41 114.74 24.51 112.71 26.83 C109.28 30.75 105.47 34.52 102.49 38.81 C106.16 42.08 121.41 51.93 136.39 59.52 C138.42 60.54 140.43 61.51 142.4 62.42 C152.95 67.33 162.56 70.45 166.79 68.52 C168.58 67.71 169.46 65.77 168.55 64.67 z" style="fill:#FFCC1F;" />
    <path d="M159.84 61.98 C159.08 61.26 158.32 62.49 158.32 63.2 C158.32 63.54 158.83 64.15 159.11 64.15 C159.46 64.15 160.8 62.88 159.84 61.98 z" style="fill:#FDA9D3;" />
    <g>
      <path d="M140.26 60.81 C132.9 55.66 129.19 49.32 128.81 47.88 C127.91 44.49 130.27 41.07 129.96 40.45 C129.16 38.91 125.76 45.71 128.59 50.38 C130.89 54.2 133.78 57.28 136.39 59.53 C138.42 60.55 140.43 61.52 142.4 62.43 C141.89 61.99 141.18 61.44 140.26 60.81 z" style="fill:white;" />
      <path d="M121.65 29.74 C121.41 29.74 121.22 29.98 121.19 29.98 C120.31 30.86 122.35 31.84 122.35 30.38 C122.35 30.15 121.9 29.74 121.65 29.74 z" style="fill:white;" />
      <path d="M117.47 33.49 C116.99 33.77 117.27 35.04 117.81 35.04 C118.59 35.03 118.83 32.7 117.47 33.49 z" style="fill:white;" />
      <path d="M122.85 36.31 C122.38 36.78 122.76 38.38 123.68 37.46 C124.69 36.45 123.34 35.81 122.85 36.31 z" style="fill:white;" />
      <path d="M118.38 40.48 C118.27 40.82 118.53 41.41 118.78 41.41 C119.09 41.41 119.54 41.09 119.54 40.86 C119.55 40.27 118.55 39.93 118.38 40.48 z" style="fill:white;" />
    </g>
  </g>
</svg>