<svg overflow="hidden" viewBox="0, 0, 285, 181" id="1b73ca3c-1611-4851-a2b5-6d524f8962ed" xmlns="http://www.w3.org/2000/svg" xmlns:xlink="http://www.w3.org/1999/xlink" xmlns:xml="http://www.w3.org/XML/1998/namespace" version="1.1"><path d="M29.09 107.7 C29.25 105.72 27.21 104.72 27.15 107.4 C27.11 109.48 28.94 109.49 29.09 107.7 z M20.69 96.22 C20.41 97.8 21.68 98.46 22.11 96.91 C22.58 95.27 21.1 94.08 20.69 96.22 z M29.66 92.12 C29.42 89.64 26.87 89.95 27.77 92.75 C28.35 94.53 29.89 94.33 29.66 92.12 z M23.13 81.71 C22.84 82.87 23.64 83.27 24.18 82.78 C26.14 81.07 24.14 77.73 23.13 81.71 z M35.68 75.96 C34.73 75.84 33.68 79.04 34.8 79.1 C35.63 79.44 36.71 76.11 35.68 75.96 z M32.54 70.2 C34.01 67.62 31.71 67.65 31 69.98 C30.69 71 31.67 71.74 32.54 70.2 z M20.3 70 C18.94 71.84 20.65 73.39 21.79 70.87 C22.46 69.32 21.07 68.95 20.3 70 z M26.51 63.86 C25.97 65.62 27.62 66.12 27.86 64.48 C28.6 62.65 27.07 62.08 26.51 63.86 z M27.35 55.75 C25.83 57.01 26.83 57.99 27.74 57.33 C30.05 55.62 28.79 54.55 27.35 55.75 z M36.9 56.7 C38.53 55.9 38.66 53.46 37.05 54.45 C35.08 55.7 35.98 57.56 36.9 56.7 z M38.64 63.08 C38.55 63.49 38.99 64.12 39.83 63.04 C41.42 61.01 39.37 60.2 38.64 63.08 z M45.05 67.78 C42.65 68.7 43.59 70.62 46.4 68.97 C47.77 68.19 47.35 66.92 45.05 67.78 z M42.51 46.04 C42.89 45.3 42.07 44.93 41.63 45.2 C38.59 47.12 41.19 48.72 42.51 46.04 z M46.84 52.01 C47.19 51.27 45.99 50.52 45.15 52.83 C44.84 53.66 45.88 54.09 46.84 52.01 z M50.91 59.42 C52.41 58.4 51.06 57.38 49.62 58.66 C48.84 59.37 49.19 60.6 50.91 59.42 z M44.58 77.39 C45.78 75.7 44.19 73.94 43.64 76.22 C43.29 77.73 44.29 78.25 44.58 77.39 z M38.72 87.45 C38.93 85.2 37.21 85.08 37.06 87.42 C36.9 89.73 38.56 89.43 38.72 87.45 z M45.5 86.24 C44.69 89.1 46.77 89.68 47.5 87.38 C48.39 84.56 46.2 83.79 45.5 86.24 z M47.5 87.38 C47.5 87.39 47.5 87.39 47.49 87.4 C47.55 87.24 47.55 87.22 47.5 87.38 z M38.68 98.63 C38.87 100.63 40.25 100.41 40.36 98.91 C40.6 95.56 38.48 96.35 38.68 98.63 z M53.57 71.53 C52.51 73.18 53.85 74.5 54.96 72.42 C56.04 70.32 54.54 70.03 53.57 71.53 z M59.53 61.65 C60.69 59.55 58.43 59.32 57.74 61.18 C57.21 62.6 58.69 63.18 59.53 61.65 z M58.12 48.67 C58.45 47.99 57.32 47.36 56.44 48.15 C54.33 50.04 57 51 58.12 48.67 z M52.98 41.13 C53.81 39.99 52.9 39.11 51.71 40.3 C50.06 41.91 51.8 42.78 52.98 41.13 z M63.15 39.66 C63.27 38.23 61.79 38.03 61.6 40.16 C61.49 41.49 62.98 41.84 63.15 39.66 z M66.58 51.61 C68.9 50.64 66.85 49.48 65.46 50.27 C64.33 50.91 64.53 52.46 66.58 51.61 z M54.56 80.16 C54.26 82.15 55.89 82.91 55.95 80.44 C55.98 79.14 54.8 78.67 54.56 80.16 z M48.56 95.56 C48.64 98.15 50.6 97.54 50.15 95.5 C49.72 93.6 48.51 93.83 48.56 95.56 z M37.17 106.14 C36.58 103.84 34.74 104.44 35.27 106.41 C35.78 108.31 37.64 107.98 37.17 106.14 z M57.59 89.39 C57.32 87.44 56 87.78 55.95 89.58 C55.87 91.93 57.9 91.52 57.59 89.39 z M27.25 117.64 C26.23 115.58 25.14 116.75 25.76 118.05 C26.86 120.33 28.15 119.42 27.25 117.64 z M38.03 115.74 C37.28 113.31 35.52 113.96 36.29 116.29 C36.88 118.02 38.71 117.97 38.03 115.74 z M45.69 104.06 C45.03 106.11 46.46 106.84 47.29 104.88 C48.3 102.49 46.15 102.6 45.69 104.06 z M58.38 98.6 C58.38 98.6 58.38 98.6 58.38 98.6 C59.11 96.66 57.8 96.45 57.14 97.54 C55.98 99.42 57.73 100.63 58.38 98.6 z M48.76 116.06 C48.9 118.31 50.76 118.05 50.69 115.63 C50.6 112.97 48.61 113.39 48.76 116.06 z M57.63 109.71 C57.63 109.71 57.63 109.7 57.63 109.71 C58.54 107.59 56.85 107.06 56.23 109.01 C55.64 110.82 57.23 111.24 57.63 109.71 z M46.08 122.9 C45.72 120.77 43.59 121.21 44.58 123.29 C45.36 124.95 46.3 124.23 46.08 122.9 z M35.85 127.47 C35.38 125.18 33.32 125.34 33.89 127.7 C34.24 129.15 36.27 129.52 35.85 127.47 z M44.35 134.69 C43.81 136.5 45.55 137.05 46.33 134.71 C47.06 132.48 45.17 131.91 44.35 134.69 z M53.98 124.89 C52.97 127.21 55.17 129.29 55.61 126.25 C55.92 124.15 54.63 123.38 53.98 124.89 z M59.64 119.21 C58.22 121.17 59.96 122.66 61.17 120.1 C62.01 118.31 60.4 118.15 59.64 119.21 z M65.39 108.59 C65.03 110.29 66.36 111.53 67.03 109.18 C67.65 107.02 65.83 106.3 65.39 108.59 z M67.31 95.97 C67.08 93.91 65.56 93.91 65.6 95.67 C65.67 98.32 67.64 98.61 67.31 95.97 z M64.04 84.8 C63.64 83.4 62.5 83.25 62.48 84.54 C62.44 86.47 64.65 86.95 64.04 84.8 z M62.94 72.23 C62.45 75.18 65.47 76.21 65.31 73.17 C65.15 70.4 63.27 70.2 62.94 72.23 z M72.3 80.83 C72.8 82.73 75.15 82.46 73.68 79.99 C72.63 78.25 71.91 79.34 72.3 80.83 z M67.73 61.85 C68.7 59.92 67.37 58.82 66.59 60.42 C65.73 62.16 67.17 62.97 67.73 61.85 z M71.79 69.39 C71.33 71.1 72.9 71.7 73.5 69.74 C74.1 67.71 72.36 67.22 71.79 69.39 z M77.12 58.56 C76.93 57.06 75.34 56.77 75.33 58.62 C75.3 60.41 77.41 60.87 77.12 58.56 z M75.51 48.56 C76.44 46.22 74.73 46.26 74.05 47.95 C73.43 49.51 74.71 50.61 75.51 48.56 z M72.52 40.2 C73.87 37.72 72.03 36.72 70.65 39.07 C69.5 41.05 71.3 42.41 72.52 40.2 z M69.27 34.25 C70.76 33.07 69.24 31.83 67.63 33.05 C65.89 34.4 67.28 35.82 69.27 34.25 z M80.38 39.5 C82.62 37.47 80.66 36.14 78.9 38.37 C77.79 39.8 78.72 41.02 80.38 39.5 z M79.29 31.89 C80.17 30.59 78.58 29.96 77.86 31.54 C77.34 32.67 78.38 33.24 79.29 31.89 z M88.19 48.9 C89.71 47.91 88.73 46.62 86.83 47.67 C85.06 48.65 86 50.32 88.19 48.9 z M84.75 56.06 C85.6 54.26 83.99 53.35 82.89 55.58 C82.07 57.26 83.69 58.29 84.75 56.06 z M88.96 40.5 C90.85 38.44 88.85 37.38 87.19 39.44 C85.88 41.08 87.56 42.03 88.96 40.5 z M89 33.18 C91.35 33.23 91.15 30.8 88.59 31.17 C87.08 31.39 86.96 33.15 89 33.18 z M93.83 26.38 C95.03 25.69 94.22 24.37 92.78 24.82 C90.62 25.5 92.21 27.32 93.83 26.38 z M95.65 43.94 C97.47 42.98 95.98 41.48 94.51 42.53 C93.45 43.28 94.02 44.8 95.65 43.94 z M98.61 34.25 C100.64 32.56 98.36 30.9 97.17 33.07 C96.22 34.26 97.11 35.51 98.61 34.25 z M103.23 26.86 C104.33 25.45 102.66 24.69 101.25 25.78 C99.61 27.04 101.93 28.49 103.23 26.86 z M108.51 31.69 C110.83 29.93 109.17 29.31 107.67 30.12 C105.62 31.26 106.97 32.88 108.51 31.69 z M113.49 23.4 C115.15 21.84 113.24 21.4 112.2 22.21 C110.8 23.28 112.07 24.71 113.49 23.4 z M93.67 52.19 C92.29 53.02 93.12 54.33 94.98 53.74 C97.27 53.03 96.41 50.55 93.67 52.19 z M86.56 65.51 C88.3 64.15 86.48 62.71 84.79 64.27 C83.53 65.45 84.51 67.11 86.56 65.51 z M95.38 61.93 C97.61 61.45 95.43 59.03 93.89 59.74 C92.11 60.54 93.63 62.31 95.38 61.93 z M81.72 74.21 C83.4 72.68 82.04 71.1 80.37 72.7 C78.76 74.23 79.71 76.04 81.72 74.21 z M93.9 73.21 C96.12 72.35 94.12 70.58 92.45 71.4 C90.43 71.62 91.64 74.08 93.9 73.21 z M101.24 66.15 C100.17 67.32 100.81 69.27 102.97 67.31 C104.6 65.82 102.91 64.36 101.24 66.15 z M107.42 56.62 C108.87 55.61 107.46 54.11 105.6 55.33 C104.1 56.31 104.91 58.36 107.42 56.62 z M105.49 46.82 C102.95 47.23 103.25 49.32 105.91 48.84 C108.81 48.3 107.36 46.31 105.49 46.82 z M106.36 39.39 C107.69 37.71 106.17 36.16 104.8 37.79 C102.81 40.15 104.84 41.3 106.36 39.39 z M74.54 90.19 C75.63 91.63 77.13 90.93 76.01 89.3 C74.73 87.41 73.22 88.44 74.54 90.19 z M84.52 80.82 C84.28 78.85 82.49 79.41 82.92 81.23 C83.32 82.94 84.82 83.3 84.52 80.82 z M93.49 80.85 C92.14 78.08 89.82 79.51 91.74 82 C92.93 83.53 94.32 82.56 93.49 80.85 z M86.28 90.88 C86.18 88.98 84.18 89.24 84.58 91.4 C84.9 93.15 86.38 93.17 86.28 90.88 z M75.77 97.65 C74.19 96.15 72.62 97.12 74.24 98.59 C75.85 100.1 76.91 98.74 75.77 97.65 z M75.66 105.42 C74.64 102.92 73.02 103.7 73.6 105.28 C74.35 107.29 76.27 106.91 75.66 105.42 z M85.18 100.15 C84.02 97.53 82.8 98.45 82.86 99.8 C83.03 102.94 86.3 102.59 85.18 100.15 z M53.16 140.56 C51.13 137.64 49.36 139.81 51.62 142.13 C52.89 143.45 54.43 142.36 53.16 140.56 z M56.18 132.69 C55.07 131.1 53.74 132.05 54.46 133.56 C55.31 135.38 57.52 134.61 56.18 132.69 z M63.33 129.09 C65 130.79 65.79 129.58 64.86 127.91 C63.31 125.11 61.66 127.4 63.33 129.09 z M60.21 145.66 C58 144.16 57.14 146.76 59.3 147.69 C61.05 148.99 62.37 147.12 60.21 145.66 z M61.39 138.94 C61.89 140.96 63.95 140.46 63.53 138.65 C63.36 135.98 60.72 136.21 61.39 138.94 z M68.47 146 C66.77 144.69 66.11 146.27 67.74 147.69 C69.23 148.98 70.33 147.39 68.47 146 z M71.48 134.32 C70.18 132.91 68.53 133.83 69.95 135.63 C71.33 137.39 73.82 136.86 71.48 134.32 z M69.98 117.45 C68.33 114.85 66.32 115.73 67.46 117.69 C68.79 120.02 71.39 119.67 69.98 117.45 z M73.1 124.69 C73.16 126.76 75.34 126.93 75.42 124.55 C75.49 121.87 73.02 121.75 73.1 124.69 z M78.18 113.3 C78.95 115.72 81.44 115.12 80.12 112.97 C78.9 110.98 77.75 111.91 78.18 113.3 z M82.67 131.58 C80.92 129.58 79.6 131.14 81.13 133.15 C82.62 135.1 84.42 133.57 82.67 131.58 z M78.14 141.86 C78.1 139.75 76.24 139.91 76.33 142.03 C76.4 144.17 78.18 144.6 78.14 141.86 z M76.71 151.44 C76.25 148.9 74.46 149.37 74.96 151.3 C75.67 153.95 77.04 153.27 76.71 151.44 z M82.57 149.4 C83.23 151.43 85.11 151.27 84.39 148.83 C83.71 146.57 81.75 146.87 82.57 149.4 z M87.72 140.65 C86.26 142.57 87.94 144.32 89.38 142.08 C90.98 139.58 88.99 138.98 87.72 140.65 z M89.77 129.27 C89.15 131.37 91.11 132.88 91.74 130.04 C92.33 127.28 90.51 126.64 89.77 129.27 z M83.66 121.18 C83.54 123.3 85.53 123.87 85.58 121.34 C85.61 118.78 83.74 119.47 83.66 121.18 z M92.19 153.76 C89.71 151.79 88.36 154.04 90.69 155.54 C92.66 156.84 94.31 155.46 92.19 153.76 z M93.94 145.79 C92.72 145.26 92 146.71 93.77 147.79 C95.23 148.68 96.39 146.88 93.94 145.79 z M97.76 135.63 C97.13 133.09 94.51 133.64 95.72 136.13 C96.49 137.67 98.21 137.52 97.76 135.63 z M102.59 144.73 C103.19 143.32 100.3 140.51 99.99 142.93 C99.8 144.54 102 146.11 102.59 144.73 z M101.68 151.17 C101.59 148.54 99.15 149.55 99.74 151.72 C100.1 153.02 101.74 153.47 101.68 151.17 z M107.17 155.31 C105.43 153.64 104.15 155.1 105.45 156.53 C107.1 158.35 108.84 156.93 107.17 155.31 z M107.7 147.36 C107.42 148.29 108.32 150 109.36 149.61 C110.97 149.01 108.4 145 107.7 147.36 z M115.95 153.36 C114.49 151.48 112.46 153.06 114.4 154.4 C115.93 155.47 116.76 154.42 115.95 153.36 z M109.36 139.34 C108.87 136.94 107.19 137.01 107.18 138.67 C107.17 141.46 109.86 141.86 109.36 139.34 z M101.07 128.66 C99.14 127.45 98.03 128.93 100.13 130.13 C101.87 131.13 102.67 129.65 101.07 128.66 z M94.84 118.67 C93.7 116.51 91.94 117.44 93.17 119.45 C94.16 121.05 95.87 120.58 94.84 118.67 z M86.44 108.44 C85.09 111.27 88.06 112.29 88.4 109.64 C88.79 106.66 86.85 106.82 86.44 108.44 z M96.68 108.86 C95.66 106.6 92.99 107.11 94.66 109.86 C95.62 111.45 97.54 110.76 96.68 108.86 z M93.11 96.83 C92.63 94.1 91.04 95.18 91.34 96.64 C91.7 98.41 93.42 98.58 93.11 96.83 z M96.82 88.2 C95.4 86.39 93.67 87.69 94.98 89.22 C96.77 91.27 98.04 89.75 96.82 88.2 z M101.45 97.67 C100.63 95.88 98.8 96.35 99.29 98.33 C100.03 101.29 102.6 100.16 101.45 97.67 z M98.83 78 C99.34 80.03 101.22 79.98 101.25 78.44 C101.34 74.4 98.13 75.23 98.83 78 z M102.07 87.35 C102.51 88.96 104.25 89.51 104.42 88.41 C104.72 86.5 101.27 84.41 102.07 87.35 z M105.26 72.9 C106.5 74.31 107.39 73.27 106.52 71.66 C105.49 69.73 103.88 71.34 105.26 72.9 z M107.03 81.27 C108.31 83.35 110.68 82.52 108.8 80.72 C107.27 79.09 106.17 79.87 107.03 81.27 z M109.05 92.67 C110.07 91.06 108.61 90.31 107.39 91.66 C106.22 92.99 107.53 95.03 109.05 92.67 z M102.86 118.18 C103.75 115.65 101.87 115.54 101.55 116.81 C100.85 119.59 102.34 119.66 102.86 118.18 z M108.23 123.84 C107.86 121.62 105.76 121.68 106.22 124.18 C106.76 127.13 108.61 126.15 108.23 123.84 z M107.51 114.17 C108.02 116.3 109.79 115.71 109.42 113.78 C108.96 111.33 106.97 111.91 107.51 114.17 z M109.64 102.66 C108.7 100.49 104.88 101.11 107.22 103.09 C108.84 104.47 110.2 103.82 109.64 102.66 z M112.51 129.92 C109.76 129.44 109.92 131.23 111.37 131.75 C114.14 132.73 115.06 130.37 112.51 129.92 z M115.59 143.38 C113.97 143.1 112.66 145.25 114.25 145.41 C115.94 145.58 117.55 143.72 115.59 143.38 z M115.09 120.78 C115.09 120.78 115.09 120.78 115.09 120.78 C113.27 120.05 112.59 121.59 114.26 122.45 C116.41 123.57 117.35 121.43 115.09 120.78 z M121.21 126.72 C118.98 125.63 118.17 127.42 119.9 128.29 C122.18 129.44 123.03 127.64 121.21 126.72 z M119.36 135.67 C118.79 133.5 116.48 133.74 117.21 135.61 C118.09 137.9 119.8 137.36 119.36 135.67 z M124.44 140.44 C121.33 139.24 121.42 141.61 123.38 142.42 C125.54 143.3 126.27 141.13 124.44 140.44 z M123.52 150.9 C125.99 151.03 125.29 148.47 122.69 148.77 C120.84 148.99 121.43 150.77 123.52 150.9 z M123 155.5 C121.39 154.54 120.5 156.06 122.71 157.57 C124.16 158.58 125 156.7 123 155.5 z M133.04 155.81 C131 155.29 130.54 156.91 132.27 157.62 C134.41 158.5 136.11 156.61 133.04 155.81 z M132.11 146.21 C130.31 144.68 128.87 147.06 131.51 148.74 C132.85 149.58 134.18 147.95 132.11 146.21 z M130.11 134.9 C128.09 133.11 126.1 135.1 128.29 136.22 C130.68 137.4 131.32 135.98 130.11 134.9 z M136.33 141.53 C136.28 140.39 133.52 139.66 133.14 140.75 C132.51 142.53 136.4 143.09 136.33 141.53 z M139.59 152.87 C137.28 152.26 137.13 154.23 138.76 154.71 C141.56 155.52 141.84 153.46 139.59 152.87 z M147.56 159.21 C145.01 158.42 144.69 160.42 146.84 161.02 C149.16 161.66 150.04 159.98 147.56 159.21 z M148.06 155.26 C150.27 154.85 149.03 153.07 146.93 153.72 C145.78 154.07 146.21 155.6 148.06 155.26 z M140.93 145.78 C140.15 146.81 142.82 147.86 143.39 146.8 C143.99 145.66 141.32 145.26 140.93 145.78 z M136.28 133.91 C135.35 135.19 137.52 137.46 138.3 136.56 C139.01 135.72 137.15 132.7 136.28 133.91 z M128.8 127.71 C130.04 129.13 131.95 128.57 130.51 126.97 C128.87 125.13 127.64 126.4 128.8 127.71 z M126.28 120.37 C126 117.62 123.87 118.56 124.09 120.28 C124.42 122.85 126.46 122.34 126.28 120.37 z M115.24 114.87 C116.54 116.57 118.27 115.71 117.41 114.01 C115.87 111.01 113.84 113.1 115.24 114.87 z M114.29 104.41 C114.13 102.24 111.79 102.67 112.17 104.89 C112.46 106.67 114.5 107.15 114.29 104.41 z M114.05 95.39 C114.75 97.27 116.5 96.25 115.75 94.76 C114.96 93.2 113.42 93.71 114.05 95.39 z M121.39 104.16 C120.76 102.54 119.21 102.81 119.72 104.59 C120.27 106.49 122.25 106.16 121.39 104.16 z M126.03 110.24 C126.14 108.06 124.5 108.59 124.24 110.42 C123.95 112.42 125.94 112.25 126.03 110.24 z M134.07 106.64 C135 104.98 134.26 104.03 133.42 104.5 C131.88 105.36 132.73 109.01 134.07 106.64 z M126.31 95.08 C126.31 95.09 126.31 95.09 126.31 95.1 C126.31 95.11 126.31 95.13 126.31 95.14 C126.3 95.12 126.31 95.1 126.31 95.08 z M124.27 95.03 C124.15 97.21 126.18 97.84 126.3 95.1 C126.38 92.78 124.4 92.92 124.27 95.03 z M117.66 88.79 C117.97 90.79 119.83 90.89 119.78 88.65 C119.73 86.24 117.28 86.43 117.66 88.79 z M112.99 84.25 C112.43 85.8 113.74 87.17 114.4 85.05 C114.97 83.14 113.38 83.17 112.99 84.25 z M114.02 76.22 C114.02 76.22 114.02 76.22 114.02 76.22 C114.34 74.19 112.22 73.53 112.15 75.93 C112.1 78.01 114.07 78.58 114.02 76.22 z M109.73 66.84 C111.66 67.1 110.19 60.8 108.7 63.97 C108.33 64.77 108.66 66.7 109.73 66.84 z M123.38 23.06 C125.22 22.91 124.99 21.43 123.34 21.15 C123.34 21.15 123.33 21.15 123.33 21.15 C120.92 20.75 120.27 23.3 123.38 23.06 z M118.94 29.42 C120.89 28.97 120.63 27.05 118.24 27.77 C116.31 28.34 116.67 29.95 118.94 29.42 z M116.76 35.46 C115.17 36.76 116.42 37.86 118.35 37.05 C121.05 35.93 118.62 33.94 116.76 35.46 z M117.55 43.92 C115.03 42.53 113.74 44.39 115.47 45.62 C118.52 47.81 119.89 45.23 117.55 43.92 z M115.22 51.05 C113.52 52.2 114.76 54.21 117.14 52.73 C119.18 51.49 116.95 49.86 115.22 51.05 z M120.8 60.39 C123.6 59.27 122.1 57.2 120.02 58.3 C118.31 59.21 118.79 61.2 120.8 60.39 z M126.6 40.28 C128.45 38.02 126.57 36.62 124.97 38.74 C123.34 40.9 125.43 41.71 126.6 40.28 z M123.47 49.73 C122.96 52.12 124.79 53.21 125.4 50.53 C125.99 47.93 123.93 47.63 123.47 49.73 z M115.83 66.93 C116.47 69.4 118.48 69.7 118.34 67.67 C118.12 64.68 115.23 64.66 115.83 66.93 z M120.13 77.31 C120.77 74.59 118.76 74.45 118.21 76.12 C117.41 78.57 119.53 79.88 120.13 77.31 z M124.2 69.05 C123.94 71.5 126.37 72.22 126.39 69.64 C126.41 67.51 124.42 66.99 124.2 69.05 z M125.14 82.39 C123.9 84.72 126.15 85.61 127.71 83.12 C129.12 80.92 126.56 79.7 125.14 82.39 z M133.4 75.19 C135.86 73.58 133.2 71.81 131.25 73.5 C129.51 74.98 131.23 76.6 133.4 75.19 z M133.83 65.46 C134.38 63.67 132.43 62.77 131.75 65.81 C131.35 67.56 132.91 68.44 133.83 65.46 z M129.78 55.57 C128.5 57.25 130.03 58.57 131.62 56.85 C133.38 54.95 131.35 53.53 129.78 55.57 z M131.36 45.87 C131.42 43.39 129.5 42.91 129.2 44.99 C128.83 47.37 131.29 49.19 131.36 45.87 z M128.04 30.66 C129.14 28.83 128.27 26.58 126.83 28.89 C125.62 30.8 127.05 32.3 128.04 30.66 z M132.47 90.07 C133.21 86.75 130.49 86.14 130.17 88.79 C129.88 91.39 131.86 92.74 132.47 90.07 z M139.51 80.5 C138.87 78.09 136.96 78.14 137.06 79.77 C137.18 82.12 140.18 83.06 139.51 80.5 z M137.58 96.57 C138.44 98.76 140.55 97.82 139.83 95.52 C139.01 92.87 136.51 93.79 137.58 96.57 z M143.69 86.15 C144.59 83.27 142.72 83.37 142.09 84.88 C140.81 87.97 143.01 88.32 143.69 86.15 z M146.39 74.27 C145.8 71.4 143.74 72.52 144.27 75.03 C144.74 77.21 146.9 76.76 146.39 74.27 z M141.26 67.6 C141.89 65.49 139.65 64.75 139.15 67.38 C138.8 69.1 140.37 70.54 141.26 67.6 z M139.34 57.14 C138.72 54.94 136.06 55.27 137.04 58.12 C138.03 60.93 140.1 59.77 139.34 57.14 z M138.37 46.63 C138.8 44.51 136.91 44.59 136.45 46.51 C136.01 48.35 137.85 49.16 138.37 46.63 z M133.48 35.71 C133.35 37.77 135.42 38.47 135.61 36.3 C135.78 34.05 133.64 32.94 133.48 35.71 z M134.94 25.55 C133.53 27.46 134.82 28.56 136.09 27.23 C137.99 25.24 136.27 23.46 134.94 25.55 z M134.7 21.74 C137.44 20.75 135.55 19.35 133.62 20.02 C131.58 20.72 132.56 22.49 134.7 21.74 z M145.31 22.7 C146.99 21.96 146.25 20.22 143.95 21.04 C141.57 21.87 142.04 24.15 145.31 22.7 z M142.87 31.67 C145.72 31.28 144.36 28.89 141.88 29.58 C140.03 30.1 140.12 32.03 142.87 31.67 z M144.14 40.17 C146.72 39.29 146.48 37.33 144.65 37.64 C142.12 38.06 141.65 41.04 144.14 40.17 z M152.9 31.59 C149.63 31.61 150.37 34.77 153.34 33.84 C154.96 33.33 155.12 31.59 152.9 31.59 z M154.05 26.03 C156.16 25.03 154.68 23.38 152.57 24.44 C150.49 25.5 152.01 27.02 154.05 26.03 z M161.56 22.33 C163.43 22.45 163.73 20.74 161.23 20.12 C158.81 19.53 158.36 22.13 161.56 22.33 z M160.19 27.57 C158.15 28.14 158.74 29.86 160.87 29.05 C162.5 28.42 162.2 26.99 160.19 27.57 z M143.26 48.85 C142.23 50.12 143.26 51.05 144.54 49.88 C146.64 47.96 145.02 46.68 143.26 48.85 z M151.48 41.08 C150.63 42.97 152.28 43.63 153.33 41.61 C154.31 39.74 152.59 38.65 151.48 41.08 z M146.31 58.08 C147.34 55.81 145.76 55.23 144.46 57.4 C143.32 59.35 145.29 60.39 146.31 58.08 z M154.05 50.26 C155.5 48.92 153.77 47.42 152.09 49.62 C151.18 50.78 152.43 51.79 154.05 50.26 z M151.57 64.35 C153.27 62.11 151.78 60.97 150.09 62.92 C148.09 65.17 149.99 66.4 151.57 64.35 z M154.62 67.16 C152.78 68.82 153.92 70.16 155.75 68.68 C157.67 67.16 156.47 65.5 154.62 67.16 z M158.19 73.56 C158.96 71.91 157.16 71.15 155.98 73.57 C155.01 75.59 156.58 76.99 158.19 73.56 z M153.83 81.8 C155.35 80.62 153.5 79.17 152.15 80.81 C150.71 81.69 151.78 83.35 153.83 81.8 z M147.42 91.57 C148.3 89.71 146.87 89.13 146.14 90.5 C145.21 92.32 146.59 93.31 147.42 91.57 z M133.07 116.15 C132.48 117.86 133.82 117.96 134.71 116.39 C135.78 114.48 133.76 114.2 133.07 116.15 z M145.14 106.9 C146.85 104.18 144.67 103.53 143.85 105.26 C142.7 107.63 144.23 108.35 145.14 106.9 z M141.03 115.2 C141.41 113 139.48 112.55 139.14 114.62 C138.67 117.65 140.65 117.38 141.03 115.2 z M154.29 96.04 C156.01 93.69 154.27 92.5 153.36 94.2 C152.12 96.55 153.36 97.31 154.29 96.04 z M162.91 87.27 C164.5 85.01 162.4 84.84 161.68 86 C160.12 88.48 161.73 88.94 162.91 87.27 z M163.92 81.04 C165.9 79.59 163.66 78.29 162.4 79.44 C160.74 80.96 161.68 82.66 163.92 81.04 z M173 71.16 C173.49 69.15 171.64 68.64 170.98 70.96 C170.26 73.47 172.23 74.3 173 71.16 z M166.93 66.61 C168.36 63.91 166.21 63.57 165.53 65.52 C164.84 67.53 166.13 68.14 166.93 66.61 z M178.88 62.06 C179.23 60.05 177.4 60.16 177.13 61.87 C176.87 63.64 178.47 64.43 178.88 62.06 z M178.17 56.74 C180.23 55.03 179.17 52.81 177.06 54.95 C175.55 56.49 176.4 58.21 178.17 56.74 z M162.29 60.76 C162.9 58.39 160.85 58.24 160.39 60.23 C159.86 62.47 161.64 63.37 162.29 60.76 z M155.95 53.86 C155.51 55.8 157.17 56.77 157.94 53.71 C158.41 51.83 156.56 51.13 155.95 53.86 z M165.69 51.63 C165.27 54.46 167.91 54.89 167.84 51.5 C167.8 49.36 166 49.46 165.69 51.63 z M163.11 42.35 C163.73 40.16 161.65 39.72 160.78 41.69 C159.69 44.22 162.13 45.75 163.11 42.35 z M168.95 42.75 C169.17 45.57 171.71 45.02 171.28 43.06 C170.79 40.91 168.79 40.68 168.95 42.75 z M176.9 49.27 C178.2 47 176.26 46.42 175.3 48.16 C174.34 49.88 175.67 51.39 176.9 49.27 z M186.68 44.76 C187.47 42.75 185.56 42.35 184.82 44.4 C184 46.6 185.7 47.23 186.68 44.76 z M177.39 39.61 C177.74 42.29 179.91 41.76 179.58 39.42 C179.2 36.63 177.11 37.34 177.39 39.61 z M167.52 35.04 C169.54 33.26 167.19 31.98 165.2 33.79 C163.47 35.37 165.13 37.15 167.52 35.04 z M176.68 32.25 C178.21 30.02 176.14 28.53 174.44 31.29 C173.08 33.48 175.08 34.59 176.68 32.25 z M171.7 26.44 C173.09 25.13 171.88 23.12 170.12 24.51 C168.27 25.96 169.74 28.26 171.7 26.44 z M177.57 23.58 C178.18 25.64 180.87 25.86 180.14 23.94 C179.13 21.34 177.03 21.8 177.57 23.58 z M184.64 30.99 C184.64 28.78 182.4 28.54 182.21 30.64 C182 33.16 184.65 34 184.64 30.99 z M187.22 26.15 C188.41 28.24 190.78 27.54 189.63 25.36 C188.4 23 185.87 23.78 187.22 26.15 z M190.9 35.62 C190.99 32.52 187.73 32.69 188.71 35.92 C189.25 37.72 190.86 37.5 190.9 35.62 z M196.03 28.22 C198.66 30.36 199.46 28.08 198.16 27.29 C196.47 25.6 194.63 27.08 196.03 28.22 z M196.05 35.04 C196.98 37.15 198.97 36.41 198.2 34.87 C197.49 32.43 195.2 33.13 196.05 35.04 z M195.47 41.45 C196.56 39.47 194.69 38.94 193.55 41.15 C192.54 43.13 194.27 43.64 195.47 41.45 z M192.28 52.65 C193.05 51.4 191.54 50.55 190.58 52.27 C189.52 54.16 190.9 54.91 192.28 52.65 z M200.52 45.9 C198.49 47.42 200.35 48.68 202.33 46.93 C203.87 45.57 202.16 44.4 200.52 45.9 z M207.07 36.42 C207.86 34 205.74 33.28 204.97 36.14 C204.49 37.99 206.12 39.27 207.07 36.42 z M207.25 31.31 C209.22 30.58 207.95 28.83 205.58 29.55 C203.5 30.18 204.36 32.36 207.25 31.31 z M216.26 34.95 C217.13 33.95 214.33 31.62 213.3 33.16 C212.31 34.62 215.26 36.1 216.26 34.95 z M214.95 39.84 C212.94 41.25 215.7 42.8 217.95 40.24 C218.57 39.53 217.62 37.9 214.95 39.84 z M210.48 47.09 C211.67 44.98 209.74 43.3 208.8 45.44 C207.9 47.51 209.34 49.07 210.48 47.09 z M220.16 47.55 C220.56 45.47 218.77 43.53 218.11 46.12 C217.41 48.87 219.66 50.17 220.16 47.55 z M213.16 53.03 C215.39 51.37 214.58 48.99 212.96 49.7 C211.1 50.52 210.75 54.8 213.16 53.03 z M193.64 56.67 C192.1 58.92 193.59 59.69 195.06 57.75 C196.5 55.83 194.53 55.36 193.64 56.67 z M181.62 66.57 C180.17 68.63 181.21 69.89 182.53 68.16 C184.11 66.05 182.48 65.37 181.62 66.57 z M174.28 85.62 C174.37 87.66 176.21 88.19 176.6 85.83 C177.07 82.98 174.16 82.9 174.28 85.62 z M187.18 76.35 C187.84 74.14 185.73 74.23 185.09 75.96 C184.14 78.53 185.99 80.29 187.18 76.35 z M191.8 67.29 C191.98 69.35 193.86 70.21 194.17 68.06 C194.67 64.56 191.58 64.55 191.8 67.29 z M204.79 64.25 C206.07 61.2 203.87 60.53 203.03 62.75 C202.1 65.24 203.88 66.41 204.79 64.25 z M199.53 73.5 C198.07 75.47 199.59 76.47 200.55 75.24 C202.45 72.8 200.87 71.73 199.53 73.5 z M194.48 80.51 C195.22 78.81 193.01 77.93 192.23 80.94 C191.78 82.65 193.29 83.38 194.48 80.51 z M217.7 62.24 C219.19 59.85 217.39 58.44 216.18 60.41 C214.63 62.93 216.22 64.58 217.7 62.24 z M226.91 53.37 C226.18 51.83 222.9 53.27 223.25 54.52 C223.65 55.99 227.53 54.71 226.91 53.37 z M214.51 71.59 C215.48 69.59 213.74 69.04 212.66 70.84 C211.54 72.73 213.18 74.32 214.51 71.59 z M209.75 74.14 C211.47 72.94 209.8 71.76 208.43 72.86 C206.82 74.17 207.87 75.45 209.75 74.14 z M200.36 89.43 C200.88 87.83 199.44 87.45 198.75 89.13 C197.82 91.41 199.67 91.56 200.36 89.43 z M210.81 84.68 C212.02 82.39 209.83 81.64 208.98 83.85 C208.14 86.03 209.62 86.99 210.81 84.68 z M197.2 98.15 C196.33 100.43 198.19 101.67 198.86 99.54 C199.69 97.04 197.83 96.51 197.2 98.15 z M196.57 104.46 C197.5 103.55 195.76 101.89 194.02 103.75 C192.42 105.47 194.71 106.24 196.57 104.46 z M185.88 86.38 C187.02 84.48 185.92 83.09 184.9 84.13 C183.28 85.79 184.62 88.45 185.88 86.38 z M190.99 95.44 C190.27 97.59 192.04 98.2 192.7 96.2 C192.7 96.19 192.71 96.18 192.71 96.17 C193.72 93.81 191.79 93.03 190.99 95.44 z M179.81 93.18 C180.11 94.96 181.98 94.82 181.71 92.4 C181.4 89.7 179.43 90.92 179.81 93.18 z M189.45 91.24 C190.19 89.2 188.46 88.96 187.33 91.29 C186.55 92.87 188.43 94.08 189.45 91.24 z M174.73 93.74 C175.33 91.64 172.56 91.04 171.46 94.52 C170.49 97.54 174.04 96.22 174.73 93.74 z M179.72 102.3 C180.85 99.51 178.56 98.8 177.83 100.85 C176.78 103.78 178.84 104.45 179.72 102.3 z M172.11 103.85 C172.8 101.8 170.97 100.71 169.78 103.43 C168.59 106.18 171.18 106.65 172.11 103.85 z M164.11 98.35 C162.91 101.03 165.23 102.25 166.02 99.57 C166.6 97.64 164.72 97.03 164.11 98.35 z M163.14 109.87 C164.18 107.13 162.18 105.96 161.03 108.48 C159.61 111.58 162.19 112.36 163.14 109.87 z M144.94 116.1 C143.85 118.38 145.42 120.52 146.58 118.58 C148.04 116.16 146.21 113.48 144.94 116.1 z M140.34 125.04 C140.34 125.05 140.33 125.05 140.33 125.06 C138.35 127.2 141.51 128.22 142.84 124.98 C143.41 123.58 141.68 123.28 140.34 125.04 z M135.35 123.72 C136.84 121.57 135.1 120.66 134.1 122.29 C132.97 124.11 134.15 125.51 135.35 123.72 z M149.43 123.17 C147.9 125.84 149.9 127.34 151 125.11 C152.1 122.84 150.42 121.45 149.43 123.17 z M143.77 134.17 C142.97 137.27 145.18 137.77 145.73 135.36 C146.29 132.86 144.27 131.88 143.77 134.17 z M156.18 112.38 C157.1 110.85 154.9 110.3 154.12 111.98 C153.27 113.83 155.14 114.07 156.18 112.38 z M158.1 119.52 C158.4 117.77 157.2 117.11 156.71 119.23 C156.32 120.95 157.75 121.31 158.1 119.52 z M166.16 117.03 C166.61 115.11 165.4 114.53 164.88 116.23 C164.33 118.11 165.8 118.57 166.16 117.03 z M174.06 109.94 C174.3 108.75 172.31 108.34 171.36 109.95 C170.13 112.01 173.66 111.98 174.06 109.94 z M163.4 123.2 C162.32 125.23 164.01 126.05 164.89 124.19 C165.65 122.62 164.48 121.19 163.4 123.2 z M172.23 117.88 C172.53 116.29 171.39 116.3 170.97 117.39 C170.19 119.33 171.96 119.31 172.23 117.88 z M177.48 112.19 C176.42 113.65 177.26 114.5 178.09 113.72 C179.3 112.61 178.35 111.04 177.48 112.19 z M185.56 105.84 C185.84 104.34 184.85 104.31 184.31 105.64 C183.59 107.42 185.11 108.07 185.56 105.84 z M180.64 117.95 C181.95 116.97 181 116 179.71 116.65 C177.81 117.61 178.8 119.32 180.64 117.95 z M170.75 122.65 C170.01 124.62 171.49 125.44 171.93 123.95 C172.57 121.82 171.15 121.63 170.75 122.65 z M153.66 129.44 C152.28 130.53 153.05 132.28 154.86 130.6 C155.77 129.73 155.09 128.31 153.66 129.44 z M148.76 140.69 C148.48 142.67 150.08 143.55 150.36 142.01 C150.75 139.91 149.05 138.55 148.76 140.69 z M156.44 136.35 C155.48 138.65 157.43 139.45 157.87 137.4 C158.23 135.71 156.86 135.33 156.44 136.35 z M153.64 148.02 C154.34 146.28 152.72 145.43 152.34 146.91 C151.91 148.6 153.23 149.03 153.64 148.02 z M161.99 131.85 C162.02 133.35 163.41 133.56 163.45 132.2 C163.49 130.94 161.97 130.28 161.99 131.85 z M167.15 129.02 C166.24 130.63 168.28 130.41 168.72 129.11 C169.08 128.05 167.96 127.6 167.15 129.02 z M160.35 140.48 C159.5 141.66 160.35 142.47 160.98 141.47 C161.81 140.16 160.86 139.76 160.35 140.48 z M152.46 153.87 C151.7 155.36 152.17 156.99 153.28 155.77 C154.51 154.42 153.16 152.49 152.46 153.87 z M159.14 149.56 C159.16 149.54 159.17 149.52 159.19 149.5 C160.31 148.33 159.4 147.62 158.49 148.3 C157.31 149.17 158.1 150.63 159.14 149.56 z M157.78 153.72 C156.84 155.19 158.24 156.26 158.67 155.02 C159.26 153.37 158.18 153.09 157.78 153.72 z M156.03 159.08 C155.36 157.43 153.89 158.19 154.8 159.76 C155.51 160.95 156.51 160.27 156.03 159.08 z M164.34 146.41 C162.86 146.52 164.26 150.2 164.89 148.29 C165.13 147.53 164.97 146.37 164.34 146.41 z M166.2 137.4 C166.02 138.71 166.93 138.73 167.36 137.3 C167.74 135.98 166.46 135.91 166.2 137.4 z M175.85 133.99 C175.05 135.04 176.17 136.14 177.32 134.51 C177.99 133.56 176.7 132.87 175.85 133.99 z M180.69 122.79 C181.34 121.67 180.19 121.06 179.68 122.36 C179.21 123.55 180.01 123.94 180.69 122.79 z M174.26 128.22 C174.45 127.04 173.11 126.55 172.78 127.72 C172.31 129.35 173.97 129.96 174.26 128.22 z M182.47 128.14 C182.13 129.27 183.59 129.53 183.88 128.12 C184.08 127.17 182.96 126.52 182.47 128.14 z M170.74 143.29 C171.59 141.56 170 140.67 169.56 142.18 C169.03 143.89 170.35 144.08 170.74 143.29 z M189 117.75 C189.41 116.91 188.45 116.26 187.67 117.54 C186.74 119.05 188.24 119.32 189 117.75 z M189.69 110.69 C189.95 109.62 188.61 108.88 187.96 111.03 C187.43 112.78 189.31 112.24 189.69 110.69 z M170.98 147 C171.72 146.16 171.1 145.6 170.38 146.28 C169.52 147.09 170.06 148.09 170.98 147 z M177.53 140.77 C178.27 139.19 176.71 139.05 176.31 140.39 C175.63 141.79 176.85 142.22 177.53 140.77 z M184.35 133.97 C185.06 133.15 184.48 132.28 183.19 133.14 C181.85 134.03 183.34 135.12 184.35 133.97 z M191.04 125.46 C191.7 124.16 190.64 123.76 190.02 124.69 C189.06 126.11 190.36 126.77 191.04 125.46 z M221.54 66.73 C220.31 68.14 221.76 69.01 223.28 68.18 C225.86 66.79 223.34 64.68 221.54 66.73 z M226.41 59.38 C225.67 61.13 226.95 62.14 227.75 60.81 C228.8 59.06 227.06 57.87 226.41 59.38 z M234.67 52.17 C236.25 50.45 234.54 48.43 233.36 50.65 C232.55 52.2 233.62 53.32 234.67 52.17 z M232.97 57.67 C231.52 58.82 232.59 61.77 233.82 60.18 C234.85 58.81 233.86 56.98 232.97 57.67 z M222.59 72.27 C221.47 73.8 223.04 74 223.99 72.52 C224.64 71.48 223.58 70.9 222.59 72.27 z M234.54 64.47 C235.59 63.22 234.33 62.68 233.61 63.65 C232.81 64.75 233.56 65.63 234.54 64.47 z M242.27 60.4 C243.32 58.89 242.08 58.1 240.98 59.84 C240.27 60.97 241.07 62.1 242.27 60.4 z M231.67 72.78 C232.38 71.42 231.35 70.9 230.67 72.33 C230.22 73.26 230.99 74.04 231.67 72.78 z M238.84 70.9 C240.18 68.76 238.66 67.82 237.61 69.46 C236.31 71.53 237.52 72.97 238.84 70.9 z M244.62 65.37 C245.96 64.6 245.56 63.43 244.03 63.9 C242.38 64.39 242.7 66.45 244.62 65.37 z M231.68 78.72 C230.28 79.89 231.51 80.86 232.88 79.94 C234.74 78.72 233.13 77.51 231.68 78.72 z M236.62 77.64 C235.85 78.7 236.32 79.59 237.39 78.53 C238.53 77.39 237.42 76.53 236.62 77.64 z M227.94 83.27 C227.33 84.73 228.48 85.36 229.13 83.85 C229.74 82.39 228.49 81.97 227.94 83.27 z M222.99 81.72 C222.29 82.81 223.45 83.01 224.21 81.9 C224.98 80.75 223.88 80.3 222.99 81.72 z M210.63 92.63 C210.99 91.82 210.05 90.96 209.47 92.64 C209.14 93.53 210.05 94.01 210.63 92.63 z M221.2 90.04 C222.12 89.02 220.97 88.25 219.98 89.43 C218.58 91.11 220.49 90.82 221.2 90.04 z M216.57 99.55 C217.26 98.11 215.85 97.36 215.33 99.33 C215.09 100.19 216.01 100.71 216.57 99.55 z M214.02 102.8 C214.78 102.13 214.81 100.82 213.81 101.1 C212.59 101.44 212.71 103.9 214.02 102.8 z M207.17 107.49 C208.01 105.4 206.21 104.97 205.47 106.91 C204.62 109.15 206.51 109.14 207.17 107.49 z M200.17 113.64 C199.04 114.91 199.84 116.49 201.21 114.86 C202.35 113.52 201.13 112.55 200.17 113.64 z M204.34 117.54 C204.65 115.97 203.28 115.88 202.67 117.89 C202.33 119.07 204 119.28 204.34 117.54 z M197 123.55 C196.18 124.29 196.58 125.4 197.79 124.45 C199.05 123.5 198.12 122.55 197 123.55 z M202.72 123.84 C203.84 122.61 202.67 121.33 201.87 122.5 C200.89 123.94 201.98 124.66 202.72 123.84 z M248.1 70.88 C249.38 69.27 247.27 68.58 246.41 70.53 C245.9 71.68 247.05 72.18 248.1 70.88 z M250.61 74.66 C251.51 73.14 250.44 72.14 249.73 73.26 C248.89 74.6 250.01 75.68 250.61 74.66 z M245.47 78.03 C246.53 76.32 245.25 76.02 244.5 76.94 C243.34 78.35 244.59 79.46 245.47 78.03 z M248.85 79.83 C248.2 81.51 249.55 81.71 249.83 80.72 C250.29 79.1 249.28 78.71 248.85 79.83 z M243.29 83.15 C242.64 84.64 244.06 84.99 244.75 83.5 C245.43 82.06 244.02 81.51 243.29 83.15 z M239.16 84.84 C239.86 83.67 239.08 83.16 238.51 83.74 C237.36 84.98 238.55 86.14 239.16 84.84 z M242.32 77.73 C243.17 76.9 242.24 76.32 241.42 77.18 C240.63 78.03 241.16 78.87 242.32 77.73 z M228.2 95.42 C228.77 94.14 227.99 93.71 227.48 94.54 C226.67 95.82 227.64 96.67 228.2 95.42 z M223.37 97.34 C224.01 97.35 225.17 95.64 224.01 95.76 C223.31 95.83 222.47 97.32 223.37 97.34 z M236.4 92.31 C236.94 90.81 235.67 90.62 235.21 91.88 C234.69 93.29 235.92 93.62 236.4 92.31 z M243.14 91.43 C244.01 90.12 243.03 89.41 241.61 90.82 C240.4 92 241.93 93.28 243.14 91.43 z M248.08 88.21 C247.35 89.69 248.44 90.47 249.25 89.17 C250.04 87.91 248.68 86.97 248.08 88.21 z M255.16 85.55 C255.5 83.74 254.23 83.48 253.9 84.75 C253.48 86.35 254.81 87.25 255.16 85.55 z M160.94 157.62 C160.7 158.46 161.6 159.1 162.45 157.85 C163.59 156.2 161.51 155.65 160.94 157.62 z M166.86 159.28 C166.08 160.54 168.15 161.07 169.12 159.86 C170.11 158.64 167.73 157.88 166.86 159.28 z M169.33 152.48 C168.46 153.67 170.3 153.98 171 152.76 C171.52 151.86 170.2 151.29 169.33 152.48 z M174.97 155.43 C174 156.84 175.23 157.36 175.86 156.6 C177.07 155.16 175.77 154.25 174.97 155.43 z M179.61 157.55 C178.48 158.59 179.87 159.96 180.93 158.06 C181.42 157.17 180.36 156.84 179.61 157.55 z M177.19 147.25 C176.35 149.11 177.66 149.44 178.53 147.88 C179.2 146.66 177.94 145.63 177.19 147.25 z M181.92 151.19 C180.67 151.86 181.02 153.55 182.91 152.28 C184.13 151.46 183.31 150.44 181.92 151.19 z M186.38 155.98 C185.54 157.74 187.31 157.63 187.95 156.42 C188.63 155.14 187.13 154.44 186.38 155.98 z M186.89 144.79 C185.87 145.18 186.06 147.93 187.33 146.94 C188.06 146.37 187.85 144.43 186.89 144.79 z M185.01 140.94 C185.89 139.53 184.76 138.99 183.97 140.21 C183.08 141.58 184.17 142.28 185.01 140.94 z M190.39 135.19 C189.64 136.9 191.51 137.53 191.58 135.43 C191.74 134.38 190.94 133.93 190.39 135.19 z M188.91 150.62 C188.75 151.52 189.79 152.51 190.23 151.09 C190.8 149.23 189.18 149.14 188.91 150.62 z M191.35 145.77 C191.4 146.49 192.37 147.06 192.74 145.18 C193.06 143.67 191.24 144.25 191.35 145.77 z M193.92 139.13 C192.86 140.12 193.94 141.22 195.09 139.94 C195.96 138.98 194.99 138.11 193.92 139.13 z M196.68 144.74 C196.36 145.8 197.6 146.32 197.86 144.71 C198 143.74 197.03 143.58 196.68 144.74 z M194.53 151.43 C194.2 150.36 193.04 151.14 193.44 152.15 C193.86 153.25 194.96 152.92 194.53 151.43 z M197.98 155.14 C198.04 156.43 199.67 155.65 199.59 154.3 C199.54 153.38 197.92 153.82 197.98 155.14 z M199.16 150.31 C199.58 150.91 200.46 150.39 200.44 149.07 C200.4 147.74 198.25 149.03 199.16 150.31 z M203.21 152.4 C203.1 153.7 204.23 153.87 204.6 153.1 C205.63 150.95 203.33 150.87 203.21 152.4 z M202.86 145.1 C202.48 143.7 200.87 144.26 201.56 146 C201.99 147.06 203.4 147.08 202.86 145.1 z M200.28 139.54 C199.6 138.36 198.11 139.02 198.92 140.14 C200.06 141.68 200.88 140.57 200.28 139.54 z M198.46 134.29 C198.37 132.6 196.94 132.7 196.94 133.86 C196.93 134.87 198.51 135.31 198.46 134.29 z M198.74 128.69 C199.16 127.24 197.9 126.88 197.43 127.86 C196.93 128.94 198.27 130.34 198.74 128.69 z M203.35 133.68 C203.12 132.52 201.98 132.35 201.96 134.04 C201.93 135.62 203.73 135.51 203.35 133.68 z M205.06 128.43 C204.55 126.99 203.72 127.44 203.6 128.04 C203.39 129.15 205.53 129.88 205.06 128.43 z M205.93 139.78 C205.88 138.48 204.39 137.55 204.4 139.07 C204.41 140.11 205.96 140.73 205.93 139.78 z M207.41 144.73 C206.49 145.24 207.06 147.42 207.93 146.07 C208.42 145.31 208.09 144.35 207.41 144.73 z M207.92 149.24 C207.21 149.76 208.39 151.21 209.08 150.73 C209.77 150.24 208.36 148.92 207.92 149.24 z M212.43 152.42 C212.98 153.23 214.61 152.18 214.53 151.11 C214.45 149.93 211.76 151.42 212.43 152.42 z M212.38 145.15 C211.81 146.1 212.23 147.34 212.98 147.08 C214.28 146.63 213.65 143.07 212.38 145.15 z M211.67 139.33 C211.1 137.72 209.6 138.33 210.25 139.69 C210.82 140.91 212.11 140.57 211.67 139.33 z M207.02 132.39 C206.45 133.74 208.96 135.21 208.75 133.36 C208.63 132.25 207.37 131.56 207.02 132.39 z M208.15 127.15 C208.13 128.74 209.65 128.75 209.62 127.3 C209.59 125.54 208.18 125.63 208.15 127.15 z M208.18 121.07 C207.76 120.04 206.63 119.86 206.66 120.71 C206.72 122.63 208.69 122.3 208.18 121.07 z M209.15 115.09 C209.74 116.17 211.03 115.58 210.33 113.94 C209.79 112.67 208.44 113.77 209.15 115.09 z M212.73 132.17 C211.76 133.43 213.09 134.37 213.91 132.8 C214.48 131.7 213.41 131.28 212.73 132.17 z M215.91 140.05 C215.67 140.99 216.92 141.51 217.42 139.85 C217.78 138.58 216.27 138.63 215.91 140.05 z M218.85 146.1 C218.79 147.5 219.95 147.83 220.25 146.51 C220.6 145.04 218.93 144.63 218.85 146.1 z M223.19 146.77 C221.49 148.28 223.43 148.8 224.22 147.81 C225.09 146.7 224.09 145.97 223.19 146.77 z M224.69 139.46 C224.65 138.7 223.42 138.52 222.9 139.92 C222.12 142.08 224.78 141.03 224.69 139.46 z M215.29 119.71 C215.57 118.76 214.06 118.26 213.78 119.95 C213.36 121.23 214.66 121.75 215.29 119.71 z M216.04 125.97 C216.88 124.35 215.27 123.97 214.87 125.43 C214.63 126.31 215.43 127.17 216.04 125.97 z M218.99 129.88 C218.06 131.09 219.35 132.84 219.97 131.15 C220.47 129.84 219.51 129.21 218.99 129.88 z M225.2 132.62 C226.14 131.15 224.54 130.79 223.65 131.82 C222.63 133 224.13 134.3 225.2 132.62 z M228.83 136.2 C228.13 138.05 229.85 138.15 230.28 136.44 C230.53 135.41 229.37 134.76 228.83 136.2 z M229.85 141.57 C228.51 142.34 229.16 143.66 230.68 142.85 C232.03 142.09 231.03 140.9 229.85 141.57 z M235.11 140.92 C234.48 142.12 235.99 142.71 236.58 141.15 C236.96 140.14 235.83 139.56 235.11 140.92 z M239.02 141.05 C238.81 142.24 241.16 141.56 241.41 140.52 C241.69 139.33 239.28 139.51 239.02 141.05 z M234.75 136.02 C233.55 137.07 234.53 137.6 235.64 137.13 C236.93 136.62 236.17 134.77 234.75 136.02 z M230.36 130.32 C229.49 131.82 230.59 132.43 231.57 131.18 C232.87 129.49 231.14 128.98 230.36 130.32 z M225.2 125.83 C225.57 124.58 224.3 124.03 223.87 125.56 C223.45 127.03 224.65 127.73 225.2 125.83 z M220.61 121.46 C219.56 123.06 221.52 122.98 222.18 122.1 C223.23 120.65 221.43 120.23 220.61 121.46 z M218.7 115.66 C217.68 116.98 218.62 118.85 219.62 117.06 C220.53 115.45 219.43 114.72 218.7 115.66 z M216.19 111.8 C216.77 110.24 215.26 109.95 214.7 111.56 C214.17 113.07 215.68 113.18 216.19 111.8 z M219.23 110.49 C218.77 111.88 220.08 112.17 220.73 110.52 C221.34 108.99 219.81 108.71 219.23 110.49 z M219.31 105.95 C219.68 104.38 218.28 104.05 218.08 105.72 C217.93 107.04 219.04 107.09 219.31 105.95 z M224.44 114.52 C223.89 113.28 222.73 114.14 223.56 115.34 C224.24 116.32 225.05 115.83 224.44 114.52 z M226.4 121.3 C227.45 122.26 228.18 121.44 227.27 120.18 C226.28 118.84 225.01 120.02 226.4 121.3 z M232.03 123.67 C232.23 121.54 230.46 121.83 230.54 123.95 C230.58 124.99 231.9 125.36 232.03 123.67 z M230.69 114.83 C229.85 113.95 228.91 115.12 230.28 116.45 C231.12 117.25 231.87 116.08 230.69 114.83 z M226.2 109.1 C225.6 110.67 227.24 112.12 227.52 110.15 C227.75 108.67 226.65 107.94 226.2 109.1 z M222.96 105.04 C223.44 106.2 224.52 105.58 223.87 104.03 C223.41 102.97 222.21 103.3 222.96 105.04 z M235.91 128.98 C236.51 127.45 235.04 126.32 234.6 128.02 C234.3 129.16 235.4 130.24 235.91 128.98 z M240.54 132.97 C240.69 131.53 238.67 132.1 238.94 133.86 C239.09 134.86 240.34 134.97 240.54 132.97 z M240.56 126.04 C240.55 124.4 238.65 125.07 239.24 126.78 C239.58 127.74 240.56 127.28 240.56 126.04 z M237.51 120.08 C237.78 118.71 236.22 118.38 236.01 119.92 C235.78 121.71 237.62 121.8 237.51 120.08 z M234.71 112.73 C234.59 114.07 235.75 114.64 236.1 113.38 C236.47 112.01 234.84 111.08 234.71 112.73 z M231.31 107.61 C231.45 109.46 232.83 108.78 232.59 107.27 C232.39 106.03 231.23 106.42 231.31 107.61 z M244.75 133.07 C243.37 134.5 244.68 135.33 245.48 134.62 C246.98 133.31 245.91 131.87 244.75 133.07 z M249.52 133.19 C248.48 134.75 249.98 135.28 250.61 134.06 C251.46 132.48 250.28 132.05 249.52 133.19 z M254.28 130.95 C253.25 131.77 253.82 132.86 255.01 132.16 C256.47 131.3 255.32 130.1 254.28 130.95 z M227.95 46.25 C229.06 47.63 229.75 45.37 228.77 44.54 C227.98 43.65 226.99 45.07 227.95 46.25 z M222.8 41.13 C223.87 40.4 222.25 37.44 221.18 38.58 C220.42 39.38 221.62 41.95 222.8 41.13 z M229.12 99.34 C227.86 100.99 229.98 102.55 230.57 100.58 C231.08 98.84 229.68 98.61 229.12 99.34 z M236.51 97.63 C236.35 96.25 235.05 96.46 235.13 98.06 C235.17 99.06 236.76 99.91 236.51 97.63 z M238.18 103.61 C237.05 103.2 236.36 105.51 237.45 105.83 C238.46 105.92 238.98 103.91 238.18 103.61 z M240.36 98.09 C240.16 100.66 242.63 100.65 242.2 98 C241.9 96.28 240.47 96.67 240.36 98.09 z M240.6 110.26 C241.1 111.53 242.38 110.95 241.78 109.51 C241.34 108.42 239.86 108.38 240.6 110.26 z M240.81 116.3 C241.09 117.9 242.71 118.12 242.65 116.92 C242.58 115.72 240.75 114.85 240.81 116.3 z M246.59 124.75 C246.99 123.11 245.4 122.28 245.14 123.93 C244.93 125.27 246.26 126.12 246.59 124.75 z M251.49 125.01 C251.52 126.27 252.69 126.37 252.93 124.89 C253.19 123.27 251.39 123.01 251.49 125.01 z M248.63 116.32 C248.19 117.85 249.56 119.07 249.99 117.18 C250.35 115.66 249.03 114.98 248.63 116.32 z M248.27 110.01 C248.33 108.08 246.32 107.13 246.5 109.16 C246.66 111.06 248.23 111.59 248.27 110.01 z M246.53 103.17 C247.18 101.39 245.13 101.1 244.48 102.96 C243.84 104.81 245.94 104.73 246.53 103.17 z M254.74 117.97 C253.59 119.25 254.39 120.6 255.7 119.76 C257.78 118.44 256.2 116.34 254.74 117.97 z M259.12 123.06 C258.75 124.25 259.81 125.01 260.56 123.46 C261.26 122.06 259.67 121.3 259.12 123.06 z M263.63 119.73 C263.08 121.39 264.49 122.08 265.09 120.35 C265.64 118.7 264.12 118.25 263.63 119.73 z M262.37 114.59 C262.19 112.2 260.38 112.86 260.4 114.31 C260.41 116.2 262.52 116.58 262.37 114.59 z M262.84 107.74 C262.28 109.18 264.18 110.81 264.53 109.35 C264.85 107.97 263.3 106.53 262.84 107.74 z M254.75 110.24 C254.38 111.57 255.27 112.03 255.97 111.26 C257.78 109.26 255.31 108.09 254.75 110.24 z M259.9 106.58 C260.28 105.56 259.37 103.89 258.57 104.75 C257.6 105.79 259.33 108.13 259.9 106.58 z M260.88 99.04 C260.08 99.83 261.53 102.44 262.36 101.12 C262.94 99.98 261.77 98.15 260.88 99.04 z M252.01 102.93 C251.88 104.2 253.17 105.03 253.74 103.38 C254.47 101.2 252.24 100.65 252.01 102.93 z M257.41 98.18 C257.86 96.54 256.5 95.67 255.93 96.69 C255.06 98.23 256.93 99.95 257.41 98.18 z M247.59 96.48 C247.93 97.95 249.34 98.15 249.38 96.68 C249.43 94.49 247.19 94.75 247.59 96.48 z M254.13 92.27 C254.92 89.93 252.98 90.49 252.8 91.16 C252.21 93.44 253.76 93.28 254.13 92.27 z M259.69 91.22 C259.8 89.23 257.99 88.87 257.7 90.39 C257.33 92.29 259.58 93.14 259.69 91.22 z M254.72 79.41 C255.03 78.53 254.27 77.13 253.54 77.67 C252.46 78.46 254.16 80.99 254.72 79.41 z M202.84 52.33 C202.03 53.65 203.21 55.76 204.12 54.56 C205.17 53.19 203.95 50.49 202.84 52.33 z" style="fill:#69733D;" /></svg>