<svg overflow="hidden" viewBox="0, 0, 256, 242.3" id="a80ae77c-a986-407f-89e7-4c79e1f82690" xmlns="http://www.w3.org/2000/svg" xmlns:xlink="http://www.w3.org/1999/xlink" xmlns:xml="http://www.w3.org/XML/1998/namespace" version="1.1"><g><linearGradient x1="-34.2164" y1="-380.35" x2="49.7782" y2="-430.997" gradientUnits="userSpaceOnUse" gradientTransform="matrix(0.8781, 0.4785, -0.4785, 0.8781, -164.309, 571.205)" id="SVGID_1_"><stop offset="0%" stop-color="#5B42B2" /><stop offset="44.62%" stop-color="#A557B6" /><stop offset="100%" stop-color="#FD70BA" /></linearGradient><linearGradient x1="119.906" y1="19.8587" x2="185.718" y2="19.8587" gradientUnits="userSpaceOnUse" id="SVGID_00000060011668605394310360000000828762462211478974_"><stop offset="0%" stop-color="#FD70BA" /><stop offset="55.38%" stop-color="#A557B6" /><stop offset="100%" stop-color="#5B42B2" /></linearGradient><linearGradient x1="197.183" y1="1524.66" x2="535.925" y2="1524.66" gradientUnits="userSpaceOnUse" gradientTransform="matrix(-0.8401, -0.5424, 0.5424, -0.8401, -320.979, 1635.86)" id="SVGID_00000171711858125140420180000004323842489580019863_"><stop offset="0%" stop-color="#CC49BA" /><stop offset="26.41%" stop-color="#AC38AF" /><stop offset="84.04%" stop-color="#5C0D94" /><stop offset="99.47%" stop-color="#45018C" /></linearGradient><linearGradient x1="627.167" y1="251.383" x2="596.596" y2="146.107" gradientUnits="userSpaceOnUse" gradientTransform="matrix(-0.9662, -0.2577, 0.2577, -0.9662, 625.981, 471.611)" id="SVGID_00000047747744713123574890000018190424666786565035_"><stop offset="0%" stop-color="#FA7DCF" /><stop offset="100%" stop-color="#AB42B2" /></linearGradient><path d="M72.59 217.63 C72.74 224.46 59.95 230.29 49.47 230.53 C38.99 230.77 30.4 226.42 30.22 218.58 C30.04 210.48 38.44 206.02 48.91 205.78 C59.39 205.55 72.44 210.8 72.59 217.63 z" style="fill:url(#SVGID_1_);" /><circle cx="158.79" cy="19.86" r="9.86" style="fill:url(#SVGID_00000060011668605394310360000000828762462211478974_);" /><path d="M162.75 200.71 C161.03 199.31 158.1 196.82 153.46 194.71 C145.49 191.09 139.28 189.57 128.17 191.54 C99.19 196.69 59.48 190.62 54.67 152.64 C51.36 126.53 69.66 102.1 74.39 96.07 C81.65 86.81 161.16 14.85 206.47 54.21 C221.61 67.37 224.93 94.26 227.65 119.9 C230.04 142.51 242.87 169.23 244.73 179.42 C251.7 217.64 228.4 229.06 217.5 231.42 C188.98 237.61 172.73 208.86 162.75 200.71 z" style="fill:url(#SVGID_00000171711858125140420180000004323842489580019863_);" /><g><path d="M121.38 106.32 L82.93 144.77 C82.76 145.29 82.59 145.82 82.43 146.35 L122.95 105.83 C122.43 105.98 121.9 106.15 121.38 106.32 z" style="fill:#CF5BE8;" /><path d="M112.43 110.11 L86.72 135.82 C86.35 136.53 85.99 137.24 85.65 137.97 L114.57 109.05 C113.85 109.38 113.14 109.74 112.43 110.11 z" style="fill:#CF5BE8;" /><path d="M161.82 107.15 L83.76 185.21 C83.86 185.47 83.96 185.73 84.06 185.99 L162.6 107.45 C162.34 107.34 162.08 107.25 161.82 107.15 z" style="fill:#CF5BE8;" /><path d="M157.97 105.84 L82.45 181.36 C82.53 181.64 82.62 181.91 82.7 182.18 L158.79 106.09 C158.52 106.01 158.24 105.93 157.97 105.84 z" style="fill:#CF5BE8;" /><path d="M165.47 108.66 L85.28 188.85 C85.39 189.1 85.51 189.34 85.62 189.59 L166.21 109 C165.96 108.89 165.71 108.77 165.47 108.66 z" style="fill:#CF5BE8;" /><path d="M140.43 103.26 C140.26 103.26 140.08 103.27 139.91 103.27 L79.88 163.3 C79.88 163.47 79.87 163.65 79.87 163.82 C79.87 164.01 79.88 164.19 79.88 164.38 L140.99 103.27 C140.8 103.26 140.62 103.26 140.43 103.26 z" style="fill:#CF5BE8;" /><path d="M153.89 104.76 L81.37 177.28 C81.44 177.57 81.51 177.86 81.58 178.15 L154.76 104.97 C154.47 104.9 154.18 104.83 153.89 104.76 z" style="fill:#CF5BE8;" /><path d="M149.55 103.94 L80.55 172.94 C80.6 173.25 80.65 173.56 80.7 173.87 L150.47 104.1 C150.17 104.04 149.86 103.99 149.55 103.94 z" style="fill:#CF5BE8;" /><path d="M144.91 103.42 L80.03 168.3 C80.05 168.63 80.08 168.96 80.11 169.3 L145.9 103.51 C145.57 103.48 145.24 103.45 144.91 103.42 z" style="fill:#CF5BE8;" /><path d="M134.47 103.55 L80.17 157.85 C80.13 158.24 80.1 158.64 80.06 159.03 L135.65 103.44 C135.25 103.48 134.86 103.51 134.47 103.55 z" style="fill:#CF5BE8;" /><path d="M128.4 104.46 L81.06 151.8 C80.97 152.24 80.88 152.69 80.81 153.13 L129.74 104.2 C129.29 104.28 128.85 104.37 128.4 104.46 z" style="fill:#CF5BE8;" /><path d="M149.52 223.7 L200.31 172.91 C200.37 172.49 200.43 172.08 200.49 171.66 L148.27 223.88 C148.69 223.82 149.1 223.76 149.52 223.7 z" style="fill:#CF5BE8;" /><path d="M175.5 213.2 L175.5 213.19 L189.8 198.89 L189.81 198.89 z" style="fill:#CF5BE8;" /><path d="M143.78 224.29 L200.9 167.17 C200.92 166.8 200.94 166.42 200.95 166.04 L142.65 224.34 C143.03 224.32 143.4 224.31 143.78 224.29 z" style="fill:#CF5BE8;" /><path d="M156.03 222.35 L198.95 179.43 C199.08 178.95 199.2 178.47 199.31 177.99 L154.58 222.72 C155.07 222.6 155.56 222.47 156.03 222.35 z" style="fill:#CF5BE8;" /><path d="M163.86 219.68 L196.29 187.25 C196.54 186.66 196.78 186.06 197.01 185.45 L162.07 220.39 C162.67 220.17 163.27 219.93 163.86 219.68 z" style="fill:#CF5BE8;" /><path d="M199.78 151.73 L128.34 223.17 C128.64 223.23 128.94 223.29 129.25 223.34 L199.96 152.63 C199.9 152.33 199.84 152.03 199.78 151.73 z" style="fill:#CF5BE8;" /><path d="M200.51 156.16 L132.77 223.9 C133.09 223.94 133.42 223.98 133.74 224.01 L200.62 157.13 C200.58 156.8 200.55 156.48 200.51 156.16 z" style="fill:#CF5BE8;" /><path d="M137.52 224.31 C137.87 224.33 138.21 224.34 138.56 224.35 L200.96 161.95 C200.95 161.6 200.94 161.26 200.92 160.91 L137.52 224.31 z" style="fill:#CF5BE8;" /><path d="M175.5 213.2 L189.8 198.9 C190.54 197.86 191.25 196.79 191.93 195.69 L172.3 215.32 C173.39 214.65 174.46 213.94 175.5 213.2 z" style="fill:#CF5BE8;" /><path d="M198.78 147.57 L124.18 222.17 C124.46 222.25 124.75 222.33 125.03 222.4 L199.01 148.42 C198.94 148.13 198.86 147.85 198.78 147.57 z" style="fill:#CF5BE8;" /><path d="M183.66 121.42 L98.02 207.06 C98.2 207.24 98.38 207.42 98.57 207.59 L184.19 121.97 C184.02 121.78 183.84 121.6 183.66 121.42 z" style="fill:#CF5BE8;" /><path d="M181.03 118.89 L95.5 204.42 C95.67 204.61 95.84 204.79 96.02 204.98 L181.6 119.4 C181.41 119.23 181.22 119.06 181.03 118.89 z" style="fill:#CF5BE8;" /><path d="M186.14 124.1 L100.7 209.54 C100.89 209.71 101.09 209.87 101.28 210.04 L186.63 124.69 C186.47 124.48 186.31 124.29 186.14 124.1 z" style="fill:#CF5BE8;" /><path d="M172.19 112.25 L88.86 195.58 C89 195.8 89.13 196.02 89.27 196.24 L172.85 112.66 C172.64 112.53 172.42 112.39 172.19 112.25 z" style="fill:#CF5BE8;" /><path d="M168.92 110.37 L86.98 192.31 C87.11 192.54 87.23 192.78 87.36 193.01 L169.62 110.75 C169.38 110.62 169.15 110.49 168.92 110.37 z" style="fill:#CF5BE8;" /><rect x="73.44" y="156.5" width="119.34" height="0" style="fill:#CF5BE8;" /><path d="M178.24 116.52 L93.12 201.64 C93.28 201.84 93.44 202.04 93.6 202.24 L178.84 117 C178.64 116.84 178.44 116.68 178.24 116.52 z" style="fill:#CF5BE8;" /><rect x="73.85" y="157.04" width="119.59" height="0" transform="matrix(0.7071, -0.7071, 0.7071, 0.7071, -71.8976, 140.498)" style="fill:#CF5BE8;" /><path d="M90.91 198.69 C91.06 198.9 91.21 199.11 91.36 199.32 L175.92 114.76 C175.71 114.61 175.5 114.46 175.29 114.31 L90.91 198.69 z" style="fill:#CF5BE8;" /><path d="M197.54 143.65 L120.25 220.94 C120.52 221.03 120.78 221.13 121.05 221.22 L197.82 144.45 C197.73 144.18 197.64 143.91 197.54 143.65 z" style="fill:#CF5BE8;" /><path d="M196.1 139.94 L116.55 219.49 C116.8 219.6 117.06 219.7 117.31 219.81 L196.42 140.7 C196.31 140.44 196.2 140.19 196.1 139.94 z" style="fill:#CF5BE8;" /><path d="M194.45 136.42 L113.03 217.84 C113.27 217.96 113.51 218.08 113.75 218.2 L194.81 137.14 C194.69 136.9 194.57 136.66 194.45 136.42 z" style="fill:#CF5BE8;" /><path d="M188.46 126.94 L103.54 211.85 C103.74 212.01 103.95 212.16 104.15 212.32 L188.92 127.55 C188.78 127.34 188.62 127.14 188.46 126.94 z" style="fill:#CF5BE8;" /><path d="M190.63 129.93 L106.54 214.02 C106.76 214.17 106.97 214.31 107.19 214.45 L191.06 130.58 C190.91 130.36 190.77 130.14 190.63 129.93 z" style="fill:#CF5BE8;" /><path d="M192.62 133.09 L109.7 216.01 C109.93 216.14 110.15 216.28 110.38 216.41 L193.02 133.77 C192.89 133.54 192.76 133.32 192.62 133.09 z" style="fill:#CF5BE8;" /></g><g><path d="M126.12 39.13 L100.12 65.13 C100.23 65.38 100.34 65.63 100.45 65.88 L126.91 39.42 C126.65 39.31 126.38 39.22 126.12 39.13 z" style="fill:#CF5BE8;" /><path d="M121.91 38.18 L98.93 61.15 C98.98 61.45 99.05 61.75 99.11 62.04 L122.85 38.3 C122.54 38.26 122.23 38.22 121.91 38.18 z" style="fill:#CF5BE8;" /><path d="M129.69 40.71 L101.93 68.47 C102.07 68.68 102.22 68.89 102.38 69.1 L130.37 41.11 C130.15 40.98 129.92 40.84 129.69 40.71 z" style="fill:#CF5BE8;" /><rect x="105.03" y="38.68" width="0" height="12.11" transform="matrix(0.8944, -0.4472, 0.4472, 0.8944, -8.9172, 51.6955)" style="fill:#CF5BE8;" /><path d="M116.77 38.16 L98.69 56.24 C98.66 56.62 98.64 56.99 98.63 57.38 L117.95 38.06 C117.55 38.08 117.16 38.11 116.77 38.16 z" style="fill:#CF5BE8;" /><path d="M109.31 40.45 L100.75 49.01 C100.42 49.65 100.12 50.3 99.87 50.97 L111.32 39.52 C110.63 39.8 109.96 40.11 109.31 40.45 z" style="fill:#CF5BE8;" /><path d="M139.06 63.38 C139.21 62.9 139.34 62.41 139.45 61.91 L124.49 76.87 C125.01 76.74 125.51 76.59 126.02 76.42 L139.06 63.38 z" style="fill:#CF5BE8;" /><path d="M139.85 56.35 L118.71 77.49 C118.9 77.49 119.08 77.5 119.27 77.5 C119.44 77.5 119.62 77.49 119.79 77.49 L139.9 57.38 C139.89 57.03 139.88 56.69 139.85 56.35 z" style="fill:#CF5BE8;" /><path d="M139.02 52.02 L114.15 76.89 C114.44 76.96 114.74 77.03 115.03 77.09 L139.27 52.85 C139.19 52.57 139.11 52.29 139.02 52.02 z" style="fill:#CF5BE8;" /><path d="M132.75 42.81 L104.26 71.3 C104.44 71.48 104.62 71.66 104.8 71.83 L133.33 43.3 C133.14 43.14 132.95 42.97 132.75 42.81 z" style="fill:#CF5BE8;" /><path d="M135.34 45.38 L107.04 73.68 C107.25 73.83 107.46 73.98 107.68 74.12 L135.82 45.98 C135.67 45.77 135.51 45.57 135.34 45.38 z" style="fill:#CF5BE8;" /><path d="M137.46 48.42 L110.32 75.56 C110.57 75.67 110.82 75.78 111.07 75.89 L137.83 49.13 C137.71 48.89 137.59 48.65 137.46 48.42 z" style="fill:#CF5BE8;" /></g><path d="M40.1 157.4 C59.55 158.62 73.04 133.71 102.87 145.22 C115.38 150.05 134.19 162.77 147.14 153.92 C188.85 125.42 135.49 68.82 89.13 65.25 C65.34 63.42 45.93 71.21 39.86 75.15 C31.41 80.63 17.33 91.93 12.28 108.72 C7.97 123.05 6.31 155.28 40.1 157.4 z" style="fill:url(#SVGID_00000047747744713123574890000018190424666786565035_);" /></g></svg>