<svg overflow="hidden" viewBox="0, 0, 256, 174.59" id="2833510a-b2e8-4bc0-8b7f-251a3a03e660" xmlns="http://www.w3.org/2000/svg" xmlns:xlink="http://www.w3.org/1999/xlink" xmlns:xml="http://www.w3.org/XML/1998/namespace" version="1.1"><defs /><path d="M190.95 99.75 C186.25 100.72 183.01 105.08 183.54 109.85 C183.66 110.94 183.72 112.04 183.72 113.16 C183.72 136.27 157.72 155.01 101.62 155.01 C45.52 155.01 19.52 136.26 19.52 113.15 C19.52 95.84 34.11 80.98 65 74.62 C69.7 73.65 72.94 69.29 72.41 64.52 C72.29 63.43 72.23 62.32 72.23 61.21 C72.23 38.1 98.23 19.36 154.33 19.36 C210.43 19.36 236.43 38.1 236.43 61.21 C236.43 78.52 221.84 93.38 190.94 99.75 z" style="fill:white;" /><g><path d="M100.47 163.07 C100.47 162.43 100.98 161.92 101.62 161.92 L101.68 161.92 C101.68 161.92 101.72 161.92 101.75 161.92 L101.75 161.92 C102.39 161.92 102.9 162.43 102.9 163.07 L102.9 163.07 C102.9 163.71 102.38 164.22 101.75 164.22 L101.62 164.22 C100.98 164.22 100.47 163.71 100.47 163.07 z M89.16 163.91 C88.53 163.88 88.04 163.34 88.07 162.7 L88.07 162.7 C88.1 162.07 88.64 161.58 89.28 161.61 L89.28 161.61 C89.91 161.64 90.4 162.18 90.37 162.82 L90.37 162.82 C90.34 163.43 89.83 163.91 89.22 163.91 L89.16 163.91 z M112.99 162.82 C112.96 162.19 113.44 161.65 114.08 161.61 L114.08 161.61 C114.71 161.58 115.25 162.06 115.29 162.7 L115.29 162.7 C115.32 163.33 114.84 163.87 114.2 163.91 L114.2 163.91 C114.2 163.91 114.16 163.91 114.14 163.91 L114.14 163.91 C113.53 163.91 113.02 163.43 112.99 162.82 z M76.73 162.89 C76.1 162.82 75.65 162.25 75.72 161.62 L75.72 161.62 C75.79 160.99 76.36 160.54 76.99 160.61 L76.99 160.61 C77.62 160.68 78.07 161.25 78 161.88 L78 161.88 C77.93 162.47 77.44 162.9 76.86 162.9 L76.86 162.9 C76.86 162.9 76.77 162.9 76.73 162.9 z M125.35 161.87 C125.28 161.24 125.73 160.67 126.36 160.6 L126.36 160.6 C126.99 160.53 127.56 160.98 127.63 161.61 L127.63 161.61 C127.7 162.24 127.25 162.81 126.62 162.88 L126.62 162.88 C126.62 162.88 126.53 162.88 126.49 162.88 L126.49 162.88 C125.92 162.88 125.42 162.45 125.35 161.86 z M64.39 160.99 C63.77 160.87 63.36 160.26 63.48 159.64 L63.48 159.64 C63.6 159.02 64.21 158.61 64.83 158.73 L64.83 158.73 C65.45 158.85 65.86 159.46 65.74 160.08 L65.74 160.08 C65.63 160.63 65.15 161.01 64.61 161.01 L64.61 161.01 C64.53 161.01 64.46 161.01 64.39 160.99 z M137.62 160.06 C137.5 159.44 137.9 158.83 138.52 158.71 L138.52 158.71 C139.14 158.59 139.75 158.99 139.87 159.61 L139.87 159.61 C139.99 160.23 139.59 160.84 138.97 160.96 L138.97 160.96 C138.89 160.97 138.82 160.98 138.75 160.98 L138.75 160.98 C138.21 160.98 137.73 160.6 137.62 160.05 z M52.24 157.98 L52.24 157.98 C51.63 157.79 51.29 157.15 51.48 156.54 L51.48 156.54 C51.67 155.93 52.31 155.59 52.92 155.78 L52.92 155.78 C53.53 155.96 53.87 156.61 53.68 157.21 L53.68 157.21 C53.53 157.71 53.07 158.02 52.58 158.02 L52.58 158.02 C52.47 158.02 52.36 158 52.25 157.97 z M149.67 157.18 C149.48 156.57 149.82 155.93 150.43 155.75 L150.43 155.75 C151.04 155.56 151.68 155.9 151.87 156.51 L151.87 156.51 C152.06 157.12 151.72 157.76 151.11 157.95 L151.11 157.95 C151 157.98 150.88 158 150.77 158 L150.77 158 C150.28 158 149.82 157.68 149.67 157.19 z M40.49 153.56 L40.49 153.56 C39.91 153.29 39.66 152.61 39.92 152.03 L39.92 152.03 C40.19 151.45 40.87 151.2 41.45 151.47 L41.45 151.47 C42.03 151.73 42.28 152.42 42.01 152.99 L42.01 152.99 C41.82 153.41 41.4 153.66 40.97 153.66 L40.97 153.66 C40.81 153.66 40.65 153.63 40.49 153.56 z M161.31 152.94 C161.04 152.36 161.3 151.68 161.87 151.42 L161.87 151.42 C162.45 151.15 163.13 151.41 163.39 151.98 L163.39 151.98 C163.66 152.56 163.4 153.24 162.83 153.5 L162.83 153.5 C162.67 153.57 162.51 153.61 162.35 153.61 L162.35 153.61 C161.92 153.61 161.5 153.36 161.31 152.94 z M29.54 147.34 L29.54 147.34 C29.02 146.97 28.89 146.26 29.26 145.74 L29.26 145.74 C29.63 145.22 30.34 145.09 30.86 145.46 L30.86 145.46 C31.38 145.83 31.5 146.54 31.14 147.06 L31.14 147.06 C30.92 147.38 30.56 147.55 30.2 147.55 L30.2 147.55 C29.97 147.55 29.74 147.48 29.54 147.34 z M172.17 146.99 C171.8 146.47 171.93 145.76 172.45 145.39 L172.45 145.39 C172.97 145.02 173.68 145.15 174.05 145.67 L174.05 145.67 C174.42 146.19 174.29 146.9 173.77 147.27 L173.77 147.27 C173.57 147.41 173.34 147.48 173.11 147.48 L173.11 147.48 C172.75 147.48 172.39 147.31 172.17 146.99 z M20.11 138.9 L20.11 138.9 C19.7 138.42 19.75 137.69 20.23 137.28 L20.23 137.28 C20.71 136.86 21.44 136.92 21.85 137.4 L21.85 137.4 C22.27 137.88 22.21 138.61 21.73 139.02 L21.73 139.02 C21.51 139.21 21.25 139.3 20.98 139.3 L20.98 139.3 C20.66 139.3 20.34 139.16 20.11 138.9 z M181.55 138.93 C181.07 138.52 181.01 137.79 181.43 137.31 L181.43 137.31 C181.84 136.83 182.57 136.77 183.05 137.19 L183.05 137.19 C183.53 137.6 183.58 138.33 183.17 138.81 L183.17 138.81 C182.94 139.07 182.62 139.21 182.3 139.21 L182.3 139.21 C182.03 139.21 181.77 139.12 181.55 138.93 z M13.35 128.16 C13.1 127.58 13.37 126.9 13.96 126.65 L13.96 126.65 C14.54 126.4 15.22 126.67 15.47 127.26 L15.47 127.26 C15.72 127.84 15.45 128.52 14.86 128.77 L14.86 128.77 C14.71 128.83 14.56 128.86 14.41 128.86 L14.41 128.86 C13.97 128.86 13.54 128.6 13.35 128.16 z M188.42 128.66 C187.84 128.41 187.56 127.74 187.81 127.15 L187.81 127.15 C188.06 126.57 188.73 126.29 189.32 126.54 L189.32 126.54 C189.9 126.79 190.18 127.46 189.93 128.05 L189.93 128.05 C189.75 128.49 189.32 128.75 188.87 128.75 L188.87 128.75 C188.72 128.75 188.57 128.72 188.42 128.66 z M10.39 115.79 C10.35 115.16 10.83 114.61 11.46 114.57 L11.46 114.57 C12.09 114.53 12.64 115 12.68 115.64 L12.68 115.64 C12.72 116.27 12.24 116.82 11.61 116.86 L11.61 116.86 C11.61 116.86 11.56 116.86 11.53 116.86 L11.53 116.86 C10.93 116.86 10.42 116.4 10.39 115.79 z M191.64 116.74 C191.01 116.7 190.53 116.15 190.57 115.52 L190.57 115.52 C190.61 114.89 191.16 114.41 191.79 114.45 L191.79 114.45 C192.42 114.49 192.9 115.04 192.86 115.67 L192.86 115.67 C192.82 116.28 192.32 116.75 191.72 116.75 L191.72 116.75 C191.72 116.75 191.67 116.75 191.64 116.75 z M195.31 107.06 C195.16 106.44 195.54 105.82 196.16 105.68 L196.16 105.68 C196.78 105.53 197.4 105.92 197.54 106.53 L197.54 106.53 C197.69 107.15 197.31 107.77 196.69 107.92 L196.69 107.92 C196.6 107.94 196.51 107.95 196.42 107.95 L196.42 107.95 C195.9 107.95 195.43 107.59 195.3 107.06 z M12.43 104.53 C11.82 104.36 11.45 103.74 11.62 103.12 L11.62 103.12 C11.78 102.51 12.41 102.14 13.03 102.31 L13.03 102.31 C13.64 102.48 14.01 103.11 13.84 103.72 L13.84 103.72 C13.7 104.23 13.24 104.57 12.73 104.57 L12.73 104.57 C12.63 104.57 12.53 104.56 12.43 104.53 z M207.23 103.68 C207.01 103.08 207.32 102.42 207.92 102.21 L207.92 102.21 C208.52 101.99 209.18 102.3 209.39 102.9 L209.39 102.9 C209.61 103.5 209.3 104.15 208.7 104.37 L208.7 104.37 C208.57 104.42 208.44 104.44 208.31 104.44 L208.31 104.44 C207.84 104.44 207.4 104.15 207.23 103.68 z M218.62 98.81 C218.32 98.25 218.52 97.55 219.08 97.25 L219.08 97.25 C219.64 96.95 220.34 97.15 220.64 97.71 L220.64 97.71 C220.94 98.27 220.74 98.97 220.18 99.27 L220.18 99.27 C220 99.37 219.82 99.41 219.63 99.41 L219.63 99.41 C219.22 99.41 218.83 99.19 218.62 98.81 z M17.23 93.16 C16.7 92.81 16.56 92.09 16.91 91.57 L16.91 91.57 C17.26 91.04 17.98 90.9 18.5 91.26 L18.5 91.26 C19.03 91.61 19.17 92.33 18.82 92.85 L18.82 92.85 C18.6 93.18 18.23 93.36 17.86 93.36 L17.86 93.36 C17.64 93.36 17.42 93.3 17.22 93.17 z M228.99 92.04 C228.58 91.56 228.64 90.83 229.12 90.42 L229.12 90.42 C229.6 90.01 230.33 90.07 230.74 90.55 L230.74 90.55 C231.15 91.03 231.1 91.76 230.61 92.17 L230.61 92.17 C230.39 92.35 230.13 92.44 229.86 92.44 L229.86 92.44 C229.53 92.44 229.21 92.3 228.98 92.04 z M25.27 83.77 C24.86 83.29 24.92 82.56 25.4 82.15 L25.4 82.15 C25.88 81.74 26.61 81.8 27.02 82.28 L27.02 82.28 C27.43 82.76 27.37 83.49 26.89 83.9 L26.89 83.9 C26.67 84.08 26.41 84.17 26.15 84.17 L26.15 84.17 C25.83 84.17 25.5 84.03 25.27 83.77 z M237.49 83.06 C236.96 82.71 236.82 81.99 237.17 81.47 L237.17 81.47 C237.52 80.94 238.24 80.8 238.76 81.15 L238.76 81.15 C239.29 81.5 239.43 82.22 239.08 82.74 L239.08 82.74 C238.86 83.07 238.49 83.25 238.12 83.25 L238.12 83.25 C237.9 83.25 237.68 83.19 237.48 83.06 z M35.38 76.63 C35.08 76.07 35.28 75.37 35.84 75.07 L35.84 75.07 C36.4 74.77 37.09 74.97 37.4 75.53 L37.4 75.53 C37.7 76.09 37.5 76.79 36.94 77.09 L36.94 77.09 C36.76 77.18 36.58 77.23 36.39 77.23 L36.39 77.23 C35.98 77.23 35.59 77.01 35.38 76.63 z M46.63 71.44 C46.41 70.84 46.72 70.18 47.32 69.97 L47.32 69.97 C47.92 69.75 48.58 70.07 48.79 70.66 L48.79 70.66 C49.01 71.26 48.69 71.92 48.1 72.13 L48.1 72.13 C47.97 72.18 47.84 72.2 47.71 72.2 L47.71 72.2 C47.24 72.2 46.8 71.91 46.63 71.44 z M242.96 71.99 C242.35 71.82 241.98 71.2 242.15 70.58 L242.15 70.58 C242.31 69.97 242.94 69.6 243.56 69.77 L243.56 69.77 C244.17 69.93 244.54 70.56 244.37 71.18 L244.37 71.18 C244.23 71.69 243.77 72.03 243.26 72.03 L243.26 72.03 C243.16 72.03 243.06 72.02 242.96 71.99 z M58.49 67.82 C58.34 67.2 58.73 66.58 59.34 66.44 L59.34 66.44 C59.96 66.29 60.58 66.68 60.72 67.29 L60.72 67.29 C60.87 67.91 60.48 68.53 59.87 68.67 L59.87 68.67 C59.78 68.69 59.69 68.7 59.6 68.7 L59.6 68.7 C59.08 68.7 58.61 68.34 58.48 67.82 z M64.18 59.85 C63.55 59.81 63.07 59.26 63.11 58.63 L63.11 58.63 C63.15 58 63.7 57.52 64.33 57.56 L64.33 57.56 C64.96 57.6 65.44 58.15 65.4 58.78 L65.4 58.78 C65.36 59.39 64.85 59.85 64.25 59.85 L64.25 59.85 C64.25 59.85 64.2 59.85 64.17 59.85 z M243.28 58.67 C243.24 58.04 243.71 57.49 244.35 57.45 L244.35 57.45 C244.98 57.41 245.53 57.88 245.57 58.52 L245.57 58.52 C245.61 59.15 245.14 59.7 244.5 59.74 L244.5 59.74 C244.5 59.74 244.45 59.74 244.42 59.74 L244.42 59.74 C243.82 59.74 243.32 59.27 243.28 58.67 z M66.66 47.76 C66.08 47.51 65.81 46.84 66.05 46.25 L66.05 46.25 C66.3 45.67 66.97 45.39 67.56 45.64 L67.56 45.64 C68.14 45.89 68.42 46.56 68.17 47.15 L68.17 47.15 C67.98 47.59 67.56 47.85 67.11 47.85 L67.11 47.85 C66.96 47.85 66.81 47.82 66.66 47.76 z M240.47 47.05 C240.22 46.47 240.49 45.79 241.07 45.54 L241.07 45.54 C241.65 45.29 242.33 45.56 242.58 46.14 L242.58 46.14 C242.83 46.72 242.56 47.4 241.98 47.65 L241.98 47.65 C241.83 47.71 241.68 47.74 241.53 47.74 L241.53 47.74 C241.09 47.74 240.66 47.48 240.47 47.04 z M72.93 37.12 C72.45 36.7 72.4 35.98 72.81 35.5 L72.81 35.5 C73.22 35.02 73.95 34.97 74.43 35.38 L74.43 35.38 C74.91 35.79 74.96 36.52 74.55 37 L74.55 37 C74.32 37.26 74 37.4 73.68 37.4 L73.68 37.4 C73.41 37.4 73.15 37.31 72.93 37.12 z M234.05 36.91 C233.63 36.43 233.69 35.7 234.17 35.29 L234.17 35.29 C234.65 34.87 235.38 34.93 235.79 35.4 L235.79 35.4 C236.2 35.88 236.15 36.61 235.67 37.02 L235.67 37.02 C235.45 37.21 235.19 37.3 234.92 37.3 L234.92 37.3 C234.6 37.3 234.28 37.17 234.05 36.9 z M81.95 28.65 C81.58 28.13 81.71 27.42 82.23 27.05 L82.23 27.05 C82.75 26.68 83.47 26.81 83.83 27.33 L83.83 27.33 C84.2 27.85 84.07 28.57 83.55 28.93 L83.55 28.93 C83.35 29.07 83.12 29.14 82.89 29.14 L82.89 29.14 C82.53 29.14 82.17 28.97 81.95 28.65 z M225.04 28.86 C224.52 28.5 224.39 27.78 224.76 27.26 L224.76 27.26 C225.12 26.74 225.84 26.61 226.36 26.98 L226.36 26.98 C226.88 27.34 227 28.06 226.64 28.58 L226.64 28.58 C226.42 28.9 226.06 29.07 225.7 29.07 L225.7 29.07 C225.47 29.07 225.24 29 225.04 28.86 z M92.61 22.35 C92.34 21.77 92.6 21.09 93.17 20.83 L93.17 20.83 C93.75 20.56 94.43 20.82 94.69 21.39 L94.69 21.39 C94.96 21.97 94.7 22.65 94.13 22.91 L94.13 22.91 C93.98 22.98 93.81 23.02 93.65 23.02 L93.65 23.02 C93.22 23.02 92.8 22.77 92.61 22.35 z M214.44 22.86 C213.86 22.6 213.61 21.92 213.87 21.34 L213.87 21.34 C214.13 20.76 214.82 20.51 215.39 20.77 L215.39 20.77 C215.97 21.04 216.22 21.72 215.96 22.29 L215.96 22.29 C215.77 22.71 215.35 22.96 214.92 22.96 L214.92 22.96 C214.76 22.96 214.6 22.92 214.44 22.85 z M104.14 17.83 C103.96 17.22 104.3 16.58 104.9 16.39 L104.9 16.39 C105.51 16.2 106.15 16.55 106.34 17.15 L106.34 17.15 C106.52 17.76 106.18 18.4 105.58 18.59 L105.58 18.59 C105.47 18.62 105.36 18.64 105.25 18.64 L105.25 18.64 C104.76 18.64 104.3 18.32 104.15 17.83 z M202.98 18.56 C202.37 18.38 202.03 17.73 202.22 17.13 L202.22 17.13 C202.4 16.52 203.05 16.18 203.65 16.37 L203.65 16.37 C204.26 16.55 204.6 17.2 204.41 17.8 L204.41 17.8 C204.26 18.3 203.8 18.61 203.31 18.61 L203.31 18.61 C203.2 18.61 203.09 18.6 202.98 18.56 z M116.14 14.73 C116.02 14.11 116.42 13.5 117.04 13.38 L117.04 13.38 C117.66 13.26 118.27 13.66 118.39 14.29 L118.39 14.29 C118.51 14.91 118.11 15.52 117.49 15.64 L117.49 15.64 C117.41 15.65 117.34 15.66 117.27 15.66 L117.27 15.66 C116.73 15.66 116.25 15.28 116.14 14.73 z M191.06 15.61 C190.44 15.49 190.03 14.88 190.15 14.26 L190.15 14.26 C190.27 13.64 190.88 13.23 191.5 13.35 L191.5 13.35 C192.12 13.47 192.53 14.08 192.41 14.7 L192.41 14.7 C192.3 15.25 191.82 15.63 191.28 15.63 L191.28 15.63 C191.21 15.63 191.13 15.63 191.06 15.61 z M128.38 12.75 C128.31 12.12 128.76 11.55 129.39 11.48 L129.39 11.48 C130.02 11.41 130.59 11.86 130.66 12.49 L130.66 12.49 C130.73 13.12 130.28 13.69 129.65 13.76 L129.65 13.76 C129.65 13.76 129.56 13.76 129.52 13.76 L129.52 13.76 C128.94 13.76 128.45 13.33 128.38 12.74 z M178.9 13.74 C178.27 13.67 177.82 13.1 177.89 12.47 L177.89 12.47 C177.96 11.84 178.53 11.39 179.16 11.46 L179.16 11.46 C179.79 11.53 180.24 12.1 180.17 12.73 L180.17 12.73 C180.1 13.31 179.6 13.75 179.03 13.75 L179.03 13.75 C179.03 13.75 178.94 13.75 178.9 13.75 z M140.74 11.65 C140.71 11.02 141.2 10.48 141.83 10.44 L141.83 10.44 C142.46 10.41 143 10.9 143.04 11.53 L143.04 11.53 C143.07 12.17 142.58 12.7 141.95 12.74 L141.95 12.74 C141.95 12.74 141.91 12.74 141.89 12.74 L141.89 12.74 C141.28 12.74 140.78 12.26 140.74 11.65 z M166.62 12.73 C165.98 12.7 165.5 12.16 165.53 11.52 L165.53 11.52 C165.56 10.88 166.1 10.4 166.74 10.43 L166.74 10.43 C167.37 10.46 167.86 11 167.83 11.64 L167.83 11.64 C167.8 12.25 167.29 12.73 166.68 12.73 L166.68 12.73 C166.68 12.73 166.64 12.73 166.62 12.73 z M153.13 11.28 C153.13 10.64 153.64 10.13 154.28 10.13 L154.28 10.13 C154.92 10.13 155.43 10.64 155.43 11.28 L155.43 11.28 C155.43 11.92 154.92 12.43 154.28 12.43 L154.28 12.43 C153.64 12.43 153.13 11.92 153.13 11.28 z" /><path d="M101.62 155.83 C87.99 155.83 75.65 154.72 64.96 152.52 C54.84 150.44 46.15 147.4 39.13 143.46 C25.76 135.97 18.69 125.48 18.69 113.14 C18.69 104.09 22.64 95.8 30.13 89.15 C38.1 82.06 49.78 76.9 64.84 73.79 C69.17 72.9 72.07 68.95 71.59 64.6 C71.47 63.48 71.4 62.34 71.4 61.2 C71.4 48.86 78.47 38.38 91.84 30.88 C98.86 26.94 107.55 23.9 117.67 21.82 C128.37 19.63 140.7 18.51 154.33 18.51 C167.96 18.51 180.3 19.62 190.99 21.82 C201.11 23.9 209.8 26.94 216.82 30.88 C230.19 38.37 237.26 48.86 237.26 61.2 C237.26 70.25 233.31 78.55 225.82 85.2 C217.85 92.29 206.17 97.45 191.1 100.56 L191.1 100.56 C186.77 101.45 183.87 105.4 184.35 109.75 C184.47 110.86 184.54 112.01 184.54 113.15 C184.54 125.49 177.47 135.98 164.1 143.47 C157.08 147.41 148.39 150.45 138.27 152.53 C127.57 154.72 115.24 155.84 101.61 155.84 z M154.34 20.2 C128.17 20.2 106.84 24.4 92.66 32.35 C79.85 39.53 73.07 49.51 73.07 61.21 C73.07 62.29 73.13 63.37 73.25 64.43 C73.83 69.64 70.36 74.37 65.17 75.44 C50.4 78.48 38.98 83.52 31.23 90.41 C24.12 96.73 20.35 104.6 20.35 113.15 C20.35 124.85 27.12 134.83 39.94 142.01 C54.12 149.96 75.45 154.16 101.62 154.16 C127.79 154.16 149.12 149.96 163.3 142.01 C176.11 134.83 182.89 124.85 182.89 113.15 C182.89 112.07 182.83 110.99 182.71 109.94 C182.13 104.73 185.6 100 190.79 98.93 L190.96 99.75 L190.79 98.93 C205.56 95.89 216.98 90.85 224.73 83.96 C231.85 77.64 235.61 69.77 235.61 61.21 C235.61 49.51 228.84 39.53 216.02 32.35 C201.84 24.4 180.51 20.2 154.34 20.2 z" /></g></svg>