<svg overflow="hidden" viewBox="0, 0, 246.19, 256" xml:space="preserve" id="3fdc82da-7302-4cfa-8f2b-3b978c7adc82" xmlns="http://www.w3.org/2000/svg" xmlns:xlink="http://www.w3.org/1999/xlink" xmlns:xml="http://www.w3.org/XML/1998/namespace" version="1.1">
  <g>
    <path d="M154.59 229.83 C154.15 228.48 152.94 227.9 151.6 228.13 C150.87 228.26 150.13 228.38 149.4 228.51 C149.74 228.35 150.08 228.18 150.42 228.02 C151 227.74 151.59 227.46 152.17 227.18 C153.32 226.63 153.72 224.89 153.04 223.85 C152.28 222.67 150.94 222.38 149.71 222.98 C146.36 224.6 143.01 226.22 139.65 227.84 C139.31 213.48 139.12 199.23 140.19 184.86 C140.57 179.79 132.59 179.78 132.28 184.86 C131.31 200.42 131.01 216.3 132.82 231.81 C133.02 233.54 134.2 234.6 135.52 234.98 C136.09 235.43 136.84 235.62 137.66 235.48 C142.1 234.71 146.54 233.94 150.97 233.17 C151.61 233.06 152.25 232.95 152.89 232.84 C154.15 232.6 154.97 230.99 154.59 229.83 z" style="fill:#25231B;" />
    <path d="M189.8 34.23 C200.35 33.82 210.9 33.42 221.44 33.02 C225.13 32.88 229.12 32.82 232.12 34.98 C235.37 37.32 236.52 41.63 236.68 45.63 C236.83 49.63 236.22 53.67 236.94 57.61 C234.1 53 229.07 49.8 223.69 49.19 C218.31 48.58 212.69 50.56 208.88 54.41 C207.44 55.87 206.24 57.58 204.64 58.86 C203.04 60.14 200.84 60.95 198.92 60.22 C196.9 59.45 195.83 57.28 195.03 55.27 C192.32 48.43 190.45 41.27 189.8 34.23 z" style="fill:#FF9EAA;" />
    <path d="M18.61 108.36 C38.43 108.83 58.62 107.32 77.14 100.26 C95.66 93.2 112.48 80.05 120.73 62.02 C124.57 53.63 126.46 44.5 129.62 35.83 C132.78 27.16 137.56 18.58 145.4 13.72 C158.32 5.7 176.09 10.4 187.27 20.7 C204.32 36.41 208.81 61.85 206.67 84.93 C202.88 125.83 178.9 166.15 141.12 182.26 C114.17 193.75 81.89 191.84 56.48 177.27 C31.07 162.69 13.13 135.79 9.44 106.73 C11.62 106.74 13.56 108.24 18.61 108.36 z" style="fill:white;" />
    <path d="M168.49 44.83 C167.21 41.76 167.09 38.35 169.41 36.45 C171.79 34.49 175.62 35 177.81 37.17 C179.99 39.34 180.62 42.77 179.9 45.76 C177.63 55.27 170.94 50.67 168.49 44.83 z" style="fill:#25231B;" />
    <path d="M79.81 100.53 C87.6 96.96 95.61 93.34 104.16 92.72 C112.71 92.1 122.06 95.1 126.71 102.31 C130.46 108.11 130.54 115.79 127.99 122.21 C125.45 128.63 120.55 133.89 115.02 138.01 C99.89 149.27 79.11 152.5 61.28 146.36 C43.45 140.22 29.06 124.9 24.06 106.71 C44.69 107.85 66.09 106.81 79.81 100.53 z" style="fill:#25231B;" />
    <path d="M186.79 123.7 C186.77 123.35 186.67 123.02 186.48 122.71 C186.31 122.4 186.08 122.15 185.8 121.97 C185.54 121.73 185.24 121.57 184.9 121.49 C184.22 121.34 183.46 121.37 182.85 121.76 C182.28 122.13 181.8 122.67 181.63 123.35 C181.34 124.51 181.05 125.68 180.76 126.84 C180.6 127.49 180.67 128.21 181.02 128.79 C181.18 129.08 181.4 129.32 181.67 129.5 C181.92 129.72 182.2 129.87 182.53 129.95 C183.18 130.1 183.91 130.07 184.48 129.69 C185.05 129.32 185.43 128.83 185.64 128.18 C186.01 127.04 186.38 125.9 186.75 124.75 C186.86 124.4 186.87 124.05 186.79 123.7 z" style="fill:#FFC3BB;" />
    <path d="M194.1 102.82 C193.75 102.22 193.06 101.65 192.37 101.49 C191.63 101.32 190.8 101.36 190.14 101.78 C189.48 102.2 189.08 102.77 188.82 103.51 C188 105.82 187.14 108.1 186.57 110.49 C186.26 111.79 186.87 113.1 188.11 113.62 C189.25 114.1 190.84 113.73 191.43 112.53 C192.61 110.11 193.49 107.57 194.39 105.04 C194.63 104.37 194.45 103.42 194.1 102.82 z" style="fill:#FFC3BB;" />
    <path d="M173.66 110.62 C171.95 110.23 170.28 111.14 169.77 112.83 C168.34 117.57 166.55 122.19 164.66 126.76 C164.13 128.06 165.14 129.61 166.3 130.1 C167.56 130.63 169.14 130.18 169.83 128.94 C172.37 124.37 174.31 119.5 175.87 114.51 C176.37 112.93 175.28 110.99 173.66 110.62 z" style="fill:#FFC3BB;" />
    <path d="M174.63 145.16 C174.48 144.6 174.05 144 173.53 143.73 C172.98 143.44 172.3 143.29 171.68 143.49 C171.06 143.69 170.62 144.06 170.25 144.59 C168.98 146.43 167.7 148.27 166.43 150.1 C166.11 150.56 166.06 151.31 166.21 151.83 C166.35 152.35 166.75 152.91 167.24 153.17 C167.76 153.45 168.39 153.58 168.97 153.39 C169.15 153.32 169.32 153.24 169.5 153.17 C169.84 152.97 170.11 152.7 170.3 152.37 C171.66 150.58 173.02 148.8 174.39 147.01 C174.74 146.55 174.78 145.69 174.63 145.16 z" style="fill:#FFC3BB;" />
    <path d="M157.68 151.49 C157.59 151.13 157.43 150.82 157.19 150.55 C157 150.25 156.74 150.01 156.42 149.84 L155.76 149.56 C155.27 149.43 154.79 149.43 154.3 149.56 L153.64 149.84 C153.22 150.08 152.9 150.41 152.65 150.83 C152.2 151.68 151.74 152.53 151.29 153.37 C151.1 153.67 151 153.99 150.98 154.34 C150.9 154.69 150.92 155.03 151.03 155.38 C151.11 155.72 151.26 156.02 151.5 156.27 C151.68 156.55 151.93 156.78 152.23 156.94 C152.44 157.03 152.64 157.12 152.85 157.2 C153.31 157.32 153.77 157.32 154.24 157.2 C154.45 157.11 154.66 157.02 154.86 156.94 C155.25 156.71 155.56 156.4 155.79 156 L157.4 153.6 C157.6 153.28 157.71 152.94 157.73 152.57 C157.81 152.22 157.79 151.86 157.68 151.49 z" style="fill:#FFC3BB;" />
    <path d="M185.06 93.47 C184.95 93.02 184.75 92.62 184.44 92.29 C184.2 91.91 183.87 91.61 183.47 91.4 C183.19 91.28 182.92 91.16 182.64 91.05 C182.02 90.88 181.41 90.88 180.79 91.05 C180.51 91.17 180.24 91.28 179.96 91.4 C179.44 91.71 179.02 92.12 178.71 92.64 C178.29 93.51 177.87 94.37 177.45 95.24 C177.21 95.61 177.09 96.01 177.07 96.44 C176.97 96.87 177 97.29 177.13 97.72 C177.23 98.14 177.42 98.5 177.71 98.81 C177.93 99.16 178.24 99.44 178.61 99.64 C178.87 99.75 179.12 99.86 179.38 99.96 C179.95 100.12 180.52 100.12 181.09 99.96 C181.35 99.85 181.6 99.75 181.86 99.64 C182.34 99.36 182.73 98.97 183.01 98.49 L184.72 96.15 C184.98 95.75 185.11 95.32 185.13 94.86 C185.23 94.4 185.21 93.93 185.06 93.47 z" style="fill:#FFC3BB;" />
    <path d="M198.77 81.74 C198.76 81.44 198.66 81.16 198.5 80.9 C198.36 80.64 198.16 80.42 197.91 80.26 C197.69 80.06 197.43 79.92 197.14 79.85 C196.94 79.82 196.74 79.8 196.54 79.77 C196.13 79.77 195.75 79.87 195.39 80.08 C195.24 80.2 195.08 80.32 194.93 80.43 C194.65 80.71 194.45 81.05 194.35 81.43 C194.21 82.26 194.06 83.09 193.92 83.92 C193.83 84.21 193.81 84.51 193.88 84.8 C193.89 85.09 193.98 85.37 194.14 85.62 C194.28 85.88 194.47 86.08 194.71 86.24 C194.92 86.43 195.17 86.57 195.46 86.63 C195.65 86.66 195.85 86.68 196.05 86.71 C196.44 86.71 196.82 86.61 197.16 86.41 C197.63 86.11 198.04 85.66 198.17 85.09 C198.35 84.27 198.54 83.45 198.73 82.63 C198.83 82.34 198.84 82.04 198.77 81.74 z" style="fill:#FFC3BB;" />
    <path d="M157.83 135.99 C157.72 135.55 157.52 135.16 157.22 134.83 C156.98 134.46 156.66 134.16 156.26 133.95 C155.99 133.83 155.72 133.72 155.44 133.61 C154.83 133.45 154.23 133.45 153.62 133.61 C153.35 133.72 153.08 133.84 152.8 133.95 C152.29 134.25 151.88 134.66 151.57 135.18 L149.81 138.77 C149.58 139.13 149.46 139.53 149.44 139.95 C149.34 140.37 149.37 140.79 149.49 141.21 C149.59 141.62 149.78 141.98 150.06 142.29 C150.28 142.63 150.58 142.91 150.95 143.11 C151.68 143.5 152.57 143.69 153.39 143.43 C153.64 143.32 153.89 143.22 154.15 143.11 C154.63 142.83 155 142.45 155.29 141.97 C156.02 140.86 156.75 139.75 157.48 138.64 C157.73 138.25 157.86 137.82 157.89 137.37 C157.99 136.9 157.97 136.45 157.83 135.99 z" style="fill:#FFC3BB;" />
    <path d="M158.6 164.72 C158.5 164.3 158.31 163.94 158.03 163.64 C157.89 163.4 157.7 163.21 157.45 163.07 C157.14 162.79 156.78 162.6 156.36 162.5 C156.08 162.46 155.79 162.42 155.51 162.38 C154.93 162.38 154.4 162.53 153.9 162.82 L150.8 164.57 C150.28 164.88 149.87 165.29 149.56 165.81 C149.44 166.09 149.33 166.36 149.21 166.64 C149.04 167.25 149.04 167.86 149.21 168.48 C149.32 168.93 149.52 169.32 149.83 169.65 C150.08 170.03 150.4 170.32 150.8 170.54 C151.19 170.79 151.62 170.93 152.08 170.95 C152.54 171.05 153 171.03 153.46 170.89 C154.04 170.72 154.55 170.43 154.98 170 C155.91 169.28 156.84 168.56 157.76 167.84 C158.07 167.55 158.29 167.21 158.42 166.81 C158.62 166.43 158.71 166.02 158.7 165.58 C158.68 165.29 158.64 165 158.6 164.72 z" style="fill:#FFC3BB;" />
    <path d="M84.07 138.47 C83.88 137.2 82.92 136.47 81.67 136.35 C77.44 135.94 73.23 135.98 69.03 135.21 C65.05 134.47 61.11 133.33 57.45 131.59 C50.91 128.49 45.21 123.78 41.45 117.55 C39.86 114.93 35.76 117.3 37.33 119.96 C41.47 126.95 47.83 132.53 55.12 136.07 C59.26 138.08 63.67 139.52 68.19 140.38 C72.83 141.26 77.64 141.8 82.33 141.15 C83.51 140.99 84.23 139.54 84.07 138.47 z" style="fill:#787A7F;" />
    <path d="M95.11 127.86 C94.57 126.19 93.11 125.53 91.46 125.79 C90.59 125.92 90.55 125.93 89.74 126.02 C89.01 126.1 88.28 126.16 87.55 126.22 C86.14 126.34 84.73 126.4 83.31 126.39 C81.89 126.39 80.48 126.34 79.06 126.23 C78.38 126.18 77.7 126.11 77.03 126.04 C76.69 126 76.36 125.97 76.02 125.93 C75.79 125.9 75.69 125.89 75.69 125.89 C75.55 125.87 75.41 125.85 75.27 125.83 C73.47 125.56 71.42 126.28 70.96 128.28 C70.58 129.94 71.47 132.3 73.4 132.59 C79.98 133.57 86.6 133.26 93.02 131.51 C94.53 131.1 95.6 129.38 95.11 127.86 z" style="fill:#787A7F;" />
    <path d="M129.92 240.7 C131.19 240.78 132.41 239.52 132.35 238.27 C132.29 236.88 131.28 235.93 129.92 235.84 C125.91 235.58 121.9 235.31 117.89 235.05 C117.46 219.46 116.49 203.93 116.52 188.31 C116.53 183.08 108.27 183.07 108.39 188.31 C108.77 204.56 109.16 221.09 111.27 237.23 C111.31 237.5 111.37 237.76 111.45 238 C111.27 239.26 111.97 240.32 113.18 240.76 C117.42 242.28 121.67 243.79 125.91 245.31 C126.52 245.53 127.13 245.75 127.74 245.97 C128.94 246.4 130.46 245.49 130.73 244.27 C131.04 242.9 130.32 241.74 129.03 241.28 C128.32 241.03 127.61 240.77 126.9 240.52 C127.26 240.54 127.61 240.57 127.97 240.59 C128.62 240.61 129.27 240.66 129.92 240.7 z" style="fill:#25231B;" />
  </g>
</svg>