<svg version="1.1" xmlns="http://www.w3.org/2000/svg" xmlns:xlink="http://www.w3.org/1999/xlink" xmlns:xml="http://www.w3.org/XML/1998/namespace" overflow="hidden" viewBox="0, 0, 231.6, 256" id="d1009b99-9e97-499d-81b6-5ef34c402e96"><defs /><path d="M221.489 162.969 C222.648 148.138 214.359 119.923 211.674 99.6506 C209.719 84.882 206.079 70.4478 195.541 61.3815 C175.39 44.0439 149.747 40.9433 125.551 50.3184 C103.776 58.755 93.6734 71.1246 93.655 93.0734 C93.6392 111.848 98.6701 130.57 120.288 143.627 C143.957 157.924 155.447 164.174 172.383 185.217 C192.622 210.37 219.313 190.815 221.489 162.969 Z" fill-rule="evenodd" style="fill:#F6C4C3;" /><path d="M107.686 176.186 C93.6273 168.535 71.0044 163.792 55.2 165.594 C21.7422 169.417 18.2814 205.691 35.6929 228.802 C53.3203 252.198 96.1794 250.754 116.755 230.339 C134.947 212.283 129.992 188.328 107.686 176.186 Z" fill-rule="evenodd" style="fill:#CADEDF;" /><path d="M70.9685 119.713 C66.1921 111.263 54.9675 97.0984 48.1335 88.3324 C36.869 73.8864 20.9799 80.3079 13.7964 94.3194 C-0.6263 122.452 28.8052 147.503 55.8751 144.432 C70.3976 142.78 78.9163 133.785 70.9684 119.713 Z" fill-rule="evenodd" style="fill:#FADAAC;" /><path d="M72.8635 233.684 C69.0129 233.684 65.0081 233.083 60.9441 231.881 C52.6748 229.436 44.0932 224.48 36.1273 217.551 C33.2851 215.079 32.1185 212.183 32.9267 209.605 C33.6762 207.213 35.9686 205.639 39.2159 205.285 C51.6133 203.936 60.9131 201.532 66.857 198.141 C71.8127 195.313 72.7499 190.977 71.4805 187.933 C70.3718 185.274 67.1467 182.706 61.709 184.222 C50.4747 187.352 41.5655 189.047 34.4719 189.401 C23.0655 189.972 16.3664 187.001 14.558 180.573 C12.624 173.699 10.8145 165.317 12.056 155.262 C12.4936 151.719 13.6032 149.467 15.5483 148.175 C18.9736 145.899 24.1267 147.355 31.258 149.37 C39.3914 151.668 50.5312 154.814 64.7598 154.242 C72.9721 153.911 76.6732 149.559 76.6368 145.654 C76.6035 142.122 73.4018 138.49 66.3235 138.338 C53.0729 138.054 28.587 134.798 20.8658 124.401 C18.5475 121.28 17.9048 117.785 18.9557 114.014 C20.9085 107.005 24.5361 99.9053 29.7371 92.9112 C31.9717 89.906 34.6711 88.8153 37.9902 89.5769 C40.7239 90.2042 43.6205 91.9935 47.2877 94.2588 C53.8392 98.3057 62.8117 103.848 75.827 105.219 C81.3812 105.805 84.4781 102.827 85.0059 99.8137 C85.4734 97.1427 83.9809 93.521 78.2347 92.1043 C65.6697 89.0064 50.023 82.4879 47.2788 74.3122 C46.3194 71.4537 46.9489 68.5413 49.0994 65.8897 C52.0037 62.3081 56.538 57.0781 62.3558 53.0285 C67.7659 49.2626 71.2675 52.2112 75.3219 55.6244 C77.5656 57.5132 80.3576 59.864 84.2168 61.926 C87.9224 63.9057 91.3316 63.6391 93.3359 61.2108 C94.9762 59.2234 95.5072 55.8193 93.3487 53.1584 C92.524 52.142 91.5879 51.1005 90.6826 50.0932 C86.0004 44.8844 80.1733 38.402 87.6082 31.0609 C92.8807 25.8553 99.061 19.7827 105.697 13.5883 C110.805 8.8195 114.671 8.8054 119.484 13.5393 C122.086 16.099 124.782 18.631 127.388 21.0797 C131.107 24.5724 134.618 27.8712 137.756 31.1313 C144.818 38.4697 139.145 44.8551 135.002 49.5175 C133.897 50.7603 132.855 51.9341 132.031 53.0818 C129.964 55.9648 129.828 58.9376 131.667 61.0339 C133.421 63.0329 136.998 64.0809 141.038 61.9183 C144.998 59.7976 147.847 57.4576 150.137 55.5774 C154.362 52.1065 157.7 49.3648 162.956 52.9637 C167.795 56.2768 172.263 60.6431 176.234 65.9413 C178.368 68.7888 178.943 71.8365 177.894 74.7547 C174.452 84.3349 154.565 90.0981 146.175 92.1312 C141.114 93.3576 139.758 96.603 140.176 99.2314 C140.699 102.514 143.977 105.624 149.237 105.214 C162.936 104.146 171.896 98.3653 178.439 94.1441 C181.932 91.89 184.692 90.1096 187.348 89.4989 C190.557 88.7615 193.228 89.8684 195.513 92.8849 C200.506 99.4763 204.092 106.562 206.172 113.945 C207.398 118.298 206.745 122.208 204.23 125.566 C200.74 130.227 193.665 133.699 183.202 135.886 C173.552 137.903 163.636 138.296 158.584 138.35 C153.962 138.4 148.943 140.747 148.843 145.78 C148.735 151.218 154.404 153.983 159.717 154.251 C178.556 155.197 194.5 149.714 201.31 147.372 C205.071 146.078 207.921 146.147 210.025 147.582 C212.065 148.973 213.181 151.586 213.34 155.348 C213.718 164.271 212.918 172.05 210.746 180.57 C209.96 183.652 208.19 186.016 205.484 187.598 C196.391 192.914 178.65 188.133 165.696 184.643 L164.007 184.188 C160.064 183.131 155.339 183.939 153.666 188.127 C151.992 192.319 154.896 196.183 158.518 198.153 C166.413 202.447 175.67 204.837 186.031 205.258 C188.968 205.378 191.313 206.93 192.15 209.309 C193.089 211.975 191.934 215.064 189.061 217.57 C181.289 224.352 172.411 229.266 163.385 231.782 C154.213 234.339 145.538 234.233 138.297 231.478 C133.138 229.513 128.884 226.278 125.655 221.862 C122.226 217.173 120.038 211.243 119.151 204.237 L122.624 203.797 C124.187 216.148 130.038 224.588 139.542 228.206 C152.87 233.28 171.846 227.945 186.76 214.933 C188.513 213.403 189.293 211.736 188.848 210.471 C188.497 209.473 187.363 208.816 185.889 208.756 C174.987 208.313 165.215 205.78 156.846 201.228 C149.932 197.468 148.635 191.286 150.416 186.828 C152.195 182.374 157.369 178.783 164.914 180.807 L166.607 181.263 C178.267 184.405 195.887 189.152 203.717 184.576 C205.611 183.469 206.801 181.876 207.354 179.705 C209.438 171.53 210.206 164.063 209.843 155.496 C209.732 152.899 209.13 151.209 208.052 150.474 C206.94 149.716 205.055 149.786 202.448 150.682 C191.555 154.429 176.831 158.617 159.541 157.747 C149.633 157.247 145.235 151.158 145.343 145.711 C145.445 140.548 149.62 134.947 158.546 134.85 C175.292 134.669 195.351 131.584 201.428 123.469 C203.281 120.994 203.731 118.189 202.803 114.895 C200.842 107.934 197.45 101.24 192.723 94.9987 C189.856 91.2129 187.463 92.488 180.337 97.0855 C173.48 101.509 164.09 107.567 149.509 108.703 C149.091 108.736 148.681 108.752 148.28 108.752 C141.62 108.752 137.45 104.374 136.719 99.7812 C136.339 97.3928 136.902 95.0114 138.305 93.0754 C139.822 90.9811 142.259 89.4782 145.35 88.7291 C161.433 84.8319 172.641 79.0237 174.6 73.5711 C175.249 71.7634 174.867 69.9545 173.433 68.0407 C169.691 63.0493 165.501 58.9484 160.979 55.8519 C158.023 53.8286 156.654 54.7544 152.358 58.2823 C149.951 60.2599 146.954 62.7209 142.69 65.0042 C136.957 68.0729 131.701 66.381 129.036 63.3424 C126.729 60.7137 125.558 56.1017 129.187 51.0417 C130.116 49.7455 131.269 48.4475 132.385 47.1922 C137.138 41.8428 139.818 38.3225 135.234 33.5585 C132.157 30.3621 128.677 27.0924 124.992 23.6309 C122.37 21.1687 119.66 18.6227 117.029 16.0347 C113.576 12.6382 111.82 12.6602 108.085 16.1468 C101.483 22.3105 95.323 28.3626 90.0676 33.5516 C85.2444 38.3139 88 41.8726 93.2856 47.7529 C94.2203 48.7925 95.1866 49.8675 96.0668 50.9527 C99.0178 54.5903 99.0047 59.8414 96.0354 63.4387 C93.6074 66.3813 88.7942 68.3401 82.5668 65.0132 C78.384 62.7782 75.4358 60.2963 73.0671 58.3021 C68.7951 54.7053 67.4266 53.7632 64.3554 55.9012 C58.9023 59.697 54.5885 64.678 51.818 68.0942 C50.4218 69.8161 50.0225 71.4855 50.5973 73.198 C51.5761 76.115 55.2353 79.2475 61.1787 82.2566 C66.1617 84.7797 72.6839 87.1301 79.0725 88.7052 C86.6428 90.5717 89.2388 95.9325 88.4534 100.417 C88.0082 102.961 86.5288 105.205 84.2883 106.737 C81.8894 108.377 78.8369 109.056 75.4598 108.7 C61.6508 107.245 52.2858 101.461 45.448 97.2367 C37.4875 92.3196 35.1806 91.4567 32.5457 94.9999 C27.6026 101.647 24.1644 108.36 22.3275 114.953 C21.5714 117.667 22.0124 120.074 23.6755 122.314 C26.5074 126.127 32.8345 129.357 41.973 131.655 C49.3211 133.502 58.2237 134.663 66.3984 134.838 C70.5179 134.927 74.0025 136.066 76.4758 138.134 C78.8095 140.084 80.1096 142.744 80.1367 145.621 C80.1652 148.661 78.7166 151.656 76.1624 153.839 C73.3926 156.205 69.498 157.554 64.9002 157.739 C50.1101 158.336 38.665 155.1 30.3062 152.738 C24.3081 151.044 19.5713 149.705 17.4845 151.091 C16.4681 151.766 15.8288 153.271 15.53 155.691 C14.3674 165.105 15.9952 172.757 17.9272 179.625 C19.2342 184.269 24.7417 186.382 34.2967 185.905 C41.1283 185.563 49.7876 183.91 60.7692 180.849 C67.9167 178.857 72.9214 182.295 74.711 186.585 C75.7317 189.033 75.759 191.786 74.7882 194.34 C73.7384 197.101 71.5956 199.467 68.5916 201.181 C62.2281 204.812 52.472 207.363 39.5945 208.765 C37.8203 208.958 36.5765 209.663 36.2666 210.651 C35.9048 211.806 36.7315 213.438 38.4242 214.91 C46.0144 221.512 54.145 226.219 61.9369 228.524 C69.8484 230.865 77.1546 230.765 83.6526 228.228 C90.0141 225.745 95.331 220.99 99.4549 214.095 C103.995 206.504 106.983 196.482 108.336 184.307 C109.768 171.414 109.341 157.756 108.846 141.942 C108.178 120.553 107.42 96.311 110.976 66.1106 L114.452 66.52 C110.927 96.4617 111.681 120.566 112.345 141.833 C112.844 157.78 113.274 171.553 111.814 184.694 C110.407 197.371 107.259 207.868 102.459 215.892 C97.9268 223.469 92.0279 228.717 84.9258 231.489 C81.1803 232.951 77.116 233.683 72.8634 233.683 Z" /></svg>