<svg version="1.1" xmlns="http://www.w3.org/2000/svg" xmlns:xlink="http://www.w3.org/1999/xlink" xmlns:xml="http://www.w3.org/XML/1998/namespace" overflow="hidden" viewBox="0, 0, 256, 185.39" id="8e6999a0-e792-43c6-9fd1-0e217f9e3b0d"><defs /><path d="M243.766 51.9864 L226.37 43.4453 L246 31.2457 L216.882 33.9803 C216.666 33.5911 216.434 33.2095 216.242 32.8068 C216.179 32.675 216.107 32.55 216.042 32.4193 C217.893 37.0199 221.199 46.1407 223.153 56.8877 L223.239 56.8958 C223.081 55.2542 222.903 53.6726 222.722 52.1601 C228.362 52.3865 243.766 51.9865 243.766 51.9865 Z" /><path d="M198.889 34.357 C196.904 34.357 195.286 35.973 195.286 37.9627 C195.286 39.955 196.904 41.5662 198.889 41.5662 C200.881 41.5662 202.5 39.955 202.5 37.9627 C202.5 35.9731 200.881 34.357 198.889 34.357 Z" style="fill:none;" /><path d="M216.042 32.4193 C206.191 12.3736 177.194 5.0768 165.675 13.3613 C182.025 20.8545 184.397 34.591 176.658 47.4068 C174.553 50.8966 170.968 52.9315 171.047 52.8705 C174.198 58.7035 175.437 64.6492 175.437 71.3452 C175.437 98.8844 146.077 121.212 109.86 121.212 C97.1654 121.212 91.1934 119.785 80.7963 116.037 C45.9245 136.702 9.9999 151.712 9.9999 151.712 C9.9999 151.712 15.6085 157.202 28.8056 154.763 C24.3126 159.643 22.9311 170.624 25.8235 175.388 C25.8235 175.388 81.4965 127.918 83.9367 127.279 C86.371 126.634 187.179 152.431 216.666 97.4473 C224.416 82.99 224.428 69.0725 223.318 57.516 L223.155 55.9701 C222.179 44.986 218.599 37.4191 216.042 32.4193 Z M198.889 41.5662 C196.904 41.5662 195.286 39.955 195.286 37.9627 C195.286 35.9731 196.904 34.357 198.889 34.357 C200.881 34.357 202.5 35.973 202.5 37.9627 C202.5 39.955 200.881 41.5662 198.889 41.5662 Z" style="fill:#6E7F35;" /><path d="M170.85 71.7424 C171.26 63.7069 167.594 55.2606 167.594 55.2606 C125.021 87.8825 102.309 94.4308 67.0469 102.201 C74.0189 110.368 96.8151 117.482 108.886 117.482 C143.089 117.482 169.52 97.7211 170.85 71.7424 Z" style="fill:#DAB428;" /></svg>