<svg overflow="hidden" viewBox="0, 0, 256, 253.21" id="5da12380-1f5e-47ff-99db-6bf7785a79bc" xmlns="http://www.w3.org/2000/svg" xmlns:xlink="http://www.w3.org/1999/xlink" xmlns:xml="http://www.w3.org/XML/1998/namespace" version="1.1"><g id="source_seperate"><g><path d="M52.26 94.88 C54.33 94.26 56.42 93.74 58.53 93.4 C58.74 90.38 58.74 87.34 58.53 84.33 C58.28 84.47 58.02 84.62 57.78 84.78 C55.92 85.95 54.29 87.49 53.13 89.36 C52.16 90.92 51.14 93.16 51.69 95.06 C51.88 94.99 52.07 94.93 52.26 94.88 z" style="fill:#EE916A;" /><path d="M61.32 104.25 C59.54 104.23 57.71 105.09 56.23 105.92 C55.42 106.37 54.68 106.91 54.23 107.73 C53.85 108.43 53.74 109.27 53.84 110.05 C54.27 113.6 58.2 114.91 61.29 114.58 C61.5 114.56 61.7 114.53 61.91 114.5 C61.42 111.11 61.2 107.69 61.32 104.25 z" style="fill:#F0EAC3;" /><path d="M133.4 148.88 C129.39 149.98 125.31 150.92 121.22 151.69 C112.98 153.24 104.26 153.86 96.27 150.77 C92.4 149.27 88.85 147.1 85.11 145.31 C81.25 143.46 77.14 142.26 72.94 141.41 C64.58 139.72 55.63 138.77 47.24 140.9 C40.65 142.58 34.39 146.34 30.76 152.2 C32.44 156.13 34.11 160.06 35.79 163.99 C37.34 167.6 38.84 171.26 40.83 174.66 C42.73 177.9 45.17 180.72 48.04 183.14 C50.8 185.47 53.86 187.41 57.02 189.14 C60.48 191.04 64.09 192.69 67.85 193.94 C68.2 194.06 68.55 194.17 68.91 194.28 C69.33 194.12 69.85 194.24 70.07 194.63 C76.57 196.47 83.33 197 90.04 195.94 C97.26 194.81 104.19 192.12 110.43 188.36 C122.94 180.83 132.31 169.09 139.44 156.52 C141.72 152.48 143.8 148.34 145.74 144.13 C145.5 144.26 145.25 144.39 145.01 144.52 C141.33 146.42 137.39 147.78 133.4 148.88 z M105.65 167.88 C106.14 168.65 105.76 169.6 104.99 169.99 C104.26 170.36 103.36 170.36 102.57 170.26 C101.51 170.12 98.04 169.26 99.03 167.58 C99.44 166.87 100.72 166.87 101.44 166.86 C101.65 166.86 101.88 166.86 102.09 166.88 C102.49 166.87 102.87 166.87 103.27 166.91 C104.12 167 105.15 167.09 105.65 167.88 z M97.29 158.6 C97.74 157.77 98.72 157.82 99.54 157.84 C99.54 157.84 99.55 157.84 99.56 157.84 C100.2 157.7 100.88 157.66 101.54 157.74 C102.31 157.83 103.32 157.98 103.83 158.61 C104.39 159.3 104.07 160.21 103.36 160.63 C102.68 161.03 101.74 161.01 100.98 160.99 C99.78 160.95 96.14 160.66 97.29 158.6 z M94.93 176.02 C95.68 176.04 96.44 176.12 97.11 176.34 C97.67 176.52 98.23 176.82 98.55 177.32 C98.88 177.83 98.76 178.51 98.24 178.86 C97.27 179.54 95.75 179.33 94.68 179.05 C93.48 178.74 92.34 178.22 91.25 177.64 C90.91 177.46 90.67 176.95 90.82 176.58 C91.31 175.35 92.78 175.69 93.85 175.83 C94.23 175.89 94.57 175.95 94.93 176.02 z M97.94 185.45 C97.37 186.22 96.2 186.01 95.39 185.87 C94.44 185.7 93.53 185.29 92.74 184.72 C92.16 184.3 92.1 183.17 92.97 183.02 C93.79 182.87 94.61 182.89 95.39 183.07 C95.87 183.08 96.35 183.16 96.8 183.31 C97.69 183.61 98.65 184.46 97.94 185.45 z M92.27 165.52 C91.68 166.45 90.06 166.19 89.15 165.97 C88.1 165.71 87.12 165.2 86.23 164.61 C85.81 164.34 85.62 163.78 85.89 163.33 C86.45 162.41 87.5 162.46 88.44 162.62 C88.6 162.64 88.77 162.68 88.93 162.72 C89.58 162.74 90.22 162.88 90.84 163.15 C91.75 163.53 92.99 164.4 92.27 165.52 z M85.42 154.04 C85.47 153.99 85.53 153.95 85.58 153.9 C85.68 153.72 85.86 153.58 86.11 153.54 C87.75 153.28 89.93 153.38 91.24 154.56 C91.88 155.14 92.15 156.11 91.73 156.9 C91.28 157.73 90.35 157.82 89.51 157.74 C88.66 157.65 87.86 157.43 87.09 157.07 C86.34 156.72 85.4 156.18 85.13 155.33 C84.99 154.89 85.11 154.38 85.42 154.04 z M83.53 170.83 C84.39 171.01 85.24 171.2 86.03 171.53 C86.57 171.75 87.11 172.09 87.39 172.61 C87.72 173.22 87.5 173.99 86.93 174.37 C85.99 174.98 84.46 174.57 83.49 174.19 C82.38 173.75 81.39 173.06 80.63 172.13 C80.3 171.73 80.25 171.2 80.63 170.81 C81.42 169.98 82.62 170.49 83.53 170.83 z M74.29 149.33 C74.48 148.56 75.15 148.26 75.95 148.21 C77.46 147.98 79.03 148.35 80.24 149.31 C80.97 149.89 81.44 150.99 80.64 151.75 C80.03 152.32 79.15 152.22 78.39 152.1 C77.54 151.96 76.72 151.69 75.94 151.33 C75.15 150.94 74.03 150.38 74.29 149.33 z M73.58 158.15 C73.95 157.78 74.56 157.77 75.12 157.84 C75.71 157.78 76.31 157.8 76.91 157.94 C77.59 158.1 78.44 158.41 78.86 159 C79.37 159.68 79.11 160.55 78.35 160.87 C77.65 161.18 76.81 161.12 76.09 160.96 C75.36 160.8 74.56 160.49 73.92 160.1 C73.25 159.68 72.98 158.76 73.58 158.15 z M75.4 177.27 C74.67 177.93 73.79 177.74 72.91 177.53 C71.97 177.3 71.04 177.01 70.12 176.67 C69.64 176.49 69.35 176.04 69.47 175.52 C69.71 174.56 70.73 174.51 71.54 174.58 C71.7 174.6 71.87 174.62 72.03 174.65 C73.39 174.66 74.66 174.96 75.54 176.13 C75.79 176.45 75.68 177.02 75.4 177.27 z M71.69 165.96 C71.87 166 72.05 166.05 72.23 166.1 C72.78 166.19 73.33 166.31 73.85 166.51 C74.73 166.84 76.03 167.59 75.34 168.74 C74.76 169.7 73.02 169.33 72.16 169.07 C71.12 168.76 70.17 168.23 69.26 167.65 C68.83 167.38 68.66 166.82 68.93 166.38 C69.48 165.43 70.8 165.76 71.69 165.96 z M63.15 144.86 C63.66 144.58 64.26 144.44 64.88 144.39 C65.86 144.16 66.91 144.2 67.87 144.51 C68.55 144.74 69.35 145.09 69.71 145.76 C70.11 146.5 69.82 147.37 69.15 147.82 C68.52 148.24 67.68 148.29 66.96 148.31 C66.15 148.32 65.34 148.22 64.57 147.99 C63.86 147.79 63 147.52 62.58 146.86 C62.11 146.13 62.41 145.26 63.15 144.86 z M60.12 154.41 C60.44 153.9 61.12 153.67 61.74 153.58 C63.08 153.2 64.59 153.13 65.78 153.93 C66.49 154.41 66.82 155.31 66.09 155.97 C65.48 156.52 64.41 156.6 63.63 156.64 C62.78 156.68 61.89 156.57 61.09 156.29 C60.28 156 59.55 155.29 60.12 154.41 z M57.76 163.36 C58.57 163.11 59.57 163.22 60.38 163.34 C60.64 163.38 60.91 163.43 61.15 163.5 C61.35 163.52 61.54 163.54 61.73 163.57 C62.46 163.69 63.41 164.03 63.77 164.72 C64.24 165.66 63.35 166.4 62.48 166.43 C61.6 166.46 60.68 166.31 59.81 166.16 C59.06 166.02 58.06 165.9 57.4 165.48 C56.49 164.89 56.8 163.66 57.76 163.36 z M50.22 144.92 C50.82 144.54 51.48 144.24 52.17 144.05 C53.09 143.65 54.1 143.5 55.11 143.63 C55.88 143.73 56.73 143.96 56.93 144.81 C57.14 145.68 56.41 146.4 55.72 146.78 C54.3 147.58 52.65 147.73 51.05 147.8 C50.3 147.84 49.43 147.79 49.09 147 C48.66 146.06 49.51 145.37 50.22 144.92 z M48.67 154.05 C49.13 153.84 49.59 153.64 50.07 153.48 C50.47 153.32 50.88 153.17 51.29 153.04 C52.06 152.8 52.99 152.5 53.8 152.55 C54.62 152.6 55.3 153.29 55.02 154.14 C54.79 154.84 53.85 155.23 53.24 155.53 C51.84 156.23 50.3 156.63 48.74 156.73 C47.95 156.78 47 156.6 47.04 155.6 C47.08 154.73 48.01 154.37 48.67 154.05 z M42.24 157.47 C41.99 158.32 40.93 159.07 40.2 159.47 C39.37 159.92 38.47 160.17 37.53 160.23 C36.85 160.27 36.33 159.39 36.72 158.82 C37.26 158.02 37.96 157.37 38.76 156.89 C39.2 156.51 39.67 156.18 40.22 155.98 C40.74 155.8 41.32 155.79 41.78 156.12 C42.19 156.43 42.39 156.97 42.24 157.47 z M38.16 152.57 C37.41 152.83 36.36 153.22 35.73 152.54 C34.96 151.72 35.72 150.73 36.29 150.09 C37.18 149.1 38.22 148.23 39.33 147.51 C39.68 147.21 40.06 146.93 40.44 146.69 C41.23 146.2 42.35 146.25 42.85 147.16 C43.33 148.05 42.92 148.94 42.34 149.65 C41.26 151 39.79 152 38.16 152.57 z M43.13 165.68 C42.39 164.4 44.37 163.62 45.25 163.31 C45.67 163.17 46.09 163.07 46.52 163.01 C46.82 162.92 47.13 162.84 47.44 162.78 C48.41 162.58 49.76 162.34 50.14 163.56 C50.26 163.96 50.06 164.39 49.71 164.61 C48.71 165.25 47.59 165.73 46.43 165.97 C45.86 166.09 45.28 166.16 44.71 166.18 C44.14 166.2 43.46 166.23 43.13 165.68 z M51.36 172.54 C51.15 173.59 49.84 173.98 48.94 174.23 C47.94 174.51 46.88 174.6 45.84 174.49 C44.92 174.4 44.57 173.29 45.38 172.75 C45.89 172.4 46.44 172.12 47.01 171.92 C47.69 171.59 48.41 171.28 49.13 171.1 C50.09 170.87 51.62 171.24 51.36 172.54 z M57.86 180.32 C57.2 180.97 55.9 181.07 55.02 181.01 C54 180.94 53.03 180.65 52.05 180.33 C51.23 180.06 51.11 178.75 52.05 178.53 C52.49 178.43 52.92 178.35 53.35 178.3 C53.47 178.23 53.61 178.18 53.79 178.18 C54.75 178.12 55.81 177.94 56.77 178.16 C57.69 178.37 58.78 179.41 57.86 180.32 z M59.01 172.1 C59.8 171.71 60.63 171.63 61.44 171.73 C62.17 171.73 62.88 171.8 63.57 172.06 C64.02 172.23 64.53 172.46 64.78 172.91 C65.03 173.37 64.96 173.98 64.6 174.37 C63.92 175.1 62.65 174.83 61.76 174.72 C60.78 174.59 59.81 174.32 59.01 173.71 C58.51 173.33 58.32 172.45 59.01 172.1 z M63.81 188 C62.87 188.31 61.75 188.09 60.86 187.73 C59.97 187.37 58.63 186.9 58.87 185.71 C58.95 185.3 59.38 185.05 59.76 185.03 C60.65 184.97 61.51 185.09 62.32 185.35 C62.34 185.35 62.35 185.36 62.37 185.36 C62.84 185.43 63.32 185.48 63.74 185.71 C64.61 186.19 64.96 187.61 63.81 188 z M67.02 182.95 C66.26 182.86 65.51 182.69 64.79 182.43 C64.16 182.2 63.21 181.94 62.8 181.37 C62.22 180.59 62.84 179.67 63.72 179.61 C64.42 179.57 65.2 179.73 65.88 179.92 L65.88 179.92 C66.23 179.97 66.59 180.02 66.93 180.14 C67.56 180.36 68.32 180.8 68.52 181.5 C68.79 182.49 67.9 183.06 67.02 182.95 z M72.38 190.57 C70.89 190.63 69.43 190.29 68.12 189.6 C67.42 189.23 67.57 188.07 68.34 187.89 C68.78 187.79 69.21 187.76 69.63 187.79 C70.87 187.75 72.21 187.95 73.03 188.98 C73.54 189.6 73.24 190.53 72.38 190.57 z M75.93 186.01 C75.12 185.9 74.35 185.63 73.61 185.26 C72.89 184.89 72.28 184.05 73.03 183.33 C73.16 183.21 73.3 183.13 73.46 183.07 C73.69 182.82 74.05 182.74 74.41 182.79 C75.28 182.91 76.15 183.03 77.02 183.16 C77.74 183.27 78.45 183.5 78.92 184.1 C79.47 184.81 79.11 185.74 78.28 186 C77.54 186.22 76.67 186.12 75.93 186.01 z M82.57 192.99 C82.17 193.8 81.26 193.78 80.48 193.68 C79.6 193.57 78.77 193.3 77.98 192.88 C77.63 192.7 77.42 192.2 77.55 191.83 C77.63 191.58 77.76 191.38 77.92 191.23 C78.03 190.9 78.31 190.64 78.77 190.66 C79.65 190.69 80.55 190.82 81.38 191.1 C82.18 191.38 83.02 192.06 82.57 192.99 z M81.86 181.08 C81.13 180.63 80.61 179.57 81.51 178.98 C82.14 178.58 83.14 178.7 83.83 178.8 C83.95 178.82 84.06 178.84 84.18 178.86 C85.24 178.89 86.29 179.12 87.05 179.88 C87.74 180.57 87.48 181.66 86.52 181.93 C85.76 182.15 84.86 182.05 84.09 181.92 C83.32 181.78 82.52 181.49 81.86 181.08 z M83.7 188.62 C82.97 188.22 83.19 187.14 83.92 186.91 C84.19 186.83 84.46 186.77 84.73 186.74 C84.84 186.69 84.96 186.67 85.09 186.68 C85.21 186.69 85.34 186.7 85.47 186.71 C85.58 186.71 85.68 186.72 85.78 186.73 C86.56 186.78 87.38 186.81 88.1 187.03 C89 187.3 90.06 188.25 89.33 189.22 C88.74 190.01 87.26 189.71 86.43 189.58 C85.47 189.43 84.56 189.08 83.7 188.62 z M92.66 193.99 C92.2 194.59 91.24 194.58 90.55 194.57 C89.73 194.56 88.93 194.41 88.16 194.13 C87.49 193.89 87.14 192.78 87.95 192.42 C88.38 192.23 88.81 192.13 89.24 192.09 C89.29 192.08 89.34 192.07 89.39 192.07 C90.2 192 91.09 191.99 91.9 192.18 C92.68 192.37 93.22 193.26 92.66 193.99 z M99.38 190.59 C99.26 191.01 98.89 191.24 98.48 191.27 C97.62 191.34 96.76 191.32 95.92 191.21 C95.15 191.11 94.33 191 93.8 190.35 C93.43 189.88 93.45 188.91 94.22 188.79 C94.66 188.72 95.09 188.69 95.51 188.68 C96.91 188.53 99.96 188.49 99.38 190.59 z M107.2 186.33 C106.82 186.61 106.32 186.6 105.86 186.62 C105.33 186.64 104.81 186.64 104.29 186.61 C103.46 186.56 102.39 186.55 101.8 185.86 C101.39 185.37 101.49 184.77 102 184.4 C102.7 183.88 103.7 183.84 104.65 183.97 C105.28 183.97 105.93 184 106.49 184.18 C107.37 184.45 108.14 185.62 107.2 186.33 z M109.04 180.05 C108.27 180.35 107.47 180.29 106.66 180.17 C105.78 180.04 104.91 179.82 104.07 179.52 C103.21 179.22 103.15 178 104.07 177.72 C105.39 177.31 106.81 177.3 108.14 177.68 C108.17 177.68 108.2 177.7 108.22 177.71 C108.63 177.72 109.03 177.81 109.34 178.01 C110.24 178.58 109.92 179.7 109.04 180.05 z M111.82 162.23 C111.3 162.18 110.62 162.17 110.17 161.9 C109.58 161.55 109.48 160.75 109.87 160.23 C110.08 159.96 110.41 159.78 110.75 159.65 C112.32 158.61 114.38 158.35 116.18 158.95 C116.89 159.19 117.04 159.95 116.59 160.51 C115.9 161.38 114.83 161.95 113.74 162.14 C113.11 162.25 112.46 162.28 111.82 162.23 z M120.56 170.66 C119.59 171.45 118.49 172.04 117.28 172.34 C116.69 172.48 116.08 172.56 115.47 172.57 C114.88 172.58 114.13 172.59 113.65 172.18 C113.14 171.75 113.03 171 113.35 170.41 C113.68 169.82 114.35 169.58 114.96 169.38 C115.65 169.16 116.4 169.01 117.13 168.94 C118.2 168.6 119.31 168.55 120.37 169.19 C120.83 169.48 121.04 170.26 120.56 170.66 z M122.52 159.56 C122.1 159.58 121.58 159.6 121.21 159.38 C120.79 159.12 120.59 158.59 120.72 158.11 C120.95 157.28 121.98 156.88 122.7 156.56 C123.04 156.41 123.39 156.27 123.74 156.15 C123.99 156 124.24 155.85 124.5 155.72 C125.23 155.33 126.12 155.06 126.87 155.51 C127.32 155.77 127.6 156.23 127.55 156.74 C127.51 157.19 127.23 157.5 126.9 157.79 C126.28 158.33 125.59 158.75 124.83 159.07 C124.1 159.36 123.32 159.52 122.52 159.56 z M130.66 166.28 C130.26 167.23 129.03 167.94 128.12 168.33 C127.13 168.76 126.06 168.96 124.98 168.89 C124.15 168.83 123.78 167.92 124.31 167.29 C124.92 166.58 125.67 166 126.5 165.58 C127.08 165.16 127.74 164.84 128.44 164.66 C128.97 164.53 129.6 164.41 130.11 164.68 C130.7 165 130.92 165.68 130.66 166.28 z M138.92 151.17 C137.96 153.94 134.98 154.55 132.37 154.51 C131.65 154.5 131.22 153.73 131.57 153.11 C132.36 151.66 133.84 150.65 135.47 150.4 C136.29 150.08 137.16 149.93 138.03 149.98 C138.59 150.02 139.14 150.56 138.92 151.17 z" style="fill:#EE916A;" /><path d="M147.99 131.32 C145.04 134.08 141.6 136.2 138.02 138.03 C134.44 139.85 130.71 141.78 126.76 142.62 C122.65 143.49 118.34 142.92 114.28 142.03 C106.98 140.44 99.74 136.67 96.04 129.91 C94.09 126.36 93.58 122.36 93.43 118.37 C93.28 114.55 93.19 110.53 94.56 106.9 C84.8 103.1 76.14 95.54 65.36 94.83 C59.64 94.46 54.08 96.16 48.74 97.98 C43.63 99.72 38.52 101.62 33.97 104.57 C31.65 106.06 29.5 107.87 27.37 109.71 C27.38 109.73 27.39 109.76 27.39 109.78 C27.98 111.63 28.35 113.55 28.46 115.48 C28.81 121.49 26.35 127.55 21.4 131.08 C23.02 134.18 24.44 137.41 25.82 140.62 C27.18 143.79 28.54 146.97 29.89 150.14 C30.04 149.92 30.2 149.7 30.37 149.48 C34.77 143.66 41.58 140.07 48.66 138.67 C57.23 136.98 66.26 138.01 74.72 139.88 C78.96 140.81 83.03 142.19 86.92 144.12 C90.63 145.97 94.21 148.15 98.16 149.47 C106.25 152.18 114.98 151.11 123.17 149.4 C131.25 147.71 139.61 145.77 146.71 141.4 C146.82 141.33 146.92 141.29 147.02 141.27 C149.54 135.58 151.84 129.78 154.1 123.98 C152.33 126.63 150.32 129.14 147.99 131.32 z M59.09 116.46 C57.08 116.23 55.07 115.43 53.67 113.91 C52.28 112.4 51.67 110.31 52.07 108.29 C52.21 107.55 52.52 106.9 52.93 106.34 C52.91 106.12 53 105.89 53.2 105.7 C56.35 102.6 61.17 101.34 65.42 102.59 C67.4 103.18 69.32 104.31 70.42 106.11 C71.51 107.89 71.64 110.2 70.46 111.97 C69.36 113.61 67.59 114.57 65.81 115.29 C63.71 116.14 61.38 116.72 59.09 116.46 z M83.51 128.33 C83.32 130.27 82.6 132.3 81.57 133.94 C80.6 135.48 79.21 136.71 77.46 137.27 C75.84 137.79 74 137.71 72.42 137.1 C69.07 135.81 67.13 132.33 67.45 128.8 C67.75 125.64 69.77 122.92 72.6 121.62 C73.56 121.08 74.63 120.76 75.75 120.7 C77.81 120.6 79.84 121.49 81.32 122.88 C82.81 124.31 83.71 126.25 83.51 128.33 z" style="fill:#BF8C3B;" /><path d="M79.45 123.75 C77.51 122.32 75.04 122.25 73.06 123.58 C72.66 123.84 72.3 124.14 71.94 124.44 C70.24 125.87 69.21 127.44 69.29 129.78 C69.37 132.49 71.09 134.91 73.76 135.58 C74.99 135.89 76.35 135.82 77.5 135.28 C78.82 134.67 79.75 133.5 80.4 132.23 C81.13 130.84 81.72 129.15 81.68 127.57 C81.64 126.03 80.65 124.63 79.45 123.75 z" style="fill:#BE6600;" /><path d="M26.23 120.34 C26.89 117.26 26.67 114.05 25.82 111.02 C22.37 113.99 18.87 116.87 14.69 118.51 C18.43 119.48 22.26 120.09 26.12 120.32 C26.17 120.33 26.2 120.34 26.23 120.34 z" style="fill:#EE916A;" /><path d="M60.41 93.14 C62.57 92.91 64.73 92.88 66.91 93.13 C67.55 89.17 67.95 85.17 68.11 81.16 C65.42 81.56 62.77 82.27 60.33 83.4 C60.59 86.63 60.63 89.89 60.41 93.14 z" style="fill:#EE916A;" /><path d="M77.58 81.04 C75.73 80.79 73.85 80.72 71.97 80.8 C71.31 80.83 70.65 80.87 69.98 80.94 C69.83 85.12 69.41 89.28 68.73 93.41 C70.64 93.77 72.47 94.31 74.24 94.97 C75.49 90.35 76.59 85.71 77.58 81.04 z" style="fill:#EE916A;" /><path d="M238.98 43.7 C237.22 42.79 235.1 43.19 233.13 43.86 C233.81 42.95 234.42 41.96 234.93 41.01 C235.66 39.65 236.66 37.59 236.14 35.96 C236.12 34.53 235.68 33.09 234.83 31.93 C234.06 30.88 232.96 30.24 231.76 29.86 C230.41 29.29 228.83 29.23 227.3 29.42 C225.66 29.54 224.05 29.95 222.56 30.62 C221.04 31.18 219.53 31.91 218.31 32.94 C218.88 31.61 219.25 30.2 219.46 28.81 C219.72 27.02 219.73 25.05 219.11 23.33 C218.85 21.55 218.25 19.74 217.25 18.29 C215.88 16.33 213.38 15.75 211.12 15.75 C209.3 15.75 207.5 16.16 205.85 16.92 C203.48 17.9 201.38 19.59 199.82 21.64 C199.34 20.08 198.7 18.55 197.88 17.14 C196.73 15.14 195.1 13.27 192.86 12.51 C192.36 12.34 191.84 12.24 191.31 12.21 C188.38 11.44 185.23 12.01 182.49 13.26 C179.21 14.76 176.39 17.1 173.93 19.72 C171.58 22.23 169.6 25.05 167.96 28.06 C164.64 34.14 162.68 40.96 161.84 47.82 C160.8 56.29 161.28 64.86 162.21 73.31 C162.89 79.55 163.75 85.78 164.61 92.01 C165.01 85.22 165.49 78.44 166.32 71.69 C167.19 64.61 168.43 57.56 170.36 50.69 C171.28 47.37 172.36 44.02 174.09 41.03 C175.53 38.55 177.45 36.34 179.66 34.53 C184.27 30.79 190.1 28.75 196.05 29.07 C202.27 29.4 208.17 32.09 212.49 36.58 C214.79 38.97 216.77 41.75 218.42 44.62 C220.06 47.47 221.3 50.56 221.64 53.85 C222.25 59.72 219.69 65.4 215.99 69.82 C211.96 74.64 206.53 77.87 200.85 80.4 C194.77 83.11 188.39 85.14 182.4 88.06 C178.67 89.86 175.08 91.92 171.65 94.22 C175.89 92.25 180.26 90.53 184.68 89.01 C191.1 86.81 197.66 85.02 204.26 83.45 C210.26 82.02 216.36 80.92 222.25 79.06 C227.75 77.33 233.15 74.83 237.23 70.67 C239.17 68.7 241.07 65.95 240.71 63.03 C240.63 62.34 240.36 61.62 239.95 60.99 C239.69 60.42 239.33 59.89 238.93 59.43 C238 58.36 236.73 57.79 235.37 57.51 C236.71 57.15 237.99 56.59 239.21 55.93 C240.72 55.12 242.71 54.25 243.42 52.59 C243.77 52.09 244.05 51.54 244.22 50.95 C244.75 49.22 244.15 47.53 243 46.17 C241.94 44.9 240.5 44.04 238.98 43.7 z M189.99 24.76 C189.39 26.02 188.31 27.34 187.02 27.95 C185.64 28.61 183.97 28.59 182.63 27.84 C181.19 27.03 180.56 25.53 180.68 23.92 C180.8 22.23 181.54 20.7 182.69 19.63 C182.82 19.48 182.95 19.33 183.09 19.2 C185.31 17.09 189.08 17.51 190.29 20.49 C190.84 21.88 190.63 23.43 189.99 24.76 z M213.48 27.59 C212.62 30.15 210.25 32.05 207.46 31.44 C204.56 30.81 203.57 27.48 204.87 25.03 C205.17 24.45 205.74 23.79 206.44 23.22 C207.35 22.08 208.69 21.36 210.3 21.55 C211.51 21.7 212.67 22.32 213.31 23.4 C214.04 24.64 213.91 26.27 213.48 27.59 z M220.39 42.64 C219.53 41.42 219.64 39.75 220.32 38.48 C220.34 38.43 220.38 38.39 220.4 38.34 C220.56 37.79 220.79 37.28 221.05 36.91 C221.99 35.53 223.54 34.66 225.12 34.23 C226.52 33.86 227.98 34.06 228.99 35.15 C229.86 36.08 230.29 37.39 230.13 38.65 C229.78 41.52 226.87 44 224.06 44.26 C222.66 44.38 221.2 43.8 220.39 42.64 z M235.72 67.78 C234.81 69.82 232.24 71.86 229.9 71.32 C227.53 70.77 226.45 67.97 227.21 65.82 C227.4 65.27 227.69 64.78 228.04 64.36 C228.06 64.24 228.11 64.13 228.16 64.03 C228.42 63.42 228.93 62.95 229.51 62.64 C230.71 62 232.35 61.56 233.65 62.06 C235.94 62.93 236.64 65.69 235.72 67.78 z M232.71 55.32 C231.37 55.3 229.96 54.85 229.1 53.77 C228.32 52.79 228.35 51.63 228.89 50.61 C228.94 50.45 228.99 50.29 229.05 50.13 C229.66 48.65 231.04 47.69 232.52 47.22 C233.85 46.8 235.43 46.67 236.7 47.35 C237.85 47.97 238.6 49.3 238.6 50.6 C238.61 53.5 235.31 55.36 232.71 55.32 z" style="fill:#BF8C3B;" /><path d="M95.7 109.62 C95.3 111.48 95.22 113.38 95.22 115.28 C95.24 117.23 95.29 119.2 95.47 121.15 C95.82 124.82 96.87 128.25 99.1 131.22 C103.54 137.11 110.86 139.76 117.9 140.81 C119.9 141.11 121.94 141.3 123.96 141.16 C125.9 141.03 127.79 140.52 129.61 139.85 C131.42 139.19 133.16 138.35 134.91 137.51 C136.66 136.67 138.38 135.79 140.06 134.82 C140.48 134.58 140.89 134.33 141.3 134.07 C141.29 134.02 141.27 133.96 141.27 133.9 C141.04 131.84 140.7 129.78 140.27 127.74 C138.79 120.67 136.19 113.87 132.56 107.62 C131.16 107.84 129.76 108.04 128.36 108.23 C122.8 108.96 117.2 109.38 111.59 109.47 C106.4 109.56 101.24 109.17 96.31 107.55 C96.06 108.21 95.85 108.91 95.7 109.62 z" style="fill:#BE6600;" /><path d="M85.89 100.65 C88.33 96.14 91.08 91.82 94.14 87.71 C94 87.62 93.85 87.53 93.7 87.45 C91.89 86.4 90.02 85.44 88.14 84.52 C86.06 89.18 83.98 93.84 81.9 98.49 C83.23 99.2 84.57 99.93 85.89 100.65 z" style="fill:#EE916A;" /><path d="M142.09 127.42 L142.09 127.42 C142.47 129.24 142.77 131.08 143.01 132.93 C145.1 131.45 147.05 129.77 148.78 127.84 C151.19 125.17 153.18 122.18 155 119.09 C155.88 117.59 156.73 116.07 157.56 114.54 C153.51 119.96 148.18 124.44 142.09 127.42 z" style="fill:#EE916A;" /><path d="M102.03 107.04 C102.05 106.99 102.07 106.93 102.1 106.88 C102.7 105.68 103 104.41 103.06 103.13 C101.62 104.21 100.17 105.27 98.7 106.32 C99.8 106.62 100.91 106.86 102.03 107.04 z" style="fill:#EE916A;" /><path d="M25.74 122.17 C21.8 121.91 17.89 121.29 14.07 120.28 C14.56 120.8 15.01 121.33 15.46 121.87 C17.4 124.23 19.05 126.77 20.51 129.42 C22.97 127.64 24.77 125.04 25.74 122.17 z" style="fill:#EE916A;" /><path d="M80.25 97.64 C82.32 93 84.39 88.36 86.47 83.72 C84.34 82.74 82.14 81.92 79.84 81.42 C79.7 81.39 79.56 81.36 79.43 81.33 C78.42 86.13 77.29 90.91 76.01 95.64 C77.44 96.26 78.85 96.93 80.25 97.64 z" style="fill:#EE916A;" /><path d="M96.48 105.63 C96.49 105.63 96.49 105.63 96.48 105.63 C98.66 104.07 100.81 102.5 102.93 100.91 C102.62 98.82 101.79 96.74 100.75 94.85 C98.15 97.94 95.62 101.09 93.18 104.32 C94.26 104.81 95.37 105.24 96.48 105.63 z" style="fill:#EE916A;" /><path d="M137.51 113.18 C139.31 112.34 141.12 111.49 142.91 110.62 C148.64 107.83 154.31 104.78 159.34 100.86 C151.27 103.7 142.97 105.85 134.54 107.29 C135.4 108.8 136.2 110.35 136.94 111.92 C137.13 112.34 137.32 112.77 137.51 113.18 z" style="fill:#EE916A;" /><path d="M91.46 103.54 C94.13 100.01 96.89 96.55 99.75 93.17 C99.47 92.74 99.19 92.32 98.91 91.92 C98 90.67 96.91 89.64 95.69 88.75 C92.66 92.81 89.94 97.09 87.54 101.54 C88.84 102.23 90.14 102.91 91.46 103.54 z" style="fill:#EE916A;" /><path d="M140.45 121.04 C140.9 122.53 141.32 124.03 141.67 125.54 C143.66 124.53 145.57 123.37 147.37 122.06 C153.09 117.88 157.69 112.18 160.61 105.72 C160.58 105.76 160.54 105.8 160.52 105.84 C155.23 112.53 147.73 116.87 140.45 121.04 z" style="fill:#EE916A;" /><path d="M138.24 114.9 C138.83 116.33 139.37 117.77 139.86 119.23 C141.81 118.11 143.75 116.99 145.66 115.82 C151.56 112.19 157.3 107.83 161.01 101.91 C160.2 102.55 159.38 103.18 158.54 103.78 C152.26 108.3 145.22 111.62 138.24 114.9 z" style="fill:#EE916A;" /><path d="M202.82 77.42 C208.09 74.79 212.97 71.31 216.28 66.36 C217.83 64.07 219 61.53 219.55 58.81 C220.12 56.01 219.9 53.15 219.03 50.43 C218.07 47.43 216.42 44.68 214.61 42.11 C212.81 39.55 210.73 37.09 208.18 35.23 C203.51 31.83 197.46 30.25 191.73 31.11 C186.28 31.93 181.27 34.83 177.75 39.06 C175.79 41.42 174.44 44.2 173.44 47.08 C172.33 50.3 171.49 53.62 170.73 56.94 C169.2 63.71 168.24 70.6 167.58 77.5 C166.99 83.58 166.62 89.68 166.28 95.79 C166.84 95.36 167.41 94.94 167.98 94.52 C173.26 90.69 178.96 87.45 184.94 84.85 C190.86 82.29 197.04 80.32 202.82 77.42 z M175.31 82.1 C174.65 82.32 174.21 81.82 174.17 81.27 C174.14 81.15 174.14 81.01 174.18 80.86 C174.37 79.99 174.57 79.11 174.77 78.23 C175.57 74.64 176.37 71.03 177.17 67.44 C177.86 64.3 178.5 61.12 179.62 58.1 C180.68 55.26 182.18 52.51 184.46 50.47 C186.58 48.58 189.26 47.24 192.13 47.09 C197.97 46.8 202.31 52.1 202.54 57.62 C202.82 64.22 198.25 69.67 193.18 73.29 C190.53 75.19 187.64 76.79 184.71 78.22 C181.67 79.73 178.53 81.02 175.31 82.1 z" style="fill:#BE6600;" /><path d="M81.32 122.89 C79.84 121.49 77.81 120.61 75.75 120.71 C74.63 120.77 73.56 121.08 72.6 121.63 C69.77 122.93 67.74 125.65 67.45 128.81 C67.13 132.34 69.07 135.83 72.42 137.11 C74 137.72 75.85 137.8 77.46 137.28 C79.21 136.72 80.59 135.49 81.57 133.95 C82.61 132.31 83.33 130.28 83.51 128.34 C83.71 126.25 82.81 124.31 81.32 122.89 z M80.4 132.22 C79.75 133.49 78.82 134.66 77.5 135.27 C76.35 135.81 74.99 135.88 73.76 135.57 C71.09 134.9 69.37 132.49 69.29 129.77 C69.22 127.43 70.25 125.85 71.94 124.43 C72.3 124.13 72.67 123.83 73.06 123.57 C75.04 122.24 77.51 122.31 79.45 123.74 C80.65 124.63 81.64 126.03 81.68 127.56 C81.71 129.14 81.12 130.83 80.4 132.22 z" style="fill:#0D273F;" /><path d="M70.47 111.96 C71.65 110.2 71.52 107.88 70.43 106.1 C69.33 104.3 67.4 103.17 65.43 102.58 C61.18 101.33 56.35 102.59 53.21 105.69 C53 105.89 52.92 106.11 52.94 106.33 C52.53 106.89 52.22 107.54 52.08 108.28 C51.68 110.3 52.29 112.39 53.68 113.9 C55.08 115.42 57.09 116.22 59.1 116.45 C61.38 116.71 63.72 116.13 65.83 115.27 C67.6 114.56 69.37 113.6 70.47 111.96 z M61.29 114.59 C58.2 114.91 54.27 113.61 53.84 110.06 C53.74 109.28 53.85 108.44 54.23 107.74 C54.68 106.92 55.43 106.37 56.23 105.93 C57.71 105.1 59.54 104.24 61.32 104.26 C61.2 107.69 61.42 111.11 61.91 114.51 C61.7 114.54 61.49 114.57 61.29 114.59 z" style="fill:#0D273F;" /><path d="M42.85 147.16 C42.36 146.25 41.23 146.2 40.44 146.69 C40.05 146.92 39.68 147.21 39.33 147.51 C38.22 148.23 37.18 149.1 36.29 150.09 C35.72 150.73 34.95 151.71 35.73 152.54 C36.36 153.22 37.41 152.84 38.16 152.57 C39.78 151.99 41.26 151 42.34 149.65 C42.92 148.94 43.33 148.05 42.85 147.16 z" style="fill:#0D273F;" /><path d="M51.05 147.8 C52.65 147.73 54.31 147.58 55.72 146.78 C56.41 146.39 57.14 145.68 56.93 144.81 C56.73 143.96 55.87 143.73 55.11 143.63 C54.1 143.5 53.09 143.66 52.17 144.05 C51.48 144.25 50.82 144.54 50.22 144.92 C49.51 145.36 48.65 146.05 49.08 147 C49.43 147.8 50.3 147.84 51.05 147.8 z" style="fill:#0D273F;" /><path d="M64.57 147.99 C65.34 148.21 66.15 148.32 66.96 148.31 C67.69 148.3 68.53 148.24 69.15 147.82 C69.83 147.37 70.11 146.5 69.71 145.76 C69.35 145.09 68.56 144.74 67.87 144.51 C66.91 144.2 65.86 144.16 64.88 144.39 C64.26 144.43 63.66 144.58 63.15 144.86 C62.41 145.26 62.11 146.13 62.58 146.86 C62.99 147.52 63.86 147.79 64.57 147.99 z" style="fill:#0D273F;" /><path d="M75.93 151.32 C76.7 151.69 77.53 151.96 78.38 152.09 C79.14 152.21 80.02 152.31 80.63 151.74 C81.43 150.98 80.96 149.88 80.23 149.3 C79.02 148.34 77.45 147.98 75.94 148.2 C75.14 148.25 74.47 148.55 74.28 149.32 C74.03 150.38 75.15 150.94 75.93 151.32 z" style="fill:#0D273F;" /><path d="M87.09 157.07 C87.86 157.43 88.66 157.66 89.51 157.74 C90.35 157.82 91.28 157.73 91.73 156.9 C92.15 156.11 91.89 155.14 91.24 154.56 C89.93 153.38 87.75 153.28 86.11 153.54 C85.86 153.58 85.68 153.72 85.58 153.9 C85.52 153.94 85.46 153.99 85.42 154.04 C85.11 154.37 84.99 154.89 85.12 155.33 C85.4 156.18 86.34 156.72 87.09 157.07 z" style="fill:#0D273F;" /><path d="M100.97 160.99 C101.74 161.01 102.67 161.03 103.35 160.63 C104.06 160.22 104.38 159.3 103.82 158.61 C103.31 157.98 102.29 157.83 101.53 157.74 C100.87 157.66 100.19 157.7 99.55 157.84 C99.54 157.84 99.53 157.84 99.53 157.84 C98.71 157.81 97.73 157.77 97.28 158.6 C96.14 160.66 99.78 160.95 100.97 160.99 z" style="fill:#0D273F;" /><path d="M116.6 160.51 C117.05 159.95 116.9 159.19 116.19 158.95 C114.39 158.35 112.33 158.61 110.76 159.65 C110.42 159.78 110.09 159.96 109.88 160.23 C109.48 160.75 109.58 161.55 110.18 161.9 C110.63 162.17 111.31 162.18 111.83 162.23 C112.47 162.28 113.12 162.25 113.76 162.14 C114.84 161.95 115.91 161.38 116.6 160.51 z" style="fill:#0D273F;" /><path d="M126.91 157.78 C127.24 157.49 127.52 157.18 127.56 156.73 C127.6 156.22 127.32 155.76 126.88 155.5 C126.12 155.06 125.23 155.32 124.51 155.71 C124.25 155.85 124 155.99 123.75 156.14 C123.4 156.26 123.05 156.4 122.71 156.55 C121.99 156.87 120.96 157.27 120.73 158.1 C120.6 158.57 120.8 159.11 121.22 159.37 C121.59 159.6 122.11 159.58 122.53 159.55 C123.33 159.51 124.11 159.34 124.85 159.04 C125.59 158.74 126.29 158.32 126.91 157.78 z" style="fill:#0D273F;" /><path d="M138.03 149.99 C137.16 149.94 136.28 150.09 135.47 150.41 C133.85 150.65 132.36 151.67 131.57 153.12 C131.22 153.74 131.65 154.51 132.37 154.52 C134.98 154.55 137.96 153.95 138.92 151.18 C139.14 150.56 138.59 150.02 138.03 149.99 z" style="fill:#0D273F;" /><path d="M120.36 169.19 C119.3 168.55 118.19 168.6 117.12 168.94 C116.39 169.01 115.64 169.16 114.95 169.38 C114.34 169.58 113.67 169.81 113.34 170.41 C113.02 171 113.13 171.75 113.64 172.18 C114.13 172.58 114.87 172.58 115.46 172.57 C116.07 172.56 116.68 172.48 117.27 172.34 C118.48 172.04 119.58 171.45 120.55 170.66 C121.04 170.26 120.83 169.48 120.36 169.19 z" style="fill:#0D273F;" /><path d="M130.12 164.68 C129.62 164.41 128.98 164.53 128.45 164.66 C127.75 164.84 127.09 165.15 126.51 165.58 C125.68 166 124.93 166.58 124.32 167.29 C123.79 167.92 124.16 168.83 124.99 168.89 C126.07 168.96 127.14 168.76 128.13 168.33 C129.04 167.94 130.26 167.23 130.67 166.28 C130.92 165.68 130.7 165 130.12 164.68 z" style="fill:#0D273F;" /><path d="M48.74 156.74 C50.31 156.65 51.84 156.24 53.24 155.54 C53.85 155.24 54.79 154.84 55.02 154.15 C55.3 153.3 54.62 152.61 53.8 152.56 C52.99 152.51 52.06 152.82 51.29 153.05 C50.88 153.18 50.47 153.33 50.07 153.49 C49.59 153.65 49.13 153.84 48.67 154.06 C48 154.37 47.08 154.74 47.04 155.61 C47 156.61 47.95 156.79 48.74 156.74 z" style="fill:#0D273F;" /><path d="M61.08 156.28 C61.88 156.56 62.77 156.67 63.62 156.63 C64.4 156.59 65.47 156.51 66.08 155.96 C66.81 155.3 66.48 154.41 65.77 153.92 C64.58 153.12 63.07 153.19 61.73 153.57 C61.11 153.66 60.44 153.89 60.11 154.4 C59.55 155.29 60.28 156 61.08 156.28 z" style="fill:#0D273F;" /><path d="M41.77 156.12 C41.32 155.78 40.73 155.8 40.21 155.98 C39.66 156.18 39.19 156.51 38.75 156.89 C37.95 157.38 37.26 158.02 36.71 158.82 C36.32 159.39 36.83 160.27 37.52 160.23 C38.46 160.17 39.36 159.92 40.19 159.47 C40.92 159.07 41.98 158.32 42.23 157.47 C42.39 156.97 42.19 156.43 41.77 156.12 z" style="fill:#0D273F;" /><path d="M73.92 160.1 C74.55 160.49 75.35 160.8 76.09 160.96 C76.81 161.12 77.65 161.18 78.35 160.87 C79.11 160.54 79.37 159.67 78.86 159 C78.43 158.42 77.59 158.11 76.91 157.94 C76.31 157.8 75.71 157.78 75.12 157.84 C74.56 157.77 73.95 157.78 73.58 158.15 C72.98 158.76 73.25 159.68 73.92 160.1 z" style="fill:#0D273F;" /><path d="M88.94 162.71 C88.78 162.67 88.61 162.63 88.45 162.61 C87.51 162.46 86.46 162.4 85.9 163.32 C85.63 163.77 85.82 164.33 86.24 164.6 C87.13 165.19 88.11 165.7 89.16 165.96 C90.07 166.18 91.68 166.45 92.28 165.51 C93.01 164.39 91.76 163.53 90.86 163.14 C90.23 162.87 89.59 162.74 88.94 162.71 z" style="fill:#0D273F;" /><path d="M102.08 166.89 C101.87 166.87 101.64 166.87 101.43 166.87 C100.71 166.88 99.43 166.87 99.02 167.59 C98.04 169.27 101.51 170.13 102.56 170.27 C103.35 170.37 104.26 170.36 104.98 170 C105.75 169.61 106.13 168.66 105.64 167.89 C105.14 167.09 104.11 167 103.25 166.93 C102.87 166.88 102.48 166.88 102.08 166.89 z" style="fill:#0D273F;" /><path d="M80.63 172.14 C81.39 173.07 82.38 173.76 83.49 174.2 C84.45 174.57 85.99 174.99 86.93 174.38 C87.5 174.01 87.72 173.23 87.39 172.62 C87.11 172.1 86.57 171.76 86.03 171.54 C85.25 171.21 84.39 171.02 83.53 170.84 C82.62 170.5 81.42 169.98 80.63 170.82 C80.25 171.21 80.3 171.74 80.63 172.14 z" style="fill:#0D273F;" /><path d="M90.83 176.59 C90.68 176.96 90.92 177.46 91.26 177.65 C92.35 178.23 93.49 178.75 94.69 179.06 C95.76 179.34 97.28 179.54 98.25 178.87 C98.76 178.52 98.88 177.84 98.56 177.33 C98.24 176.83 97.68 176.53 97.12 176.35 C96.44 176.14 95.68 176.05 94.94 176.03 C94.59 175.96 94.24 175.9 93.88 175.85 C92.79 175.71 91.33 175.36 90.83 176.59 z" style="fill:#0D273F;" /><path d="M109.35 178.01 C109.04 177.8 108.64 177.72 108.23 177.71 C108.2 177.7 108.18 177.68 108.15 177.68 C106.81 177.3 105.4 177.31 104.08 177.72 C103.16 178 103.22 179.22 104.08 179.52 C104.92 179.82 105.79 180.04 106.67 180.17 C107.48 180.29 108.29 180.35 109.05 180.05 C109.92 179.7 110.24 178.58 109.35 178.01 z" style="fill:#0D273F;" /><path d="M68.92 166.38 C68.65 166.82 68.82 167.39 69.25 167.65 C70.16 168.23 71.11 168.76 72.15 169.07 C73.01 169.33 74.76 169.7 75.33 168.74 C76.01 167.6 74.72 166.84 73.84 166.51 C73.32 166.31 72.78 166.19 72.22 166.1 C72.05 166.05 71.87 166 71.68 165.96 C70.8 165.76 69.48 165.43 68.92 166.38 z" style="fill:#0D273F;" /><path d="M57.4 165.48 C58.06 165.9 59.06 166.03 59.81 166.16 C60.68 166.31 61.6 166.46 62.48 166.43 C63.35 166.4 64.24 165.66 63.77 164.72 C63.42 164.03 62.46 163.69 61.73 163.57 C61.54 163.54 61.35 163.52 61.15 163.5 C60.9 163.43 60.64 163.38 60.38 163.34 C59.56 163.22 58.57 163.11 57.76 163.36 C56.8 163.66 56.49 164.89 57.4 165.48 z" style="fill:#0D273F;" /><path d="M49.7 164.61 C50.05 164.39 50.25 163.96 50.13 163.56 C49.76 162.34 48.41 162.57 47.43 162.78 C47.13 162.85 46.82 162.92 46.51 163.01 C46.08 163.07 45.66 163.17 45.24 163.31 C44.36 163.62 42.38 164.4 43.12 165.68 C43.44 166.23 44.13 166.21 44.69 166.19 C45.27 166.17 45.84 166.1 46.41 165.98 C47.59 165.73 48.71 165.25 49.7 164.61 z" style="fill:#0D273F;" /><path d="M49.13 171.1 C48.41 171.28 47.7 171.58 47.01 171.92 C46.43 172.13 45.89 172.41 45.38 172.75 C44.57 173.29 44.92 174.4 45.84 174.49 C46.88 174.6 47.94 174.51 48.94 174.23 C49.85 173.98 51.15 173.58 51.36 172.54 C51.62 171.24 50.09 170.87 49.13 171.1 z" style="fill:#0D273F;" /><path d="M59.01 173.71 C59.82 174.32 60.78 174.59 61.76 174.72 C62.64 174.83 63.91 175.1 64.6 174.37 C64.96 173.98 65.03 173.37 64.78 172.91 C64.52 172.47 64.02 172.23 63.57 172.06 C62.89 171.8 62.17 171.73 61.44 171.73 C60.62 171.63 59.8 171.71 59.01 172.1 C58.32 172.45 58.51 173.33 59.01 173.71 z" style="fill:#0D273F;" /><path d="M72.04 174.65 C71.87 174.62 71.71 174.6 71.55 174.58 C70.74 174.51 69.72 174.56 69.48 175.52 C69.36 176.04 69.65 176.49 70.13 176.67 C71.05 177.01 71.98 177.3 72.92 177.53 C73.8 177.74 74.68 177.93 75.41 177.27 C75.69 177.02 75.8 176.45 75.56 176.14 C74.67 174.97 73.4 174.67 72.04 174.65 z" style="fill:#0D273F;" /><path d="M86.53 181.93 C87.49 181.66 87.75 180.57 87.06 179.88 C86.3 179.12 85.25 178.89 84.19 178.86 C84.07 178.84 83.96 178.81 83.84 178.8 C83.15 178.7 82.14 178.58 81.52 178.98 C80.61 179.58 81.13 180.63 81.87 181.08 C82.53 181.49 83.33 181.78 84.1 181.92 C84.86 182.05 85.77 182.15 86.53 181.93 z" style="fill:#0D273F;" /><path d="M95.4 183.06 C94.62 182.88 93.8 182.86 92.98 183.01 C92.11 183.16 92.17 184.3 92.75 184.71 C93.53 185.27 94.45 185.68 95.4 185.86 C96.21 186.01 97.38 186.21 97.95 185.44 C98.67 184.45 97.7 183.61 96.82 183.3 C96.35 183.15 95.88 183.07 95.4 183.06 z" style="fill:#0D273F;" /><path d="M106.49 184.18 C105.93 184 105.28 183.98 104.65 183.97 C103.7 183.83 102.7 183.88 102 184.4 C101.49 184.77 101.39 185.37 101.8 185.86 C102.39 186.55 103.46 186.56 104.29 186.61 C104.81 186.64 105.33 186.64 105.86 186.62 C106.31 186.6 106.82 186.61 107.2 186.33 C108.14 185.62 107.37 184.45 106.49 184.18 z" style="fill:#0D273F;" /><path d="M89.34 189.22 C90.07 188.24 89.01 187.3 88.11 187.03 C87.38 186.81 86.57 186.78 85.79 186.73 C85.69 186.72 85.58 186.71 85.48 186.71 C85.35 186.7 85.23 186.69 85.1 186.68 C84.97 186.67 84.85 186.69 84.74 186.74 C84.48 186.77 84.2 186.83 83.93 186.91 C83.2 187.14 82.97 188.22 83.71 188.62 C84.57 189.09 85.48 189.43 86.45 189.58 C87.27 189.72 88.75 190.01 89.34 189.22 z" style="fill:#0D273F;" /><path d="M95.51 188.69 C95.09 188.7 94.66 188.73 94.22 188.8 C93.45 188.92 93.43 189.88 93.8 190.36 C94.33 191 95.15 191.12 95.92 191.22 C96.77 191.33 97.63 191.34 98.48 191.28 C98.89 191.25 99.26 191.01 99.38 190.6 C99.96 188.49 96.91 188.53 95.51 188.69 z" style="fill:#0D273F;" /><path d="M78.91 184.1 C78.45 183.51 77.73 183.28 77.01 183.16 C76.14 183.03 75.28 182.92 74.4 182.79 C74.05 182.74 73.68 182.83 73.45 183.07 C73.29 183.12 73.15 183.21 73.02 183.33 C72.27 184.05 72.88 184.89 73.6 185.26 C74.33 185.63 75.11 185.89 75.92 186.01 C76.66 186.12 77.54 186.22 78.26 185.99 C79.1 185.73 79.46 184.81 78.91 184.1 z" style="fill:#0D273F;" /><path d="M68.52 181.5 C68.32 180.8 67.56 180.37 66.93 180.14 C66.59 180.02 66.24 179.97 65.88 179.92 L65.88 179.92 C65.2 179.73 64.42 179.56 63.72 179.61 C62.84 179.67 62.22 180.59 62.8 181.37 C63.21 181.94 64.16 182.21 64.79 182.43 C65.51 182.69 66.26 182.86 67.02 182.95 C67.9 183.06 68.79 182.49 68.52 181.5 z" style="fill:#0D273F;" /><path d="M56.77 178.16 C55.81 177.94 54.76 178.12 53.79 178.18 C53.62 178.19 53.48 178.23 53.35 178.3 C52.92 178.35 52.48 178.43 52.05 178.53 C51.11 178.75 51.23 180.06 52.05 180.33 C53.02 180.65 53.99 180.94 55.02 181.01 C55.89 181.07 57.2 180.97 57.86 180.32 C58.78 179.41 57.69 178.37 56.77 178.16 z" style="fill:#0D273F;" /><path d="M63.73 185.71 C63.31 185.48 62.83 185.43 62.36 185.36 C62.34 185.36 62.33 185.36 62.31 185.35 C61.49 185.09 60.64 184.97 59.75 185.03 C59.37 185.06 58.94 185.3 58.86 185.71 C58.62 186.9 59.96 187.37 60.85 187.73 C61.74 188.09 62.86 188.31 63.8 188 C64.96 187.61 64.61 186.19 63.73 185.71 z" style="fill:#0D273F;" /><path d="M69.64 187.79 C69.21 187.77 68.78 187.79 68.35 187.89 C67.58 188.07 67.43 189.23 68.13 189.6 C69.44 190.29 70.9 190.63 72.39 190.57 C73.25 190.53 73.54 189.6 73.04 188.97 C72.22 187.95 70.88 187.74 69.64 187.79 z" style="fill:#0D273F;" /><path d="M81.39 191.11 C80.56 190.83 79.66 190.7 78.78 190.67 C78.32 190.65 78.04 190.91 77.93 191.24 C77.77 191.39 77.64 191.59 77.56 191.84 C77.43 192.21 77.64 192.71 77.99 192.89 C78.78 193.31 79.61 193.58 80.49 193.69 C81.26 193.79 82.18 193.81 82.58 193 C83.02 192.06 82.18 191.38 81.39 191.11 z" style="fill:#0D273F;" /><path d="M91.89 192.18 C91.08 191.99 90.19 192 89.38 192.07 C89.33 192.07 89.28 192.08 89.23 192.09 C88.8 192.13 88.37 192.23 87.94 192.42 C87.13 192.77 87.49 193.88 88.15 194.13 C88.92 194.4 89.72 194.55 90.54 194.57 C91.23 194.58 92.19 194.6 92.65 193.99 C93.22 193.26 92.68 192.37 91.89 192.18 z" style="fill:#0D273F;" /><path d="M239.82 41.94 C238.63 41.62 237.36 41.56 236.15 41.78 C238.09 38.74 238.76 34.93 236.84 31.62 C234.36 27.3 228.48 26.89 224.12 28.08 C222.84 28.43 221.61 28.94 220.47 29.59 C220.94 28.31 221.15 26.93 221.15 25.53 C221.14 23 220.53 20.29 219.3 18.06 C216.55 13.08 209.77 13.15 205.17 15.19 C203.21 16.06 201.46 17.35 200.08 18.97 C199.68 16.31 198 13.98 195.83 12.36 C192.97 10.22 189.41 9.63 185.94 10.23 C182.19 10.89 178.79 12.91 175.89 15.32 C173.09 17.64 170.68 20.41 168.64 23.4 C164.54 29.41 162 36.43 160.66 43.55 C159.08 51.95 159.19 60.56 159.94 69.03 C160.72 77.95 162.09 86.82 163.28 95.7 C163.35 96.24 163.42 96.78 163.49 97.32 C153.32 101.28 142.73 104.14 131.95 105.82 C126.4 106.69 120.81 107.23 115.21 107.47 C111.48 107.62 107.68 107.71 103.95 107.29 C104.21 106.71 104.4 106.13 104.55 105.53 C107.09 106.75 110.58 106.47 112.51 104.27 C113.47 103.18 113.85 101.63 112.98 100.37 C112.56 99.76 111.92 99.35 111.18 99.3 C110.32 99.25 109.57 99.7 108.97 100.27 C108.1 101.1 109.42 102.42 110.29 101.58 C110.5 101.39 110.83 101.07 111.16 101.16 C111.42 101.23 111.58 101.58 111.61 101.83 C111.73 102.57 111.01 103.23 110.45 103.59 C108.94 104.56 106.95 104.66 105.35 103.84 C105.18 103.75 105.02 103.72 104.86 103.73 C105.05 101.46 104.57 99.16 103.75 96.97 C105.09 96.57 106.36 95.95 107.46 95.1 C108.62 94.21 109.87 93.03 110.26 91.58 C110.66 90.1 109.98 88.42 108.42 88.02 C106.98 87.65 105.42 88.6 105.2 90.11 C105.12 90.61 105.32 91.11 105.85 91.26 C106.29 91.38 106.91 91.11 107 90.61 C107.09 90.02 107.68 89.49 108.24 89.98 C108.92 90.57 108.27 91.68 107.84 92.2 C106.61 93.69 104.9 94.73 103.04 95.24 C103.03 95.24 103.02 95.24 103.01 95.25 C102.61 94.38 102.15 93.53 101.67 92.72 C100.31 90.43 98.64 88.49 96.45 86.96 C96.07 86.7 95.68 86.44 95.28 86.2 C96.15 85.32 96.92 84.35 97.59 83.31 C98.3 82.17 99.17 80.76 98.93 79.36 C98.7 78.1 97.51 77.08 96.23 77.06 C94.89 77.04 93.64 78.08 93.43 79.4 C93.35 79.9 93.55 80.41 94.07 80.55 C94.52 80.67 95.14 80.4 95.22 79.9 C95.31 79.34 95.8 78.76 96.43 78.97 C97.18 79.22 97.18 79.99 96.93 80.61 C96.22 82.35 94.97 83.94 93.62 85.23 C93.61 85.23 93.61 85.23 93.61 85.23 C92.29 84.5 90.94 83.84 89.6 83.17 C87.52 82.12 85.4 81.13 83.19 80.4 C83.79 79.22 84.4 78.05 84.82 76.8 C85.27 75.47 85.5 73.86 84.84 72.55 C84.13 71.14 82.65 70.96 81.33 71.61 C80.01 72.27 78.94 73.82 79.85 75.25 C80.5 76.26 82.12 75.32 81.46 74.31 C81.09 73.73 82.24 73.11 82.71 73.07 C83.34 73.02 83.39 74.04 83.38 74.47 C83.35 76.37 82.23 78.18 81.38 79.85 C78.77 79.18 76.06 78.88 73.37 78.88 C71.82 78.88 70.24 78.97 68.65 79.17 C69.11 76.78 69.62 73.92 67.38 72.32 C66.23 71.5 64.72 71.67 63.87 72.81 C63.19 73.73 63.02 75.2 63.97 76.02 C64.36 76.35 64.92 76.39 65.29 76.02 C65.63 75.68 65.68 75.03 65.29 74.7 C64.99 74.45 65.29 73.88 65.57 73.71 C66.08 73.42 66.66 74.11 66.89 74.49 C67.68 75.9 67 77.88 66.73 79.36 C66.73 79.39 66.72 79.42 66.71 79.46 C63.5 80.04 60.35 81.09 57.56 82.7 C55.17 84.08 53.06 85.96 51.58 88.3 C50.26 90.41 49.29 93.09 49.96 95.55 C45.52 96.95 41.12 98.58 36.99 100.66 C32.58 102.89 28.84 105.95 25.11 109.16 C21.75 112.05 18.28 115.09 14.1 116.72 C13.08 117.12 12.02 117.43 10.95 117.66 C10.45 117.76 10.25 118.15 10.27 118.54 C10.2 118.81 10.27 119.11 10.54 119.36 C15.98 124.29 19.47 130.84 22.44 137.45 C24.64 142.34 26.74 147.28 28.82 152.21 C28.84 152.33 28.89 152.43 28.95 152.53 C30.09 155.21 31.21 157.88 32.35 160.56 C35.47 167.83 38.17 175.63 43.68 181.5 C48.84 187 55.75 190.95 62.64 193.88 C64.49 194.67 66.38 195.37 68.29 195.97 C67.91 204.03 67.73 212.09 67.76 220.16 C67.78 222.16 67.79 224.17 67.83 226.17 C59.64 224.88 51.34 224.38 43.05 224.75 C41.85 224.8 41.85 226.67 43.05 226.61 C50.44 226.29 57.86 226.63 65.19 227.65 C63.88 228.28 62.57 228.89 61.23 229.49 C59.06 230.47 56.88 231.42 54.77 232.52 C52.38 233.75 50.1 235.18 48.08 236.95 C47.16 237.75 48.49 239.06 49.39 238.27 C52.92 235.18 57.29 233.29 61.52 231.39 C63.55 230.48 65.56 229.54 67.55 228.56 C64.02 233.29 60.19 237.8 56.4 242.33 C56.08 242.71 56.02 243.27 56.4 243.65 C56.74 243.98 57.41 244.04 57.72 243.65 C62.19 238.29 66.72 232.97 70.77 227.29 C70.86 227.17 70.89 227.02 70.9 226.88 C72.36 226.13 73.82 225.36 75.26 224.58 C77.82 223.18 80.35 221.72 82.84 220.19 C83.86 219.57 82.92 217.95 81.9 218.58 C77.91 221.01 73.82 223.29 69.67 225.42 C69.54 217.7 69.6 209.97 69.88 202.25 C69.95 200.33 70.02 198.42 70.11 196.5 C75.03 197.85 80.11 198.51 85.24 198.25 C87.99 198.11 90.71 197.74 93.39 197.16 C93.32 204.76 93.46 212.36 93.81 219.95 C93.89 221.59 93.98 223.23 94.07 224.87 C88.15 226.75 81.67 226.09 75.88 228.49 C75.42 228.68 75.08 229.11 75.23 229.64 C75.34 230.08 75.91 230.48 76.38 230.29 C81.15 228.32 86.4 228.42 91.41 227.46 C87.38 230.83 83.31 234.15 79.19 237.39 C78.79 237.7 78.86 238.38 79.19 238.71 C79.57 239.1 80.11 239.02 80.51 238.71 C84.76 235.35 88.97 231.93 93.12 228.43 C91.28 232.82 89.26 237.13 87.05 241.35 C86.5 242.41 88.11 243.36 88.67 242.29 C91.21 237.42 93.51 232.42 95.59 227.34 C95.83 227.23 96 227.02 96.03 226.71 C97.88 225.49 99.55 224.03 101.18 222.54 C103.19 220.71 105.18 218.88 107.18 217.05 C108.07 216.24 106.75 214.92 105.86 215.73 C103.91 217.52 101.95 219.31 100.01 221.1 C98.69 222.3 97.36 223.48 95.92 224.52 C95.51 217.45 95.28 210.36 95.24 203.28 C95.22 201.1 95.23 198.91 95.26 196.72 C99.15 195.73 102.93 194.32 106.54 192.56 C119.93 186.04 130.29 174.79 138.13 162.33 C146.75 148.61 152.43 133.35 158.29 118.32 C158.95 116.64 159.61 114.95 160.28 113.27 C160.4 113.04 160.51 112.82 160.63 112.59 C162.49 108.99 164.27 105.25 165.11 101.26 C165.24 100.66 165.34 100.05 165.43 99.44 C171.33 96.13 177.56 93.44 183.92 91.19 C190.56 88.85 197.36 86.97 204.2 85.33 C210.46 83.83 216.84 82.69 222.98 80.73 C228.76 78.89 234.47 76.2 238.72 71.75 C240.88 69.5 242.76 66.52 242.59 63.27 C242.47 61.03 241.13 58.72 239.15 57.59 C242.1 56.53 244.77 54.86 245.92 51.68 C247.47 47.47 243.85 43.05 239.82 41.94 z M159.34 100.86 C154.31 104.78 148.64 107.83 142.91 110.62 C141.12 111.49 139.31 112.34 137.51 113.18 C137.32 112.76 137.13 112.34 136.93 111.92 C136.19 110.35 135.39 108.8 134.53 107.29 C142.96 105.84 151.27 103.7 159.34 100.86 z M111.59 109.46 C117.2 109.37 122.8 108.95 128.36 108.22 C129.76 108.04 131.16 107.84 132.56 107.61 C136.19 113.86 138.79 120.66 140.27 127.73 C140.7 129.77 141.04 131.82 141.27 133.89 C141.27 133.95 141.29 134.01 141.3 134.06 C140.9 134.32 140.48 134.57 140.06 134.81 C138.38 135.78 136.65 136.66 134.91 137.5 C133.16 138.34 131.42 139.17 129.61 139.84 C127.79 140.51 125.9 141.02 123.96 141.15 C121.94 141.29 119.9 141.1 117.9 140.8 C110.85 139.75 103.53 137.1 99.1 131.21 C96.87 128.25 95.82 124.81 95.47 121.14 C95.29 119.19 95.24 117.22 95.22 115.27 C95.22 113.37 95.29 111.47 95.7 109.61 C95.86 108.9 96.06 108.2 96.31 107.52 C101.24 109.15 106.4 109.54 111.59 109.46 z M103.06 103.13 C103 104.42 102.71 105.68 102.1 106.88 C102.07 106.93 102.04 106.99 102.03 107.04 C100.92 106.85 99.8 106.62 98.7 106.32 C100.16 105.27 101.61 104.2 103.06 103.13 z M102.93 100.91 C100.8 102.5 98.65 104.07 96.48 105.62 C96.48 105.62 96.48 105.62 96.47 105.63 C95.36 105.24 94.25 104.81 93.18 104.33 C95.62 101.1 98.14 97.94 100.75 94.86 C101.79 96.74 102.62 98.82 102.93 100.91 z M95.69 88.75 C96.91 89.64 98.01 90.67 98.91 91.92 C99.19 92.32 99.47 92.74 99.75 93.17 C96.89 96.55 94.13 100.01 91.46 103.54 C90.14 102.91 88.84 102.23 87.54 101.54 C89.94 97.09 92.66 92.81 95.69 88.75 z M93.7 87.45 C93.85 87.54 94 87.63 94.14 87.71 C91.08 91.82 88.33 96.14 85.89 100.65 C84.57 99.93 83.24 99.2 81.9 98.49 C83.98 93.83 86.06 89.17 88.14 84.52 C90.02 85.44 91.89 86.41 93.7 87.45 z M79.83 81.43 C82.13 81.92 84.33 82.75 86.46 83.73 C84.38 88.37 82.31 93.01 80.24 97.65 C78.85 96.94 77.44 96.26 75.99 95.66 C77.27 90.92 78.41 86.15 79.41 81.35 C79.55 81.37 79.69 81.4 79.83 81.43 z M69.98 80.93 C70.65 80.86 71.31 80.82 71.97 80.79 C73.84 80.72 75.72 80.79 77.58 81.03 C76.6 85.7 75.49 90.34 74.26 94.95 C72.49 94.29 70.66 93.75 68.75 93.39 C69.41 89.27 69.83 85.11 69.98 80.93 z M68.11 81.16 C67.95 85.17 67.55 89.16 66.91 93.13 C64.73 92.88 62.57 92.91 60.41 93.14 C60.62 89.89 60.59 86.64 60.33 83.4 C62.77 82.26 65.42 81.55 68.11 81.16 z M53.13 89.35 C54.29 87.48 55.92 85.94 57.78 84.77 C58.02 84.61 58.27 84.46 58.53 84.32 C58.74 87.34 58.74 90.37 58.53 93.39 C56.42 93.73 54.33 94.25 52.26 94.87 C52.07 94.93 51.88 94.98 51.69 95.04 C51.15 93.16 52.16 90.92 53.13 89.35 z M25.82 111.03 C26.68 114.06 26.89 117.27 26.23 120.35 C26.2 120.34 26.16 120.34 26.11 120.33 C22.25 120.1 18.43 119.49 14.68 118.52 C18.87 116.88 22.38 114 25.82 111.03 z M15.46 121.87 C15.01 121.33 14.55 120.8 14.07 120.28 C17.89 121.29 21.8 121.91 25.74 122.17 C24.77 125.03 22.97 127.63 20.51 129.42 C19.05 126.78 17.4 124.23 15.46 121.87 z M139.46 156.51 C132.33 169.08 122.96 180.82 110.45 188.35 C104.2 192.12 97.28 194.8 90.06 195.93 C83.35 196.98 76.58 196.46 70.09 194.62 C69.87 194.23 69.35 194.11 68.93 194.27 C68.58 194.16 68.22 194.05 67.87 193.93 C64.11 192.68 60.5 191.03 57.04 189.13 C53.88 187.4 50.82 185.46 48.06 183.13 C45.19 180.71 42.75 177.89 40.85 174.65 C38.86 171.25 37.36 167.6 35.81 163.98 C34.14 160.05 32.46 156.12 30.78 152.19 C34.41 146.33 40.67 142.57 47.26 140.89 C55.64 138.76 64.6 139.7 72.96 141.4 C77.16 142.25 81.27 143.45 85.13 145.3 C88.87 147.09 92.43 149.25 96.29 150.76 C104.27 153.86 113 153.23 121.24 151.68 C125.34 150.91 129.42 149.97 133.42 148.87 C137.41 147.77 141.35 146.41 145.04 144.5 C145.29 144.37 145.53 144.24 145.77 144.11 C143.82 148.33 141.74 152.47 139.46 156.51 z M147.04 141.28 C146.94 141.3 146.83 141.34 146.73 141.41 C139.62 145.79 131.27 147.72 123.19 149.41 C115 151.12 106.27 152.19 98.18 149.48 C94.22 148.16 90.65 145.97 86.94 144.13 C83.05 142.2 78.98 140.82 74.74 139.89 C66.28 138.02 57.26 136.98 48.68 138.68 C41.6 140.08 34.79 143.66 30.39 149.49 C30.23 149.71 30.06 149.93 29.91 150.15 C28.56 146.98 27.2 143.8 25.84 140.63 C24.46 137.42 23.05 134.19 21.42 131.09 C26.37 127.56 28.82 121.49 28.48 115.49 C28.37 113.56 28 111.64 27.41 109.79 C27.41 109.77 27.4 109.74 27.39 109.72 C29.52 107.88 31.67 106.08 33.99 104.58 C38.54 101.63 43.65 99.73 48.76 97.99 C54.1 96.17 59.66 94.47 65.38 94.84 C76.15 95.55 84.82 103.11 94.58 106.91 C93.21 110.54 93.3 114.56 93.45 118.38 C93.61 122.37 94.11 126.37 96.06 129.92 C99.76 136.68 107.01 140.45 114.3 142.04 C118.36 142.93 122.67 143.5 126.78 142.63 C130.73 141.79 134.46 139.86 138.04 138.04 C141.62 136.21 145.06 134.1 148.01 131.33 C150.33 129.15 152.35 126.64 154.14 124 C151.86 129.79 149.56 135.59 147.04 141.28 z M155 119.08 C153.19 122.17 151.19 125.16 148.78 127.83 C147.05 129.76 145.1 131.44 143.01 132.92 C142.77 131.07 142.47 129.24 142.09 127.41 L142.09 127.41 C148.18 124.43 153.51 119.95 157.56 114.52 C156.73 116.07 155.88 117.59 155 119.08 z M147.37 122.06 C145.57 123.37 143.66 124.53 141.67 125.54 C141.32 124.03 140.9 122.53 140.45 121.04 C147.73 116.87 155.23 112.52 160.52 105.84 C160.54 105.8 160.58 105.76 160.61 105.72 C157.69 112.18 153.09 117.88 147.37 122.06 z M145.67 115.81 C143.76 116.99 141.81 118.11 139.87 119.22 C139.38 117.76 138.83 116.31 138.25 114.89 C145.23 111.61 152.27 108.29 158.55 103.77 C159.39 103.17 160.22 102.54 161.02 101.9 C157.31 107.82 151.57 112.18 145.67 115.81 z M166.28 95.79 C166.62 89.69 166.99 83.59 167.58 77.5 C168.24 70.59 169.2 63.71 170.73 56.94 C171.49 53.62 172.33 50.3 173.44 47.08 C174.45 44.2 175.79 41.42 177.75 39.06 C181.27 34.83 186.28 31.93 191.73 31.11 C197.47 30.25 203.52 31.84 208.18 35.23 C210.73 37.08 212.81 39.54 214.61 42.11 C216.41 44.68 218.07 47.42 219.03 50.43 C219.9 53.15 220.12 56.01 219.55 58.81 C219 61.53 217.83 64.06 216.28 66.36 C212.97 71.31 208.09 74.79 202.82 77.42 C197.04 80.31 190.86 82.28 184.93 84.85 C178.95 87.44 173.26 90.69 167.97 94.52 C167.41 94.94 166.84 95.36 166.28 95.79 z M244.23 50.95 C244.06 51.54 243.78 52.09 243.43 52.59 C242.71 54.25 240.73 55.12 239.22 55.93 C238 56.59 236.71 57.15 235.38 57.51 C236.74 57.79 238.01 58.36 238.94 59.43 C239.34 59.89 239.7 60.42 239.96 60.99 C240.37 61.63 240.64 62.34 240.72 63.03 C241.08 65.95 239.19 68.7 237.24 70.67 C233.16 74.83 227.76 77.33 222.26 79.06 C216.37 80.91 210.27 82.02 204.27 83.45 C197.67 85.02 191.11 86.8 184.69 89.01 C180.27 90.53 175.9 92.25 171.66 94.22 C175.09 91.92 178.68 89.86 182.41 88.06 C188.4 85.15 194.78 83.11 200.86 80.4 C206.54 77.87 211.97 74.64 216 69.82 C219.7 65.39 222.26 59.72 221.65 53.85 C221.3 50.56 220.07 47.47 218.43 44.62 C216.78 41.75 214.8 38.97 212.5 36.58 C208.18 32.09 202.29 29.4 196.06 29.07 C190.11 28.76 184.28 30.8 179.67 34.53 C177.45 36.34 175.54 38.55 174.1 41.03 C172.37 44.03 171.3 47.37 170.37 50.69 C168.44 57.56 167.2 64.61 166.33 71.69 C165.5 78.44 165.01 85.22 164.62 92.01 C163.76 85.79 162.91 79.56 162.22 73.31 C161.29 64.86 160.81 56.29 161.85 47.82 C162.69 40.96 164.64 34.14 167.97 28.06 C169.61 25.05 171.59 22.22 173.94 19.72 C176.4 17.1 179.22 14.76 182.5 13.26 C185.24 12.01 188.39 11.43 191.32 12.21 C191.85 12.24 192.37 12.34 192.87 12.51 C195.11 13.27 196.74 15.14 197.89 17.14 C198.71 18.55 199.35 20.07 199.83 21.64 C201.39 19.58 203.49 17.89 205.86 16.92 C207.51 16.17 209.31 15.75 211.13 15.75 C213.39 15.75 215.9 16.33 217.26 18.29 C218.27 19.73 218.86 21.55 219.12 23.33 C219.74 25.05 219.72 27.02 219.47 28.81 C219.26 30.2 218.89 31.61 218.32 32.94 C219.55 31.91 221.06 31.18 222.57 30.62 C224.06 29.95 225.67 29.54 227.31 29.42 C228.84 29.23 230.42 29.29 231.77 29.86 C232.97 30.24 234.06 30.88 234.84 31.93 C235.69 33.09 236.13 34.53 236.15 35.96 C236.67 37.59 235.67 39.65 234.94 41.01 C234.42 41.97 233.82 42.95 233.14 43.86 C235.11 43.19 237.24 42.79 238.99 43.7 C240.52 44.04 241.95 44.9 243.02 46.17 C244.15 47.53 244.76 49.22 244.23 50.95 z" style="fill:#0D273F;" /><path d="M183.09 19.2 C182.95 19.34 182.82 19.48 182.69 19.63 C181.54 20.7 180.79 22.23 180.68 23.92 C180.56 25.53 181.19 27.04 182.63 27.84 C183.97 28.59 185.64 28.61 187.02 27.95 C188.31 27.34 189.39 26.02 189.99 24.76 C190.63 23.42 190.85 21.88 190.29 20.48 C189.08 17.5 185.3 17.09 183.09 19.2 z" style="fill:#0D273F;" /><path d="M210.3 21.55 C208.69 21.35 207.35 22.07 206.44 23.22 C205.75 23.79 205.17 24.45 204.87 25.03 C203.57 27.48 204.56 30.82 207.46 31.44 C210.25 32.04 212.62 30.15 213.48 27.59 C213.91 26.27 214.04 24.64 213.31 23.4 C212.67 22.33 211.51 21.7 210.3 21.55 z" style="fill:#0D273F;" /><path d="M230.13 38.64 C230.29 37.38 229.87 36.07 228.99 35.14 C227.98 34.05 226.52 33.84 225.12 34.22 C223.54 34.64 221.99 35.51 221.05 36.9 C220.79 37.27 220.56 37.79 220.4 38.33 C220.38 38.38 220.34 38.43 220.32 38.47 C219.64 39.74 219.54 41.41 220.39 42.63 C221.21 43.79 222.67 44.37 224.07 44.25 C226.88 43.99 229.78 41.51 230.13 38.64 z" style="fill:#0D273F;" /><path d="M236.71 47.34 C235.44 46.66 233.86 46.79 232.53 47.21 C231.05 47.69 229.67 48.64 229.06 50.12 C228.99 50.28 228.94 50.44 228.9 50.6 C228.36 51.62 228.32 52.78 229.11 53.76 C229.97 54.84 231.38 55.29 232.72 55.31 C235.32 55.36 238.62 53.49 238.62 50.58 C238.61 49.28 237.86 47.96 236.71 47.34 z" style="fill:#0D273F;" /><path d="M233.66 62.06 C232.36 61.56 230.72 62 229.52 62.64 C228.94 62.95 228.43 63.41 228.17 64.03 C228.12 64.14 228.07 64.25 228.05 64.36 C227.7 64.78 227.41 65.27 227.22 65.82 C226.46 67.97 227.54 70.77 229.91 71.32 C232.25 71.86 234.82 69.82 235.73 67.78 C236.64 65.69 235.94 62.93 233.66 62.06 z" style="fill:#0D273F;" /><path d="M202.53 57.63 C202.3 52.11 197.96 46.81 192.12 47.1 C189.25 47.24 186.57 48.58 184.45 50.48 C182.17 52.52 180.67 55.27 179.61 58.11 C178.49 61.13 177.85 64.31 177.16 67.45 C176.36 71.04 175.56 74.65 174.76 78.24 C174.56 79.12 174.36 79.99 174.17 80.87 C174.14 81.02 174.14 81.15 174.16 81.28 C174.2 81.82 174.64 82.33 175.3 82.11 C178.52 81.03 181.66 79.74 184.7 78.24 C187.63 76.8 190.51 75.2 193.17 73.31 C198.25 69.68 202.81 64.23 202.53 57.63 z" style="fill:#0D273F;" /></g></g><g display="none" id="borders-10px"><rect x="5.03" y="4.84" width="246.11" height="243.85" stroke-width="10" stroke-miterlimit="10" opacity="0.2" style="fill:none;stroke:red;" /></g></svg>