<svg overflow="hidden" viewBox="0, 0, 96, 96" id="Icons_DimMediumSun_M" xmlns="http://www.w3.org/2000/svg" xmlns:xlink="http://www.w3.org/1999/xlink" xmlns:xml="http://www.w3.org/XML/1998/namespace" version="1.1"><g id="Icons"><path d="M48 30 C38.0589 30 30 38.0589 30 48 C30 57.9411 38.0589 66 48 66 C57.9411 66 66 57.9411 66 48 C65.9884 38.0637 57.9363 30.0116 48 30 z M48 64 C39.1634 64 32 56.8366 32 48 C32 39.1634 39.1634 32 48 32 C56.8366 32 64 39.1634 64 48 C63.9895 56.8322 56.8322 63.9895 48 64 z" /><rect x="47" y="70" width="2" height="13" /><rect x="47" y="13" width="2" height="13" /><rect x="13" y="47" width="13" height="2" /><rect x="70" y="47" width="13" height="2" /><rect x="21.348" y="67.153" width="13" height="2" transform="matrix(0.707107, -0.707107, 0.707107, 0.707107, -40.035, 39.653)" /><rect x="61.652" y="26.847" width="13" height="2" transform="matrix(0.707107, -0.707107, 0.707107, 0.707107, 0.27, 56.347)" /><rect x="26.848" y="21.347" width="2" height="13" transform="matrix(0.707107, -0.707107, 0.707107, 0.707107, -11.535, 27.848)" /><rect x="67.152" y="61.653" width="2" height="13" transform="matrix(0.707107, -0.707107, 0.707107, 0.707107, -28.23, 68.152)" /></g></svg>