<svg viewBox="0 0 96 96" xmlns="http://www.w3.org/2000/svg" xmlns:xlink="http://www.w3.org/1999/xlink" id="Icons_FlipFlops" overflow="hidden"><path d="M70.962 20.65C68.1222 19.961 65.1236 20.4985 62.7 22.131 57.62 25.547 55.808 32.982 55.264 36.02 54.981 37.6 54.827 40.334 54.649 43.5 54.372 48.417 54.027 54.537 53.109 57.6 52.401 59.962 51.472 62.275 50.487 64.723 49.1935 67.786 48.073 70.9193 47.131 74.108 45.1698 80.6338 48.8702 87.5138 55.3959 89.475 58.5361 90.4186 61.9227 90.0736 64.808 88.516 67.6465 87.0075 69.748 84.4077 70.628 81.316L70.628 81.316C71.721 77.483 75.553 64.816 76.828 61.778 77.4825 60.4877 78.2302 59.2467 79.065 58.065 81.273 54.715 84.297 50.126 85.241 45.056 86.788 36.781 81.47 22.885 70.962 20.65ZM68.751 36.088 68.184 36.488C65.471 38.356 60.274 42.419 58.847 46.975 56.947 53.031 58.898 59.997 58.917 60.066 59.1372 60.8646 58.6684 61.6906 57.8698 61.9108 57.0834 62.1277 56.2679 61.6764 56.034 60.895 55.942 60.576 53.813 53.01 55.983 46.079 57.913 39.918 65.021 34.925 67.491 33.34L67.884 31.204C68.0337 30.3891 68.8156 29.8498 69.6305 29.9995 70.4454 30.1492 70.9847 30.9311 70.835 31.746L70.518 33.472C72.181 35.572 80.928 47.213 78.113 56.2 75.771 63.673 72.791 65.908 72.459 66.138 71.7705 66.5987 70.8389 66.4139 70.3782 65.7254 69.9331 65.0601 70.0888 64.1625 70.732 63.686 70.815 63.622 73.248 61.693 75.25 55.303 77.282 48.817 71.55 39.96 69.055 36.52Z"/><path d="M41.75 24.43C41.883 21.346 41.736 13.695 37.525 9.252 35.5168 7.1288 32.708 5.9485 29.786 6L29.641 6C18.971 6 10.819 18.326 10.518 26.7 10.332 31.858 12.28 37 13.7 40.747 14.2574 42.0827 14.7163 43.4573 15.073 44.86 15.661 48.103 16.634 61.304 16.863 65.282L16.863 65.282C17.0486 68.4902 18.5321 71.4846 20.972 73.576 23.2369 75.5314 26.1288 76.6085 29.121 76.611 29.46 76.611 29.801 76.596 30.14 76.568 36.8475 75.954 41.8353 70.0933 41.369 63.374 41.1466 60.0577 40.7379 56.7565 40.145 53.486 39.719 50.886 39.316 48.42 39.145 45.96 38.917 42.769 39.917 36.72 40.721 31.86 41.234 28.733 41.681 26.033 41.75 24.43ZM28.171 21.917C24.971 24.74 17.471 32.131 18.036 38.882 18.601 45.633 20.597 48.029 20.617 48.052 21.1649 48.6734 21.1053 49.6213 20.4839 50.1691 20.2076 50.4128 19.8513 50.5462 19.483 50.544 19.069 50.5444 18.6739 50.371 18.394 50.066 18.12 49.766 15.699 46.937 15.046 39.132 14.262 29.748 25.338 20.3 27.42 18.611L27.487 16.858C27.528 16.0341 28.2194 15.3938 29.044 15.416 29.8718 15.448 30.517 16.1449 30.485 16.9728 30.485 16.9728 30.485 16.9729 30.485 16.973L30.402 19.143C32.467 21.228 38.313 27.653 38.852 34.087 39.457 41.324 35.728 48.243 35.568 48.534 35.1466 49.2473 34.2268 49.4839 33.5136 49.0625 32.8353 48.6618 32.5826 47.8046 32.935 47.1 32.97 47.037 36.391 40.664 35.861 34.341 35.461 29.581 31.277 24.48 29.037 22.066L28.578 21.566Z"/></svg>