<svg overflow="hidden" viewBox="0, 0, 96, 96" id="Icons_FlipFlops_M" xmlns="http://www.w3.org/2000/svg" xmlns:xlink="http://www.w3.org/1999/xlink" xmlns:xml="http://www.w3.org/XML/1998/namespace" version="1.1"><g id="Icons"><path d="M71.457 20.647 C70.625 20.4668 69.7763 20.3743 68.925 20.371 C66.881 20.3615 64.8824 20.9743 63.195 22.128 C58.115 25.544 56.302 32.979 55.759 36.018 C55.476 37.598 55.322 40.332 55.144 43.497 C54.867 48.415 54.523 54.534 53.605 57.597 C52.897 59.958 51.967 62.271 50.982 64.72 C49.6891 67.7814 48.569 70.913 47.627 74.1 C45.6628 80.6243 49.3596 87.5055 55.8838 89.4697 C59.0249 90.4153 62.4133 90.0711 65.3 88.513 C68.1384 87.0045 70.2396 84.4047 71.119 81.313 C72.212 77.48 76.044 64.813 77.325 61.775 C77.9789 60.4846 78.7263 59.2436 79.561 58.062 C81.769 54.712 84.792 50.123 85.737 45.053 C87.282 36.778 81.963 22.882 71.457 20.647 z M69.2 80.768 C68.4664 83.339 66.7169 85.5002 64.355 86.753 C59.3443 89.4762 53.0747 87.6218 50.3515 82.6111 C49.025 80.1704 48.7379 77.2981 49.555 74.643 C50.4779 71.5254 51.5746 68.462 52.84 65.467 C53.84 62.975 54.788 60.622 55.522 58.167 C55.7772 57.2684 55.9752 56.3546 56.115 55.431 C56.2555 57.226 56.5567 59.0048 57.015 60.746 C57.1767 61.2741 57.7358 61.5711 58.2639 61.4095 C58.7791 61.2518 59.0767 60.7143 58.937 60.194 C58.917 60.123 56.926 53.021 58.87 46.816 C60.54 41.489 67.141 36.859 69.37 35.416 C71.419 38.116 78.504 48.178 76.229 55.439 C74.152 62.069 71.593 64.028 71.529 64.076 C71.0767 64.393 70.967 65.0167 71.284 65.469 C71.601 65.9213 72.2247 66.031 72.677 65.714 C73.3678 65.1628 73.9722 64.5112 74.47 63.781 C72.726 68.869 70.008 77.933 69.2 80.768 z M83.775 44.689 C82.946 49.136 80.285 53.33 78.204 56.496 L77.751 57.186 C77.879 56.818 78.006 56.443 78.13 56.045 C80.857 47.345 72.353 35.971 70.651 33.815 L71.177 30.948 C71.277 30.4048 70.9177 29.8835 70.3745 29.7835 C69.8313 29.6835 69.31 30.0428 69.21 30.586 L68.677 33.486 C66.8 34.651 59.057 39.756 57 46.118 C57.052 45.261 57.1 44.418 57.145 43.605 C57.32 40.505 57.47 37.83 57.732 36.37 C58.232 33.583 59.87 26.777 64.316 23.787 C65.6717 22.8523 67.2824 22.3579 68.929 22.371 C69.6405 22.3749 70.3497 22.453 71.045 22.604 C80.287 24.57 85.14 37.358 83.775 44.689 z" /><path d="M30.281 6 L30.136 6 C19.466 6 11.314 18.326 11.012 26.7 C10.827 31.854 12.776 36.992 14.199 40.744 C14.7557 42.0791 15.2142 43.4531 15.571 44.855 C16.159 48.099 17.132 61.299 17.362 65.277 C17.5459 68.4852 19.0289 71.48 21.469 73.571 C23.7343 75.5264 26.6265 76.6034 29.619 76.606 C29.959 76.606 30.298 76.592 30.638 76.563 C37.3438 75.948 42.3302 70.0889 41.865 63.371 C41.6417 60.0534 41.2328 56.7509 40.64 53.479 C40.213 50.879 39.811 48.416 39.64 45.958 C39.413 42.767 40.413 36.718 41.216 31.858 C41.733 28.731 42.18 26.031 42.249 24.427 C42.381 21.343 42.235 13.69 38.024 9.249 C36.0144 7.12587 33.2039 5.94659 30.281 6 z M39.868 63.476 C40.2734 69.1162 36.098 74.0468 30.468 74.576 C30.185 74.6 29.898 74.612 29.615 74.612 C27.1031 74.6148 24.6746 73.7107 22.776 72.066 C20.7446 70.327 19.5094 67.8356 19.355 65.166 C19.184 62.224 18.511 52.787 17.926 47.451 C18.2521 48.2717 18.6994 49.0389 19.253 49.727 C19.4406 49.9307 19.7051 50.0464 19.982 50.046 C20.5343 50.0482 20.9838 49.6022 20.9859 49.05 C20.9869 48.8025 20.8961 48.5634 20.731 48.379 C20.71 48.356 18.613 45.901 18.031 38.923 C17.4 31.339 26.51 23.065 29.1 20.879 C30.96 22.769 36.392 28.729 36.857 34.292 C37.399 40.772 33.906 47.268 33.871 47.333 C33.6103 47.8199 33.7937 48.4259 34.2806 48.6866 C34.7616 48.9441 35.3603 48.7685 35.626 48.292 C36.4525 46.6925 37.1333 45.0217 37.66 43.3 C37.5948 44.232 37.5885 45.1672 37.641 46.1 C37.823 48.652 38.232 51.154 38.668 53.818 C39.2481 57.0124 39.6487 60.2368 39.868 63.476 z M40.247 24.341 C40.183 25.82 39.747 28.455 39.239 31.532 C39.107 32.332 38.969 33.167 38.832 34.015 C38.209 27.348 31.753 20.667 30.185 19.135 L30.308 15.941 C30.3294 15.3891 29.8994 14.9244 29.3475 14.903 C29.3473 14.903 29.3472 14.903 29.347 14.903 C28.8038 14.8741 28.34 15.2911 28.3111 15.8344 C28.3106 15.8442 28.3102 15.8541 28.31 15.864 L28.188 19.031 C26.043 20.774 15.28 30.007 16.04 39.088 C16.075 39.502 16.075 40.05 16.075 40.05 C16.075 40.05 15.884 39.55 15.859 39.483 C14.523 35.948 12.849 31.283 13.011 26.774 C13.277 19.389 20.751 8 30.136 8 L30.26 8 C32.6405 7.93688 34.935 8.89171 36.568 10.625 C40.253 14.511 40.368 21.512 40.247 24.341 z" /></g></svg>