<svg overflow="hidden" viewBox="0, 0, 96, 96" id="Icons_PoolFloatie_M" xmlns="http://www.w3.org/2000/svg" xmlns:xlink="http://www.w3.org/1999/xlink" xmlns:xml="http://www.w3.org/XML/1998/namespace" version="1.1"><g id="Icons"><path d="M30.1 63.692 C30.1 70.138 46.493 70.324 48.362 70.324 C50.231 70.324 66.624 70.138 66.624 63.692 C66.624 57.246 50.233 57.06 48.364 57.06 C46.495 57.06 30.1 57.246 30.1 63.692 z M64.624 63.692 C64.624 66.25 57.343 68.324 48.362 68.324 C39.381 68.324 32.1 66.25 32.1 63.692 C32.1 61.134 39.381 59.06 48.362 59.06 C57.343 59.06 64.626 61.134 64.626 63.692 z" /><path d="M89.594 31.1 C89.2862 29.2058 89.0809 27.2964 88.979 25.38 C89.4211 24.0752 89.3999 22.658 88.919 21.367 C87.4759 17.269 84.568 13.8496 80.755 11.767 C76.7394 9.67922 72.0195 9.42091 67.8 11.058 C67.313 11.239 66.828 11.445 66.361 11.668 C61.8313 13.8398 58.546 17.9667 57.445 22.868 C56.233 28.0214 57.449 33.4461 60.745 37.589 C60.745 37.589 61.376 38.405 61.483 38.521 L72.383 52.276 C73.5268 53.8061 74.0345 55.7191 73.8 57.615 C73.6984 58.1579 74.0562 58.6803 74.5991 58.7818 C74.5994 58.7819 74.5997 58.7819 74.6 58.782 C74.6607 58.793 74.7223 58.7987 74.784 58.799 C75.2653 58.7985 75.6779 58.4552 75.766 57.982 C76.1063 55.5833 75.4963 53.1465 74.066 51.191 L73.675 50.679 L63.053 37.279 L62.313 36.344 C59.3836 32.6796 58.3087 27.8687 59.4 23.306 C60.3554 18.9981 63.2424 15.3707 67.226 13.473 C67.644 13.273 68.073 13.092 68.526 12.923 C72.195 11.5003 76.2978 11.7187 79.795 13.523 C83.1855 15.3751 85.7685 18.4192 87.044 22.066 C87.33 22.8471 87.365 23.6981 87.144 24.5 C84.0013 24.2454 80.9061 25.3891 78.684 27.626 C78.5068 27.3671 78.3608 27.0882 78.249 26.795 C77.1761 23.9123 73.9715 22.4429 71.087 23.511 C70.93 23.57 70.773 23.637 70.605 23.718 C69.2498 24.3801 68.2763 25.6308 67.967 27.107 C67.6191 28.6695 67.9388 30.3062 68.849 31.623 L68.925 31.723 L84.339 51.184 C86.8629 54.3371 87.7912 58.4782 86.855 62.407 C86.5183 63.8727 85.924 65.267 85.1 66.525 C84.4822 67.4901 83.9425 68.503 83.486 69.554 C79.982 77.345 65.028 83 47.93 83 C32.684 83 18.924 78.468 13.69 71.724 C12.674 70.414 11.638 69.233 10.39 67.824 C9.69944 67.0726 9.11868 66.2272 8.665 65.313 C6.92325 61.7682 6.96741 57.6071 8.784 54.1 C10.2413 51.2953 12.7344 49.1691 15.734 48.173 L16.781 54.623 L17.089 56.523 L17.669 60.184 C17.7457 60.6694 18.1636 61.0271 18.655 61.028 C18.7076 61.028 18.76 61.024 18.812 61.016 C19.3573 60.9295 19.7293 60.4174 19.643 59.872 L19.096 56.412 L19.748 56.039 C26.748 52.029 37.021 49.73 47.948 49.73 C48.2347 49.726 48.5217 49.724 48.809 49.724 C56.258 49.7231 63.6509 51.0122 70.66 53.534 C70.675 53.54 70.681 53.534 70.672 53.519 C70.012 52.519 69.215 51.503 68.803 50.981 C68.73 50.891 68.671 50.815 68.613 50.741 C62.2024 48.7448 55.5272 47.7273 48.813 47.723 C48.517 47.723 48.221 47.725 47.925 47.729 C36.237 47.729 25.779 50.282 18.757 54.302 L17.364 45.721 C9.57877 46.985 4.29227 54.3209 5.55628 62.1061 C5.77015 63.4233 6.16759 64.7041 6.737 65.911 C7.27486 67.0735 7.98446 68.1485 8.842 69.1 C9.962 70.363 11.076 71.622 12.11 72.955 C17.575 79.992 31.551 85 47.93 85 C66.284 85 81.611 78.715 85.33 70.323 C85.7504 69.3644 86.2452 68.4403 86.81 67.559 C87.7416 66.1201 88.4147 64.5295 88.799 62.859 C89.8609 58.3364 88.7922 53.5766 85.899 49.942 L70.492 30.483 C69.8982 29.6263 69.69 28.5602 69.918 27.543 C70.0935 26.6597 70.6717 25.9091 71.481 25.514 C71.581 25.466 71.681 25.423 71.781 25.386 C73.6309 24.6999 75.6867 25.6426 76.374 27.492 C76.7653 28.5467 77.446 29.4697 78.338 30.155 C79.347 31.221 81.023 32.538 82.999 34.824 C85.707 37.956 87.357 39.052 88.465 39.052 C88.8132 39.0537 89.1512 38.9342 89.421 38.714 C91.428 37.137 90.1 33.587 89.594 31.1 z M88.311 37 C87.911 36.834 86.804 36.169 84.511 33.518 C83.4044 32.2534 82.2251 31.0544 80.979 29.927 C80.632 29.604 80.337 29.327 80.074 29.065 C81.9046 27.2112 84.4683 26.2732 87.063 26.508 C87.181 28.152 87.355 29.8 87.619 31.422 L87.625 31.463 L87.634 31.504 C87.721 31.931 87.834 32.389 87.946 32.862 C88.261 34.161 88.772 36.275 88.311 37 z" /></g></svg>