<svg overflow="hidden" viewBox="0, 0, 480, 480" id="c16ca201-21ff-4316-84ea-b05fcb8a4ccb" xmlns="http://www.w3.org/2000/svg" xmlns:xlink="http://www.w3.org/1999/xlink" xmlns:xml="http://www.w3.org/XML/1998/namespace" version="1.1"><style>
.MsftOfcThm_Accent4_Fill_v2 {
 fill:#FFC000; 
}
</style><g><path d="M430.805 263.223 L340.005 260.53 L340.02 275.032 L368.545 284.107 L369.582 284.107 L427.533 321.99 C432.098 310.586 428.773 297.978 420.147 290.211 L453.502 296.53 C456.432 281.065 446.27 266.153 430.805 263.223 z" class="st0" style="fill:#737373;" /><path d="M414.361 307.244 L369.346 278.408 L371.737 278.801 C372.056 278.853 404.137 284.078 447.358 287.804 L447.272 288.8 C410.775 285.653 382.211 281.439 373.978 280.166 C373.952 280.162 373.952 280.171 373.974 280.185 L414.9 306.403 L414.361 307.244 z" class="st1" style="fill:#505050;" /><path d="M291.999 191.334 L253.897 183.766 C235.068 180.026 221.505 163.504 221.505 144.307 L221.505 118.03 C221.505 87.72 149.505 85.794 149.505 130.245 L149.505 202.03 L149.505 202.235 C149.505 247.685 186.35 284.53 231.8 284.53 L368.495 284.53 C368.501 284.53 368.505 284.525 368.505 284.52 C368.5 239.184 336.467 200.166 291.999 191.334 z" class="st2" style="fill:#EAEAEA;" /><path d="M267.592 245.639 C241.962 237.219 224.51 212.269 224.505 184.042 C224.505 184.036 224.511 184.031 224.517 184.032 L285.725 196.096 C320.022 202.856 344.877 234.334 344.883 271.015 C344.883 271.022 344.876 271.027 344.87 271.025 L267.592 245.639 z" class="st3" style="fill:#D1D1D1;" /><path d="M344.574 262.637 C339.946 261.868 335.536 260.991 331.329 260.022 C275.212 242.537 265.797 192.472 265.708 191.968 L264.724 192.141 C264.807 192.614 273.005 236.315 319.572 256.709 C320.415 257.078 320.384 257.16 319.502 256.896 C286.968 247.175 268.72 231.695 258.765 219.264 C245.482 202.674 243.672 187.8 243.656 187.652 L242.662 187.763 C242.679 187.914 244.505 203.026 257.941 219.835 C269.138 233.841 290.713 251.681 331.057 260.985 C331.142 261.006 331.415 261.071 331.415 261.071 C335.634 262.042 339.771 262.853 344.41 263.624 L344.574 262.637 z" class="st4" style="fill:#E6E6E6;" /><path d="M238.814 371.53 L202.427 371.53 L202.427 371.53 C202.427 364.903 207.8 359.53 214.427 359.53 L238.814 359.53 C247.002 359.53 254.043 353.687 255.553 345.638 L265.006 292.03 L278.506 292.03 L267.348 347.85 C264.774 361.571 252.774 371.53 238.814 371.53 z" class="MsftOfcThm_Accent4_Fill_v2" style="fill:#FFC000;" /><path d="M263.275 371.53 L215.927 371.53 L215.927 371.53 C215.927 364.903 221.3 359.53 227.927 359.53 L263.275 359.53 C270.306 359.53 276.522 355.305 279.11 348.768 L301.005 292.03 L314.505 292.03 L290.266 353.184 C285.854 364.329 275.261 371.53 263.275 371.53 z" class="MsftOfcThm_Accent4_Fill_v2" style="fill:#FFC000;" /><path d="M153.826 123.951 L115.925 115.39 C108.666 113.688 101.402 118.192 99.699 125.451 L149.269 137.075 C149.287 137.079 149.287 137.088 149.27 137.094 L106.352 153.333 L106.352 153.333 C108.868 160.352 116.597 164.002 123.615 161.486 L153.824 149.803 L153.824 123.951 z" class="MsftOfcThm_Accent4_Fill_v2" style="fill:#FFC000;" /><circle cx="167.505" cy="121.03" r="4.5" class="st0" style="fill:#737373;" /></g><path d="M26.049 343.973 C27.535 372.71 74.284 374.032 111.863 372.089 C149.442 370.146 163.621 365.673 162.134 336.936 C160.648 308.199 128.979 286.478 91.4 288.421 C53.821 290.365 24.563 315.236 26.049 343.973 z" class="st6" style="fill:#D0D0D0;" /><path d="M215.505 367.515 C215.505 384.352 192.183 384.03 170.166 384.03 C148.149 384.03 135.775 384.351 135.775 367.515 C135.775 350.678 153.623 337.03 175.64 337.03 C197.657 337.03 215.505 350.679 215.505 367.515 z" class="st0" style="fill:#737373;" /></svg>