<svg overflow="hidden" viewBox="0, 0, 480, 480" id="b192abec-9b65-4ea0-ba88-7fe0ee444877" xmlns="http://www.w3.org/2000/svg" xmlns:xlink="http://www.w3.org/1999/xlink" xmlns:xml="http://www.w3.org/XML/1998/namespace" version="1.1"><path d="M62 279.133 C61.996 343.456 114.138 395.601 178.462 395.601 C193.672 395.601 208.529 392.355 222.189 386.71 C244.694 377.409 270.395 378.74 291.33 391.177 C311.523 403.173 336.237 406.802 360.368 398.52 C405.29 383.104 429.23 334.193 413.839 289.274 C409.574 276.828 403.008 265.726 394.7 256.594 C379.222 239.58 371.845 216.824 374.964 194.035 C375.443 190.534 375.679 186.909 375.668 183.165 C375.555 144.966 344.68 114.233 306.48 114.234 C301.329 114.234 296.4 114.708 291.706 115.642 C269.996 119.962 247.335 114.226 230.158 100.265 C221.843 93.508 211.997 87.768 200.797 83.279 C181.98 75.738 160.918 75.323 141.99 82.584 C96.011 100.224 76.781 141.334 82.674 180.126 C85.052 195.782 82.623 211.832 75.373 225.911 C67.075 242.024 62.001 260.379 62 279.133 z" style="fill:#E6E6E6;" /></svg>