<svg overflow="hidden" viewBox="0, 0, 96, 96" id="Icons_Splash1_M" xmlns="http://www.w3.org/2000/svg" xmlns:xlink="http://www.w3.org/1999/xlink" xmlns:xml="http://www.w3.org/XML/1998/namespace" version="1.1"><g id="Icons"><path d="M51.549 54.157 C51.584 54.159 51.619 54.159 51.654 54.157 C52.1853 54.1093 52.6034 53.6831 52.641 53.151 C52.881 49.668 54.207 36.922 61.056 26.338 C62.9817 23.2738 62.0588 19.2286 58.9945 17.3028 C55.9303 15.3771 51.8851 16.3001 49.9594 19.3643 C49.5253 20.055 49.224 20.8207 49.071 21.622 C46.846 34.161 49.671 49.369 50.479 53.291 C50.5859 53.7964 51.0324 54.1578 51.549 54.157 z M51.041 21.967 C51.5296 19.5009 53.9248 17.8979 56.3909 18.3864 C58.8569 18.875 60.46 21.2702 59.9714 23.7363 C59.8654 24.2714 59.6641 24.7831 59.377 25.247 C54.577 32.662 52.392 41.061 51.401 46.869 C51.395 46.902 51.386 46.902 51.381 46.869 C50.42 40.365 49.522 30.523 51.041 21.967 z" /><path d="M20.71 26.045 C27.371 31.102 38.25 43.625 46.554 65.336 C46.7888 66.0231 47.438 66.4819 48.164 66.474 C49.1072 66.5104 49.9012 65.7752 49.9376 64.8321 C49.9426 64.7 49.9324 64.5677 49.907 64.438 C47.207 49.068 41.547 28.093 29.88 15.838 C28.5653 14.4306 26.726 13.6311 24.8 13.63 C21.411 13.5913 18.5094 16.0505 17.992 19.4 C17.5964 21.9476 18.6424 24.505 20.71 26.045 z M19.966 19.721 C20.327 17.34 22.3921 15.5923 24.8 15.63 C26.1783 15.6342 27.4933 16.2087 28.433 17.217 C39.077 28.4 44.61 47.256 47.439 62.068 C47.449 62.123 47.439 62.125 47.42 62.073 C37.56 37.679 25.48 27.155 21.92 24.452 C20.4437 23.3579 19.6921 21.538 19.966 19.721 z" /><path d="M54.693 67.305 C55.2928 67.3123 55.8253 66.9228 56 66.349 C62.062 48.736 70.435 38.411 75.632 34.181 C77.2465 32.8928 78.0162 30.8174 77.632 28.788 C77.1431 26.1891 74.8594 24.3159 72.215 24.345 C70.6049 24.3453 69.0735 25.0417 68.015 26.255 C59 36.386 55.035 53.338 53.293 65.721 C53.1715 66.465 53.6761 67.1667 54.4201 67.2882 C54.5103 67.3029 54.6017 67.3085 54.693 67.305 z M69.508 27.584 C70.188 26.7986 71.1751 26.3467 72.214 26.345 C73.9038 26.3106 75.3682 27.5089 75.669 29.172 C75.9091 30.4764 75.409 31.8068 74.369 32.63 C71.753 34.759 63.315 42.605 56.287 59.885 C56.266 59.935 56.257 59.934 56.267 59.885 C58.339 48.741 62.225 35.772 69.508 27.584 z" /><path d="M68.783 54.96 C68.0696 54.9591 67.3713 55.1655 66.773 55.554 C62.9531 58.0165 60.0139 61.6284 58.379 65.869 C58.0977 66.5975 58.4603 67.4161 59.1888 67.6974 C59.3606 67.7638 59.5438 67.7959 59.728 67.792 C60.0769 67.7903 60.4131 67.6617 60.674 67.43 C63.2429 65.2031 66.3232 63.6468 69.64 62.9 C71.7819 62.4134 73.1237 60.2826 72.6371 58.1408 C72.5435 57.7287 72.3848 57.3341 72.167 56.972 L72.101 56.861 C71.4073 55.6869 70.1467 54.9646 68.783 54.96 z M70.57 59.809 C70.324 60.3868 69.8135 60.8097 69.2 60.944 C66.3427 61.5836 63.6387 62.7775 61.241 64.458 C61.223 64.471 61.216 64.465 61.227 64.445 C62.7766 61.5074 65.0621 59.0224 67.86 57.233 C68.1341 57.0532 68.4552 56.9582 68.783 56.96 C69.4403 56.9635 70.0477 57.3116 70.383 57.877 L70.448 57.987 C70.7814 58.5387 70.8268 59.2178 70.57 59.809 z" /><path d="M69.511 69.584 C69.5058 69.5823 69.5029 69.5766 69.5046 69.5714 C69.5056 69.5684 69.508 69.566 69.511 69.565 C70.898 69.025 71.711 68.396 71.711 67.723 C71.711 66.844 70.355 66.039 68.105 65.413 C67.0498 65.777 66.03 66.2362 65.058 66.785 C65.044 66.793 65.046 66.802 65.058 66.804 C66.3036 66.9995 67.5304 67.3006 68.725 67.704 C68.7297 67.7056 68.7322 67.7108 68.7305 67.7155 C68.7296 67.7181 68.7276 67.7201 68.725 67.721 C67.7022 68.138 67.2111 69.3052 67.6281 70.3281 C67.8675 70.9154 68.3714 71.3543 68.986 71.511 C70.6294 71.8259 72.1963 72.4562 73.6 73.367 C73.6041 73.3698 73.6053 73.3753 73.6025 73.3795 C73.6019 73.3805 73.601 73.3813 73.6 73.382 C71.987 74.8 64 77 51.451 77 C38.769 77 30.751 74.757 29.256 73.337 L29.256 73.326 C29.7624 72.3443 29.377 71.138 28.3954 70.6317 C28.2118 70.537 28.0147 70.4713 27.811 70.437 C26.9788 70.3031 26.1553 70.1194 25.345 69.887 C25.3398 69.8853 25.3369 69.8796 25.3386 69.8744 C25.3396 69.8714 25.342 69.869 25.345 69.868 C28.6253 69.0593 31.9984 68.6894 35.376 68.768 C36.157 68.768 36.923 68.791 37.676 68.823 C37.698 68.823 37.701 68.816 37.682 68.805 C36.3426 67.9983 34.9254 67.3283 33.452 66.805 C26.926 67.022 21.905 68.319 21.905 69.892 C21.905 70.929 24.098 71.846 27.458 72.413 C27.4634 72.414 27.467 72.4193 27.466 72.4247 C27.4657 72.4263 27.465 72.4277 27.464 72.429 C27.2523 72.6973 27.1321 73.0264 27.121 73.368 C27.124 76.475 38.016 79 51.451 79 C64.886 79 75.778 76.475 75.778 73.361 C75.778 71.908 73.406 70.583 69.511 69.584 z" /><path d="M75.238 45.207 L75.198 45.14 C74.7706 44.4594 74.0143 44.0567 73.211 44.082 C72.6636 44.0848 72.1285 44.2445 71.669 44.542 C69.0406 46.1938 66.9358 48.5587 65.6 51.361 C65.3967 51.7458 65.5439 52.2225 65.9287 52.4258 C66.0629 52.4967 66.2148 52.5273 66.366 52.514 C66.6277 52.5108 66.88 52.416 67.079 52.246 C68.8971 50.7414 71.0173 49.645 73.296 49.031 C75.093 48.549 76.075 46.619 75.238 45.207 z M72.777 47.1 C72.0899 47.2838 71.4141 47.5075 70.753 47.77 C70.725 47.781 70.72 47.77 70.743 47.754 C71.3663 47.1909 72.0353 46.6805 72.743 46.228 C72.8804 46.1359 73.0416 46.0856 73.207 46.083 C73.3028 46.0732 73.3986 46.1012 73.474 46.161 L73.514 46.228 C73.5463 46.3183 73.5394 46.418 73.495 46.503 C73.3595 46.8013 73.095 47.0212 72.777 47.1 z" /><path d="M33.462 50.634 C33.7748 50.9063 34.2492 50.8735 34.5215 50.5607 C34.7001 50.3556 34.7538 50.07 34.662 49.814 C33.8036 47.5856 32.2593 45.6876 30.252 44.394 C29.9376 44.1899 29.5708 44.0815 29.196 44.082 C28.479 44.0845 27.8163 44.4645 27.452 45.082 L27.418 45.14 C26.8231 46.1292 27.1427 47.4133 28.1319 48.0082 C28.3219 48.1225 28.5288 48.2058 28.745 48.255 C30.4896 48.6464 32.1102 49.4637 33.462 50.634 z" /><path d="M81.941 62.2 L81.926 62.134 C81.7133 61.2281 80.9095 60.5844 79.979 60.575 C79.8025 60.575 79.6269 60.5992 79.457 60.647 C77.1559 61.285 75.1164 62.6365 73.632 64.507 C73.3774 64.833 73.4353 65.3037 73.7613 65.5583 C73.894 65.6619 74.0577 65.7178 74.226 65.717 C74.3338 65.7164 74.4404 65.6936 74.539 65.65 C75.9055 65.0526 77.3806 64.7438 78.872 64.743 C79.177 64.743 79.472 64.756 79.746 64.778 C79.805 64.783 79.862 64.785 79.92 64.785 C81.0743 64.7797 82.0057 63.8398 82.0004 62.6855 C81.9997 62.5219 81.9797 62.3589 81.941 62.2 z" /><path d="M24.69 65.7 C25.522 65.7 26.03 64.8 25.35 64.232 C22.9525 62.2596 20.0439 61.0091 16.963 60.626 C16.8327 60.6085 16.7014 60.5998 16.57 60.6 C15.3177 60.535 14.2175 61.4239 14.018 62.662 L14.01 62.74 C13.9889 64.2073 15.1612 65.4139 16.6285 65.435 C16.697 65.436 16.7656 65.4343 16.834 65.43 C17.0207 65.4299 17.2071 65.4135 17.391 65.381 C18.3279 65.2152 19.2775 65.1319 20.229 65.132 C21.6307 65.1331 23.0266 65.3105 24.384 65.66 C24.4839 65.6861 24.5867 65.6995 24.69 65.7 z M17.042 63.412 C16.9733 63.4239 16.9037 63.4299 16.834 63.43 C16.5566 63.436 16.2889 63.3275 16.094 63.13 C16.0362 63.0794 16.0025 63.0068 16.001 62.93 L16.008 62.853 C16.1332 62.6697 16.3494 62.5704 16.57 62.595 C16.6131 62.5952 16.6562 62.5979 16.699 62.603 C17.5346 62.7137 18.3598 62.893 19.166 63.139 C19.195 63.148 19.193 63.156 19.166 63.158 C18.4537 63.2002 17.7445 63.284 17.042 63.409 z" /><path d="M31.173 64.059 C35.3128 64.9929 39.1569 66.9375 42.362 69.719 C42.6875 70.0077 43.1069 70.168 43.542 70.17 C44.516 70.1909 45.3225 69.4182 45.3434 68.4442 C45.3483 68.2139 45.3081 67.9848 45.225 67.77 C43.1844 62.4789 39.5165 57.9724 34.75 54.9 C34.0033 54.4156 33.132 54.1585 32.242 54.16 C30.5415 54.1633 28.9682 55.0609 28.1 56.523 L28.018 56.662 C26.6054 59.0103 27.3639 62.0591 29.7122 63.4717 C30.1648 63.744 30.6579 63.9422 31.173 64.059 z M29.74 57.681 L29.822 57.543 C30.3291 56.6879 31.2478 56.1617 32.242 56.157 C32.7465 56.1566 33.2403 56.3021 33.664 56.576 C37.8 59.2536 41.049 63.0977 43 67.622 C43.009 67.643 43 67.647 42.984 67.633 C39.673 64.9339 35.7793 63.0424 31.611 62.108 C30.6912 61.9069 29.9253 61.2736 29.555 60.408 C29.1706 59.5228 29.2395 58.5061 29.74 57.681 z" /></g></svg>