<svg viewBox="0 0 96 96" xmlns="http://www.w3.org/2000/svg" xmlns:xlink="http://www.w3.org/1999/xlink" id="Icons_Swimsuit1" overflow="hidden"><path d="M14.006 75 44.006 83 45.423 76.448 15.564 68.485 14.006 75Z"/><path d="M45.809 23.593C44.9259 22.9351 44.7434 21.6858 45.4013 20.8027 45.7788 20.296 46.3741 19.9982 47.006 20L49.006 20C50.1073 19.9974 51.0021 20.8881 51.0046 21.9894 51.0064 22.7286 50.5989 23.4082 49.946 23.755L50.246 25 71.006 25 71.006 16 25.006 16 25.006 25 45.472 25Z"/><path d="M80.448 68.485 50.589 76.448 52.006 83 82.006 75 80.448 68.485Z"/><path d="M71.006 29 56.006 29 51.201 29 54.465 42.651 51.547 43.349 48.116 29 47.6 29 44.806 40.689 41.888 39.992 44.516 29 40.006 29 25.006 29 16.494 64.594 46.328 72.549 48.006 65 49.684 72.549 79.517 64.594 71.006 29Z"/></svg>