<svg overflow="hidden" viewBox="0, 0, 96, 96" id="Icons_Swimsuit1_M" xmlns="http://www.w3.org/2000/svg" xmlns:xlink="http://www.w3.org/1999/xlink" xmlns:xml="http://www.w3.org/XML/1998/namespace" version="1.1"><g id="Icons"><path d="M81.958 74.006 L71.313 29.494 L71.313 17 C71.313 16.4477 70.8653 16 70.313 16 L25.686 16 C25.1337 16 24.686 16.4477 24.686 17 L24.686 29.494 L14.042 74.006 C13.9152 74.5338 14.2325 75.0663 14.757 75.206 L43.862 82.967 C44.3957 83.1089 44.9435 82.7912 45.0854 82.2575 C45.0888 82.2444 45.0921 82.2312 45.095 82.218 L47.995 69.192 C47.995 69.1865 47.9995 69.182 48.005 69.182 C48.0105 69.182 48.015 69.1865 48.015 69.192 L50.915 82.218 C50.9743 82.4837 51.1393 82.7137 51.372 82.855 C51.6044 82.9972 51.8849 83.0377 52.148 82.967 L81.248 75.206 C81.7705 75.0641 82.0852 74.5322 81.958 74.006 z M43.369 80.765 L16.214 73.523 L17.5 68.136 L44.57 75.354 z M48 63.537 C47.5314 63.5371 47.1257 63.8626 47.024 64.32 L45.006 73.4 L17.968 66.19 L26.659 29.844 C26.677 29.768 26.686 29.6901 26.686 29.612 L26.686 28 L43.246 28 L43.725 26 L26.686 26 L26.686 18 L69.313 18 L69.313 26 L51.98 26 L52.458 28 L69.313 28 L69.313 29.612 C69.3133 29.6902 69.3227 29.768 69.341 29.844 L78.032 66.19 L50.994 73.4 L48.976 64.32 C48.8743 63.8626 48.4686 63.5371 48 63.537 z M52.631 80.765 L51.431 75.354 L78.5 68.136 L79.788 73.523 z" /><path d="M53.972 42.934 L49.472 24.105 C50.3667 23.8877 50.9975 23.0877 51 22.167 L51 22.167 C51 21.0624 50.1046 20.167 49 20.167 L47 20.167 C45.8954 20.167 45 21.0624 45 22.167 L45 22.167 C45.0013 22.9828 45.4979 23.7161 46.255 24.02 L42.368 40.275 L44.313 40.74 L47.842 25.98 C47.842 25.9745 47.8465 25.97 47.852 25.97 C47.8575 25.97 47.862 25.9745 47.862 25.98 L52.027 43.4 z" /></g></svg>