<svg overflow="hidden" viewBox="0, 0, 96, 96" id="Icons_Swimsuit_M" xmlns="http://www.w3.org/2000/svg" xmlns:xlink="http://www.w3.org/1999/xlink" xmlns:xml="http://www.w3.org/XML/1998/namespace" version="1.1"><g id="Icons"><path d="M19.146 67.1 L20.12 67.125 C30.6963 67.3958 39.5287 75.2691 41.008 85.745 L41.12 86.618 L55.026 86.618 L55.138 85.745 C56.616 75.2679 65.4487 67.393 76.026 67.122 L77 67.1 L77 58 L19.146 58 z M21.146 60 L75 60 L75 65.168 C64.1568 65.9026 55.2043 73.921 53.284 84.618 L42.862 84.618 C40.9411 73.9213 31.9889 65.9033 21.146 65.168 z" /><path d="M77 43.958 C76.56 33.458 68.709 24.994 65 21.564 L65 9 L63 9 L63 21.564 C59.292 24.994 51.441 33.457 51 44 L51 46 L45 46 L45 43.958 C44.56 33.458 36.709 24.994 33 21.564 L33 9 L31 9 L31 21.564 C27.292 24.994 19.441 33.457 19 44 L19 48 L77 48 z M43 46 L21 46 L21 44.042 C21.395 34.606 28.36 26.813 32 23.363 C35.641 26.812 42.606 34.6 43 44 z M75 46 L53 46 L53 44.042 C53.395 34.606 60.36 26.813 64 23.363 C67.641 26.812 74.606 34.6 75 44 z" /></g></svg>